<?xml version='1.0' encoding='utf-8'?>
<svg xmlns="http://www.w3.org/2000/svg" width="1920" height="1080" viewBox="0 0 1920 1080" data-theme="dark" data-semantic-intent="taxonomy_list" data-relation-type="taxonomy" data-site-visual-identity="signal-cobalt">
  <style>
        @font-face {
            font-family: 'Inter';
            src: url('assets/fonts/Inter-Regular.ttf') format('truetype');
            font-weight: 400;
            font-style: normal;
            font-display: swap;
        }
        @font-face {
            font-family: 'Inter';
            src: url('assets/fonts/Inter-Bold.ttf') format('truetype');
            font-weight: 600;
            font-style: normal;
            font-display: swap;
        }
        @font-face {
            font-family: 'Inter';
            src: url('assets/fonts/Inter-Bold.ttf') format('truetype');
            font-weight: 800;
            font-style: normal;
            font-display: swap;
        }
        
:root {
    --background: #0f172a;
    --panel: #1e293b;
    --primary-text: #f1f5f9;
    --muted-text: #94a3b8;
    --inverse-text: #0f172a;
    --border: #334155;
    --shadow-color: #000000;
    --icon-pad-bg: #1e293b;
    --art-glow: #7dd3fc;
    --art-glow-opacity: 0.18;
    --art-sheen: #ffffff;
    --art-sheen-opacity: 0.18;
    --art-shadow: #000000;
    --art-shadow-opacity: 0.28;
    --art-muted-line: #64748b;
    --art-panel-tint: #1e293b;
    --semantic-risk: #f87171;
    --semantic-warning: #fb923c;
    --semantic-uncertain: #fbbf24;
    --semantic-evidence: #60a5fa;
    --semantic-claim: #c084fc;
    --semantic-positive: #4ade80;
    --semantic-outcome: #22d3ee;
    --font-family: 'Inter', 'Segoe UI', 'Kalam', Roboto, Helvetica, Arial, sans-serif;
    --radius-xl: 16px;
    --font-family-headline: 'Segoe UI Variable Display', 'Aptos Display', 'Inter', 'Segoe UI', Helvetica, Arial, sans-serif;
    --font-family-body: 'Segoe UI Variable Text', 'Aptos', 'Inter', 'Segoe UI', Helvetica, Arial, sans-serif;
    --font-heading: var(--font-family-headline);
    --font-body: var(--font-family-body);
    --font-size-h1: 64px;
    --font-size-h2: 42px;
    --font-size-h3: 29px;
    --font-size-body: 21px;
    --font-size-caption: 17px;
    --secondary-text: var(--muted-text);
    --panel-border: var(--border);
    --font-weight-normal: 400;
    --font-weight-medium: 500;
    --font-weight-semibold: 600;
    --font-weight-bold: 700;
    --spacing-gutter-pct: 0.07;
    --spacing-top-pct: 0.15;
    --spacing-bottom-pct: 0.07;
    --spacing-title-y-pct: 0.055;
    --accent-1: #93c5fd;
    --accent-2: #60a5fa;
    --accent-3: #818cf8;
    --accent-4: #a78bfa;
    --accent-5: #38bdf8;
    --accent-6: #fb923c;
}
:root[data-theme="dark"] {
    --background: #0f172a;
    --panel: #1e293b;
    --primary-text: #f1f5f9;
    --muted-text: #94a3b8;
    --inverse-text: #0f172a;
    --border: #334155;
    --shadow-color: #000000;
    --icon-pad-bg: #1e293b;
    --art-glow: #7dd3fc;
    --art-glow-opacity: 0.18;
    --art-sheen: #ffffff;
    --art-sheen-opacity: 0.18;
    --art-shadow: #000000;
    --art-shadow-opacity: 0.28;
    --art-muted-line: #64748b;
    --art-panel-tint: #1e293b;
    --semantic-risk: #f87171;
    --semantic-warning: #fb923c;
    --semantic-uncertain: #fbbf24;
    --semantic-evidence: #60a5fa;
    --semantic-claim: #c084fc;
    --semantic-positive: #4ade80;
    --semantic-outcome: #22d3ee;
    --accent-1: #93c5fd;
    --accent-2: #60a5fa;
    --accent-3: #818cf8;
    --accent-4: #a78bfa;
    --accent-5: #38bdf8;
    --accent-6: #fb923c;
}
:root[data-theme="light"] {
    --background: #f8fafc;
    --panel: #ffffff;
    --primary-text: #0f172a;
    --muted-text: #64748b;
    --inverse-text: #ffffff;
    --border: #e2e8f0;
    --shadow-color: #000000;
    --icon-pad-bg: #1e293b;
    --art-glow: #0891b2;
    --art-glow-opacity: 0.10;
    --art-sheen: #ffffff;
    --art-sheen-opacity: 0.34;
    --art-shadow: #0f172a;
    --art-shadow-opacity: 0.14;
    --art-muted-line: #94a3b8;
    --art-panel-tint: #f1f5f9;
    --semantic-risk: #b91c1c;
    --semantic-warning: #c2410c;
    --semantic-uncertain: #a16207;
    --semantic-evidence: #1d4ed8;
    --semantic-claim: #6d28d9;
    --semantic-positive: #15803d;
    --semantic-outcome: #0e7490;
    --accent-1: #1d4ed8;
    --accent-2: #2563eb;
    --accent-3: #4f46e5;
    --accent-4: #6d28d9;
    --accent-5: #0369a1;
    --accent-6: #c2410c;
}</style>
  <rect x="0" y="0" width="1.92E+3" height="1.08E+3" fill="#252a34" stroke="none" id="programmatic_background"/>
  <line id="HEADER_DECOR" x1="960.0" x2="1080.0" y1="115.0" y2="115.0" stroke="var(--accent-1)" stroke-width="6" stroke-linecap="round"/>
  <defs>
    <pattern id="svgda3ccb6e-napkin-hatch" patternUnits="userSpaceOnUse" width="12" height="12">
      <path d="M -3 12 L 12 -3 M 0 15 L 15 0" fill="none" stroke="var(--primary-text)" stroke-width="1" stroke-opacity="0.05"/>
    </pattern>
    <filter id="svgda3ccb6e-shadow" x="-30%" y="-30%" width="160%" height="160%">
      <feDropShadow dx="0" dy="2" stdDeviation="3" flood-color="#000000" flood-opacity="0.08"/>
      <feDropShadow dx="0" dy="6" stdDeviation="10" flood-color="#000000" flood-opacity="0.12"/>
    </filter>
    <radialGradient id="svgda3ccb6e-universal-edge-vignette" cx="50%" cy="50%" r="72%">
      <stop offset="0%" stop-color="var(--background)" stop-opacity="0"/>
      <stop offset="72%" stop-color="var(--background)" stop-opacity="0.12"/>
      <stop offset="100%" stop-color="var(--primary-text)" stop-opacity="0.08"/>
    </radialGradient>
    <linearGradient id="svgda3ccb6e-universal-surface-sheen" x1="0%" y1="0%" x2="100%" y2="100%">
      <stop offset="0%" stop-color="var(--art-sheen)" stop-opacity="var(--art-sheen-opacity)"/>
      <stop offset="46%" stop-color="var(--art-sheen)" stop-opacity="0.035"/>
      <stop offset="100%" stop-color="var(--art-panel-tint)" stop-opacity="0.14"/>
    </linearGradient>
    <radialGradient id="svgda3ccb6e-universal-icon-aura" cx="50%" cy="42%" r="64%">
      <stop offset="0%" stop-color="var(--art-glow)" stop-opacity="var(--art-glow-opacity)"/>
      <stop offset="100%" stop-color="var(--background)" stop-opacity="0"/>
    </radialGradient>
    <linearGradient id="svgda3ccb6e-taxonomy-node-sheen" x1="0%" y1="0%" x2="100%" y2="100%">
      <stop offset="0%" stop-color="var(--inverse-text)" stop-opacity="0.18"/>
      <stop offset="100%" stop-color="var(--background)" stop-opacity="0.14"/>
    </linearGradient>
    <filter id="svgda3ccb6e-text-glow" x="-20%" y="-20%" width="140%" height="140%">
      <feDropShadow dx="0" dy="0" stdDeviation="2" flood-color="#000000" flood-opacity="0.4"/>
    </filter>
    <marker id="svgda3ccb6e-arrowhead" markerWidth="10" markerHeight="7" refX="9" refY="3.5" orient="auto" markerUnits="strokeWidth">
      <polygon points="0 0, 10 3.5, 0 7" fill="var(--muted-text)" opacity="0.6"/>
    </marker>
  </defs>
  <rect width="100%" height="100%" fill="var(--background)" id="CANVAS_BG"/>
  <rect width="100%" height="100%" fill="url(#svgda3ccb6e-napkin-hatch)"/>
  <rect id="UNIVERSAL_EDGE_VIGNETTE" width="100%" height="100%" fill="url(#svgda3ccb6e-universal-edge-vignette)" opacity="0.62"/>
  <text id="TITLE" x="960.0" y="59" text-anchor="middle" font-weight="800" font-size="56" fill="#f1f5f9" style="font-size: 69px; font-family: 'Segoe UI Variable Display', 'Aptos Display', 'Inter', 'Segoe UI', Helvetica, Arial, sans-serif; font-weight: 800; font-kerning: normal; font-feature-settings: &quot;kern&quot; 1, &quot;liga&quot; 1; letter-spacing:-1.2px;" data-final-font-size="69">
    <tspan x="960.0" dy="70.47px">UNESCO AI Ethics Core Values</tspan>
  </text>
  <rect id="TITLE_FRAME" x="134" y="39" width="1652" height="103" fill="none"/>
  <g id="DIAGRAM_SCALER" transform="translate(50, 20) scale(0.95)">
    <!-- Parent Node (ITEM_1) - Top Box -->
    <g transform="translate(960, 235)">
      <rect x="-310" y="-75" width="620" height="150" rx="18" fill="var(--panel)" stroke="var(--accent-1)" stroke-width="6" filter="url(#svgda3ccb6e-shadow)"/>
      <circle id="ITEM_1_PAD" cx="-150" cy="0" r="55" fill="var(--icon-pad-bg)" stroke="var(--accent-1)" opacity="1" fill-opacity="0.9" stroke-width="2" stroke-opacity="0.72" data-badge-layer="pad"/>
      <circle id="ITEM_1_PAD_INNER" cx="-150" cy="0" r="42.90" fill="var(--accent-1)" fill-opacity="0.12" stroke="none" data-badge-layer="tint"/>
      <circle cx="-150" cy="0" r="44" fill="none" stroke="var(--accent-1)" stroke-width="3" stroke-dasharray="6 4" display="none" data-suppressed-decoration="redundant-badge-ring"/>
      <g id="ITEM_1_ICON" transform="translate(-192, -42)" data-icon-size="84" stroke-linecap="round" stroke-linejoin="round" data-badge-treatment="clean">
        <g transform="translate(-7.028571428571427,-7.028571428571427) scale(3.064285714285714)" vector-effect="non-scaling-stroke" fill="#f1f5f9" fill-opacity="1.0" stroke="none">
          <path fill="#f1f5f9" d="M20 28V6l-4-4l-4 4v22H2v2h28v-2Zm-6 0V6.828l2-2l2 2V28Z" vector-effect="non-scaling-stroke" stroke="none"/>
        </g>
      </g>
      <rect id="ITEM_1_TEXT_BG" x="-34.0" y="-66.0" width="352.0" height="212.0" rx="22" fill="var(--panel)" fill-opacity="0.94" stroke="none" stroke-opacity="0" stroke-width="1.5"/>
      <text id="ITEM_1_HEAD" data-bg-id="ITEM_1_TEXT_BG" x="144.0" y="-50.0" text-anchor="middle" font-weight="bold" font-size="28" fill="var(--accent-1)" fill-opacity="1.0" stroke="none" style="font-size: 31px; font-family: 'Segoe UI Variable Display', 'Aptos Display', 'Inter', 'Segoe UI', Helvetica, Arial, sans-serif; font-weight: 700; font-kerning: normal; font-feature-settings: &quot;kern&quot; 1, &quot;liga&quot; 1; letter-spacing:-0.4px;" data-final-font-size="31">
        <tspan x="144.0" dy="35.41px">Human Dignity</tspan>
      </text>
      <rect id="ITEM_1_HEAD_FRAME" x="-12" y="-50" width="312" height="48" fill="none"/>
      <text id="ITEM_1_BODY" data-bg-id="ITEM_1_TEXT_BG" x="144.0" y="14.0" text-anchor="middle" font-size="21" fill="var(--primary-text)" opacity="0.9" style="font-size: 23px; font-family: 'Segoe UI Variable Text', 'Aptos', 'Inter', 'Segoe UI', Helvetica, Arial, sans-serif; font-weight: 400; font-kerning: normal; font-feature-settings: &quot;kern&quot; 1, &quot;liga&quot; 1;" data-final-font-size="23">
        <tspan x="144.0" dy="35.66px">Protects fundamental rights</tspan>
        <tspan x="144.0" dy="26.45px">and individual personhood</tspan>
      </text>
      <rect id="ITEM_1_BODY_FRAME" x="8" y="14" width="272" height="116" fill="none"/>
    </g>
    <!-- Vertical connector from top box -->
    <path d="M 960 310 L 960 400" stroke="var(--muted-text)" stroke-width="6"/>
    <!-- Horizontal connector bar -->
    <path d="M 320 400 L 1600 400" stroke="var(--muted-text)" stroke-width="6"/>
    <!-- Vertical connectors to children -->
    <line x1="320" y1="400" x2="320" y2="475" stroke="var(--muted-text)" stroke-width="6"/>
    <line x1="960" y1="400" x2="960" y2="475" stroke="var(--muted-text)" stroke-width="6"/>
    <line x1="1600" y1="400" x2="1600" y2="475" stroke="var(--muted-text)" stroke-width="6"/>
    <!-- Child Node 1 (ITEM_2) -->
    <g transform="translate(320, 545)">
      <circle id="ITEM_2_PAD" cx="0" cy="0" r="70" fill="var(--icon-pad-bg)" stroke="var(--accent-2)" opacity="1" fill-opacity="0.9" stroke-width="2" stroke-opacity="0.72" data-badge-layer="pad"/>
      <circle id="ITEM_2_PAD_INNER" cx="0" cy="0" r="54.60" fill="var(--accent-2)" fill-opacity="0.12" stroke="none" data-badge-layer="tint"/>
      <circle cx="0" cy="0" r="56" fill="none" stroke="var(--accent-2)" stroke-width="3" stroke-dasharray="6 4" filter="url(#svgda3ccb6e-shadow)" display="none" data-suppressed-decoration="redundant-badge-ring"/>
      <g id="ITEM_2_ICON" transform="translate(-42, -42)" data-icon-size="84" stroke-linecap="round" stroke-linejoin="round" data-badge-treatment="clean">
        <g transform="translate(-22.711111111111105,-22.711111111111105) scale(5.392592592592592)" vector-effect="non-scaling-stroke" fill="#f1f5f9" fill-opacity="1.0" stroke="none">
          <path fill="#f1f5f9" d="M21 10h-4V8l-4.5-1.8V4H15V2h-3.5v4.2L7 8v2H3c-.55 0-1 .45-1 1v11h8v-5h4v5h8V11c0-.55-.45-1-1-1M8 20H4v-3h4zm0-5H4v-3h4zm4-7c.55 0 1 .45 1 1s-.45 1-1 1s-1-.45-1-1s.45-1 1-1m2 7h-4v-3h4zm6 5h-4v-3h4zm0-5h-4v-3h4z" vector-effect="non-scaling-stroke" stroke="none"/>
        </g>
      </g>
      <g transform="translate(0, 100)">
        <rect x="-200" y="-15" width="400" height="230" rx="16" fill="var(--accent-2)" fill-opacity="0.4" stroke="var(--accent-2)" id="ITEM_2_BG" stroke-width="3"/>
        <rect x="-190" y="-5" width="380" height="210" rx="14" fill="url(#svgda3ccb6e-taxonomy-node-sheen)" opacity="0.85"/>
        <rect id="ITEM_2_TEXT_BG" x="-208.0" y="-9.0" width="416.0" height="227.0" rx="22" fill="var(--panel)" fill-opacity="0.94" stroke="none" stroke-opacity="0" stroke-width="1.5"/>
        <text id="ITEM_2_HEAD" text-anchor="middle" font-weight="bold" font-size="28" fill="var(--primary-text)" x="0.0" y="7.0" data-bg-id="ITEM_2_BG" fill-opacity="1.0" stroke="none" style="font-size: 31px; font-family: 'Segoe UI Variable Display', 'Aptos Display', 'Inter', 'Segoe UI', Helvetica, Arial, sans-serif; font-weight: 700; font-kerning: normal; font-feature-settings: &quot;kern&quot; 1, &quot;liga&quot; 1; letter-spacing:-0.4px;" data-final-font-size="31">
          <tspan x="0.0" dy="35.41px">Fair Societies</tspan>
        </text>
        <rect id="ITEM_2_HEAD_FRAME" x="-190" y="7" width="380" height="48" fill="none"/>
        <text id="ITEM_2_BODY" text-anchor="middle" font-size="21" fill="var(--primary-text)" x="0.0" y="62.0" data-bg-id="ITEM_2_TEXT_BG" opacity="0.9" style="font-size: 23px; font-family: 'Segoe UI Variable Text', 'Aptos', 'Inter', 'Segoe UI', Helvetica, Arial, sans-serif; font-weight: 400; font-kerning: normal; font-feature-settings: &quot;kern&quot; 1, &quot;liga&quot; 1;" data-final-font-size="23">
          <tspan x="0.0" dy="41.42px">Promotes peaceful and equitable</tspan>
          <tspan x="0.0" dy="26.45px">social structures</tspan>
        </text>
        <rect id="ITEM_2_BODY_FRAME" x="-190" y="62" width="380" height="140" fill="none"/>
      </g>
    </g>
    <!-- Child Node 2 (ITEM_3) -->
    <g transform="translate(960, 545)">
      <circle id="ITEM_3_PAD" cx="0" cy="0" r="70" fill="var(--icon-pad-bg)" stroke="var(--accent-3)" opacity="1" fill-opacity="0.9" stroke-width="2" stroke-opacity="0.72" data-badge-layer="pad"/>
      <circle id="ITEM_3_PAD_INNER" cx="0" cy="0" r="54.60" fill="var(--accent-3)" fill-opacity="0.12" stroke="none" data-badge-layer="tint"/>
      <circle cx="0" cy="0" r="56" fill="none" stroke="var(--accent-3)" stroke-width="3" stroke-dasharray="6 4" filter="url(#svgda3ccb6e-shadow)" display="none" data-suppressed-decoration="redundant-badge-ring"/>
      <g id="ITEM_3_ICON" transform="translate(-42, -42)" data-icon-size="84" stroke-linecap="round" stroke-linejoin="round" data-badge-treatment="clean">
        <g transform="translate(-17.227118644067797,-17.227118644067797) scale(4.935593220338983)" vector-effect="non-scaling-stroke" stroke-width="2.72" stroke-linecap="round" stroke-linejoin="round" stroke-opacity="1.0">
          <circle cx="12" cy="12" r="10" vector-effect="non-scaling-stroke" fill="none" stroke="#f1f5f9"/>
          <path d="M12 2a14.5 14.5 0 0 0 0 20 14.5 14.5 0 0 0 0-20" vector-effect="non-scaling-stroke" fill="none" stroke="#f1f5f9"/>
          <path d="M2 12h20" vector-effect="non-scaling-stroke" fill="none" stroke="#f1f5f9"/>
        </g>
      </g>
      <g transform="translate(0, 100)">
        <rect x="-200" y="-15" width="400" height="230" rx="16" fill="var(--accent-3)" fill-opacity="0.4" stroke="var(--accent-3)" id="ITEM_3_BG" stroke-width="3"/>
        <rect x="-190" y="-5" width="380" height="210" rx="14" fill="url(#svgda3ccb6e-taxonomy-node-sheen)" opacity="0.85"/>
        <rect id="ITEM_3_TEXT_BG" x="-208.0" y="-9.0" width="416.0" height="227.0" rx="22" fill="var(--panel)" fill-opacity="0.94" stroke="none" stroke-opacity="0" stroke-width="1.5"/>
        <text id="ITEM_3_HEAD" text-anchor="middle" font-weight="bold" font-size="28" fill="var(--primary-text)" x="0.0" y="7.0" data-bg-id="ITEM_3_BG" fill-opacity="1.0" stroke="none" style="font-size: 31px; font-family: 'Segoe UI Variable Display', 'Aptos Display', 'Inter', 'Segoe UI', Helvetica, Arial, sans-serif; font-weight: 700; font-kerning: normal; font-feature-settings: &quot;kern&quot; 1, &quot;liga&quot; 1; letter-spacing:-0.4px;" data-final-font-size="31">
          <tspan x="0.0" dy="35.41px">Diversity Inclusion</tspan>
        </text>
        <rect id="ITEM_3_HEAD_FRAME" x="-190" y="7" width="380" height="48" fill="none"/>
        <text id="ITEM_3_BODY" text-anchor="middle" font-size="21" fill="var(--primary-text)" x="0.0" y="62.0" data-bg-id="ITEM_3_TEXT_BG" opacity="0.9" style="font-size: 23px; font-family: 'Segoe UI Variable Text', 'Aptos', 'Inter', 'Segoe UI', Helvetica, Arial, sans-serif; font-weight: 400; font-kerning: normal; font-feature-settings: &quot;kern&quot; 1, &quot;liga&quot; 1;" data-final-font-size="23">
          <tspan x="0.0" dy="41.42px">Ensures representation across</tspan>
          <tspan x="0.0" dy="26.45px">different cultural backgrounds</tspan>
        </text>
        <rect id="ITEM_3_BODY_FRAME" x="-190" y="62" width="380" height="140" fill="none"/>
      </g>
    </g>
    <!-- Child Node 3 (ITEM_4) -->
    <g transform="translate(1600, 545)">
      <circle id="ITEM_4_PAD" cx="0" cy="0" r="70" fill="var(--icon-pad-bg)" stroke="var(--accent-1)" opacity="1" fill-opacity="0.9" stroke-width="2" stroke-opacity="0.72" data-badge-layer="pad"/>
      <circle id="ITEM_4_PAD_INNER" cx="0" cy="0" r="54.60" fill="var(--accent-1)" fill-opacity="0.12" stroke="none" data-badge-layer="tint"/>
      <circle cx="0" cy="0" r="56" fill="none" stroke="var(--accent-4)" stroke-width="3" stroke-dasharray="6 4" filter="url(#svgda3ccb6e-shadow)" display="none" data-suppressed-decoration="redundant-badge-ring"/>
      <g id="ITEM_4_ICON" transform="translate(-42, -42)" data-icon-size="84" stroke-linecap="round" stroke-linejoin="round" data-badge-treatment="clean">
        <g transform="translate(-20.400000000000002,-20.400000000000002) scale(3.9)">
          <path d="M16.0075 19.2362C15.7575 19.2362 15.5575 19.0362 15.5575 18.7862V16.8794L13.1289 16.1523L11.4177 14.6914L15.5575 15.9316V15.6562C15.5575 14.6562 15.8375 13.6662 16.3975 12.8262C16.5654 12.5726 16.7039 12.3049 16.8126 12.0269L14.5967 11.3625L12.0178 9.6416L17.0513 11.1507C17.0887 10.9194 17.1075 10.684 17.1075 10.4462V8.34619H18.0075V10.4462C18.0075 10.562 18.0037 10.6772 17.9963 10.7918L21.8774 9.63159L18.8754 11.4765L17.8339 11.7879C17.6926 12.3201 17.466 12.8279 17.1575 13.2962C16.6975 13.9962 16.4575 14.8162 16.4575 15.6562V16.6486L20.5872 15.4114L18.0505 17.119L16.4575 17.5962V18.7862C16.4575 19.0362 16.2575 19.2362 16.0075 19.2362Z" fill="#44911B"/>
          <path d="M17.4098 2.07207C15.5777 4.2028 15.5236 7.71414 17.2924 9.92096C17.3737 10.0188 17.509 10.0297 17.5902 9.93183C19.4223 7.80111 19.4764 4.28976 17.7076 2.08295C17.6263 1.97423 17.491 1.97423 17.4098 2.07207Z" fill="#86D72F"/>
          <path d="M10.6575 11.5263L7.15747 10.4763C6.56747 12.4463 7.68747 14.5163 9.64747 15.1163L13.1475 16.1663C13.7475 14.1963 12.6275 12.1163 10.6575 11.5263Z" fill="#86D72F"/>
          <path d="M24.0375 11.4363L20.5375 12.4863C18.5675 13.0863 17.4475 15.1563 18.0475 17.1263L21.5475 16.0763C23.5075 15.4763 24.6275 13.4063 24.0375 11.4363Z" fill="#86D72F"/>
          <path d="M12.1275 6.73628L8.62747 5.68628C8.04747 7.65628 9.15747 9.72628 11.1275 10.3263L14.6275 11.3763C15.2175 9.40628 14.0975 7.32628 12.1275 6.73628Z" fill="#86D72F"/>
          <path d="M24.8575 5.79639L21.3575 6.84639C19.3875 7.43639 18.2675 9.50639 18.8675 11.4864L22.3675 10.4364C24.3275 9.83639 25.4475 7.76639 24.8575 5.79639Z" fill="#86D72F"/>
          <path d="M22 20C20.3351 18.75 18.2513 18 16 18C13.7487 18 11.6649 18.75 10 20L16 21.9688L22 20Z" fill="#7D4533"/>
          <path d="M9.00745 23.9963L9.78745 28.6863C9.91745 29.4463 10.5674 29.9963 11.3274 29.9963H20.6774C21.4374 29.9963 22.0974 29.4463 22.2174 28.6863L23.0074 23.9963L16.0074 22.4062L9.00745 23.9963Z" fill="#F3AD61"/>
          <path d="M23.5 24H8.5C8.22 24 8 23.78 8 23.5V20.5C8 20.22 8.22 20 8.5 20H23.5C23.78 20 24 20.22 24 20.5V23.5C24 23.78 23.78 24 23.5 24Z" fill="#F3C07B"/>
        </g>
      </g>
      <g transform="translate(0, 100)">
        <rect x="-200" y="-15" width="400" height="230" rx="16" fill="var(--accent-1)" fill-opacity="0.4" stroke="var(--accent-4)" id="ITEM_4_BG" stroke-width="3"/>
        <rect x="-190" y="-5" width="380" height="210" rx="14" fill="url(#svgda3ccb6e-taxonomy-node-sheen)" opacity="0.85"/>
        <rect id="ITEM_4_TEXT_BG" x="-208.0" y="-9.0" width="416.0" height="227.0" rx="22" fill="var(--panel)" fill-opacity="0.94" stroke="none" stroke-opacity="0" stroke-width="1.5"/>
        <text id="ITEM_4_HEAD" text-anchor="middle" font-weight="bold" font-size="28" fill="var(--primary-text)" x="0.0" y="7.0" data-bg-id="ITEM_4_BG" fill-opacity="1.0" stroke="none" style="font-size: 31px; font-family: 'Segoe UI Variable Display', 'Aptos Display', 'Inter', 'Segoe UI', Helvetica, Arial, sans-serif; font-weight: 700; font-kerning: normal; font-feature-settings: &quot;kern&quot; 1, &quot;liga&quot; 1; letter-spacing:-0.4px;" data-final-font-size="31">
          <tspan x="0.0" dy="35.41px">Environmental Protection</tspan>
        </text>
        <rect id="ITEM_4_HEAD_FRAME" x="-190" y="7" width="380" height="48" fill="none"/>
        <text id="ITEM_4_BODY" text-anchor="middle" font-size="21" fill="var(--primary-text)" x="0.0" y="62.0" data-bg-id="ITEM_4_TEXT_BG" opacity="0.9" style="font-size: 23px; font-family: 'Segoe UI Variable Text', 'Aptos', 'Inter', 'Segoe UI', Helvetica, Arial, sans-serif; font-weight: 400; font-kerning: normal; font-feature-settings: &quot;kern&quot; 1, &quot;liga&quot; 1;" data-final-font-size="23">
          <tspan x="0.0" dy="41.42px">Mitigates ecological damage</tspan>
          <tspan x="0.0" dy="26.45px">from computing power</tspan>
        </text>
        <rect id="ITEM_4_BODY_FRAME" x="-190" y="62" width="380" height="140" fill="none"/>
      </g>
    </g>
  </g>
  <text id="SOURCE_NOTE" x="134.0" y="1058.0" fill="var(--muted-text)" opacity="1" style="font-family: var(--font-family); font-size: 20px;">Source: Ethics of Artificial Intelligence</text>
</svg>
