<?xml version='1.0' encoding='utf-8'?>
<svg xmlns="http://www.w3.org/2000/svg" width="1920" height="1080" viewBox="0 0 1920 1080" data-theme="light" data-semantic-intent="sequence" data-relation-type="sequence" data-site-visual-identity="signal-cobalt">
  <style>
        @font-face {
            font-family: 'Inter';
            src: url('assets/fonts/Inter-Regular.ttf') format('truetype');
            font-weight: 400;
            font-style: normal;
            font-display: swap;
        }
        @font-face {
            font-family: 'Inter';
            src: url('assets/fonts/Inter-Bold.ttf') format('truetype');
            font-weight: 600;
            font-style: normal;
            font-display: swap;
        }
        @font-face {
            font-family: 'Inter';
            src: url('assets/fonts/Inter-Bold.ttf') format('truetype');
            font-weight: 800;
            font-style: normal;
            font-display: swap;
        }
        
:root {
    --background: #f8fafc;
    --panel: #ffffff;
    --primary-text: #0f172a;
    --muted-text: #64748b;
    --inverse-text: #ffffff;
    --border: #e2e8f0;
    --shadow-color: #000000;
    --icon-pad-bg: #1e293b;
    --art-glow: #0891b2;
    --art-glow-opacity: 0.10;
    --art-sheen: #ffffff;
    --art-sheen-opacity: 0.34;
    --art-shadow: #0f172a;
    --art-shadow-opacity: 0.14;
    --art-muted-line: #94a3b8;
    --art-panel-tint: #f1f5f9;
    --semantic-risk: #b91c1c;
    --semantic-warning: #c2410c;
    --semantic-uncertain: #a16207;
    --semantic-evidence: #1d4ed8;
    --semantic-claim: #6d28d9;
    --semantic-positive: #15803d;
    --semantic-outcome: #0e7490;
    --font-family: 'Inter', 'Segoe UI', 'Kalam', Roboto, Helvetica, Arial, sans-serif;
    --radius-xl: 16px;
    --font-family-headline: 'Segoe UI Variable Display', 'Aptos Display', 'Inter', 'Segoe UI', Helvetica, Arial, sans-serif;
    --font-family-body: 'Segoe UI Variable Text', 'Aptos', 'Inter', 'Segoe UI', Helvetica, Arial, sans-serif;
    --font-heading: var(--font-family-headline);
    --font-body: var(--font-family-body);
    --font-size-h1: 64px;
    --font-size-h2: 42px;
    --font-size-h3: 29px;
    --font-size-body: 21px;
    --font-size-caption: 17px;
    --secondary-text: var(--muted-text);
    --panel-border: var(--border);
    --font-weight-normal: 400;
    --font-weight-medium: 500;
    --font-weight-semibold: 600;
    --font-weight-bold: 700;
    --spacing-gutter-pct: 0.07;
    --spacing-top-pct: 0.15;
    --spacing-bottom-pct: 0.07;
    --spacing-title-y-pct: 0.055;
    --accent-1: #1d4ed8;
    --accent-2: #2563eb;
    --accent-3: #4f46e5;
    --accent-4: #6d28d9;
    --accent-5: #0369a1;
    --accent-6: #c2410c;
}
:root[data-theme="dark"] {
    --background: #0f172a;
    --panel: #1e293b;
    --primary-text: #f1f5f9;
    --muted-text: #94a3b8;
    --inverse-text: #0f172a;
    --border: #334155;
    --shadow-color: #000000;
    --icon-pad-bg: #1e293b;
    --art-glow: #7dd3fc;
    --art-glow-opacity: 0.18;
    --art-sheen: #ffffff;
    --art-sheen-opacity: 0.18;
    --art-shadow: #000000;
    --art-shadow-opacity: 0.28;
    --art-muted-line: #64748b;
    --art-panel-tint: #1e293b;
    --semantic-risk: #f87171;
    --semantic-warning: #fb923c;
    --semantic-uncertain: #fbbf24;
    --semantic-evidence: #60a5fa;
    --semantic-claim: #c084fc;
    --semantic-positive: #4ade80;
    --semantic-outcome: #22d3ee;
    --accent-1: #93c5fd;
    --accent-2: #60a5fa;
    --accent-3: #818cf8;
    --accent-4: #a78bfa;
    --accent-5: #38bdf8;
    --accent-6: #fb923c;
}
:root[data-theme="light"] {
    --background: #f8fafc;
    --panel: #ffffff;
    --primary-text: #0f172a;
    --muted-text: #64748b;
    --inverse-text: #ffffff;
    --border: #e2e8f0;
    --shadow-color: #000000;
    --icon-pad-bg: #1e293b;
    --art-glow: #0891b2;
    --art-glow-opacity: 0.10;
    --art-sheen: #ffffff;
    --art-sheen-opacity: 0.34;
    --art-shadow: #0f172a;
    --art-shadow-opacity: 0.14;
    --art-muted-line: #94a3b8;
    --art-panel-tint: #f1f5f9;
    --semantic-risk: #b91c1c;
    --semantic-warning: #c2410c;
    --semantic-uncertain: #a16207;
    --semantic-evidence: #1d4ed8;
    --semantic-claim: #6d28d9;
    --semantic-positive: #15803d;
    --semantic-outcome: #0e7490;
    --accent-1: #1d4ed8;
    --accent-2: #2563eb;
    --accent-3: #4f46e5;
    --accent-4: #6d28d9;
    --accent-5: #0369a1;
    --accent-6: #c2410c;
}</style>
  <rect x="0" y="0" width="1.92E+3" height="1.08E+3" fill="#252a34" stroke="none" id="programmatic_background"/>
  <line id="HEADER_DECOR" x1="960.0" x2="1080.0" y1="135.0" y2="135.0" stroke="var(--accent-1)" stroke-width="6" stroke-linecap="round"/>
  <defs>
    <pattern id="svg2b722ff8-napkin-hatch" patternUnits="userSpaceOnUse" width="12" height="12">
      <path d="M -3 12 L 12 -3 M 0 15 L 15 0" fill="none" stroke="var(--primary-text)" stroke-width="1" stroke-opacity="0.05"/>
    </pattern>
    <filter id="svg2b722ff8-shadow" x="-30%" y="-30%" width="160%" height="160%">
      <feDropShadow dx="0" dy="2" stdDeviation="3" flood-color="#000000" flood-opacity="0.08"/>
      <feDropShadow dx="0" dy="6" stdDeviation="10" flood-color="#000000" flood-opacity="0.12"/>
    </filter>
    <radialGradient id="svg2b722ff8-universal-edge-vignette" cx="50%" cy="50%" r="72%">
      <stop offset="0%" stop-color="var(--background)" stop-opacity="0"/>
      <stop offset="72%" stop-color="var(--background)" stop-opacity="0.12"/>
      <stop offset="100%" stop-color="var(--primary-text)" stop-opacity="0.08"/>
    </radialGradient>
    <linearGradient id="svg2b722ff8-universal-surface-sheen" x1="0%" y1="0%" x2="100%" y2="100%">
      <stop offset="0%" stop-color="var(--art-sheen)" stop-opacity="var(--art-sheen-opacity)"/>
      <stop offset="46%" stop-color="var(--art-sheen)" stop-opacity="0.035"/>
      <stop offset="100%" stop-color="var(--art-panel-tint)" stop-opacity="0.14"/>
    </linearGradient>
    <radialGradient id="svg2b722ff8-universal-icon-aura" cx="50%" cy="42%" r="64%">
      <stop offset="0%" stop-color="var(--art-glow)" stop-opacity="var(--art-glow-opacity)"/>
      <stop offset="100%" stop-color="var(--background)" stop-opacity="0"/>
    </radialGradient>
    <filter id="svg2b722ff8-text-glow" x="-20%" y="-20%" width="140%" height="140%">
      <feDropShadow dx="0" dy="0" stdDeviation="2" flood-color="#000000" flood-opacity="0.4"/>
    </filter>
    <marker id="svg2b722ff8-arrowhead" markerWidth="10" markerHeight="7" refX="9" refY="3.5" orient="auto" markerUnits="strokeWidth">
      <polygon points="0 0, 10 3.5, 0 7" fill="var(--muted-text)" opacity="0.6"/>
    </marker>
    <marker id="svg2b722ff8-PHX_SEQUENCE_DIRECTION_ARROW" markerWidth="18" markerHeight="18" refX="16" refY="9" orient="auto" markerUnits="userSpaceOnUse">
      <path d="M 0 0 L 18 9 L 0 18 Z" fill="var(--muted-text)" opacity="0.9"/>
    </marker>
  </defs>
  <rect width="100%" height="100%" fill="var(--background)" id="CANVAS_BG"/>
  <rect width="100%" height="100%" fill="url(#svg2b722ff8-napkin-hatch)"/>
  <rect id="UNIVERSAL_EDGE_VIGNETTE" width="100%" height="100%" fill="url(#svg2b722ff8-universal-edge-vignette)" opacity="0.62"/>
  <text id="TITLE" x="960.0" y="59" text-anchor="middle" font-size="63" font-weight="700" fill="#0f172a" style="font-size: 69px; font-family: 'Segoe UI Variable Display', 'Aptos Display', 'Inter', 'Segoe UI', Helvetica, Arial, sans-serif; font-weight: 800; font-kerning: normal; font-feature-settings: &quot;kern&quot; 1, &quot;liga&quot; 1; letter-spacing:-1.2px;" data-final-font-size="69">
    <tspan x="960.0" dy="70.47px">AI Flood Prediction Workflow</tspan>
  </text>
  <rect id="TITLE_FRAME" x="134" y="59" width="1652" height="103" fill="none"/>
  <g id="DIAGRAM_SCALER">
    <line x1="960" y1="210" x2="960" y2="940" stroke="var(--border)" stroke-width="20" stroke-linecap="round" opacity="0.1"/>
    <line x1="960" y1="210" x2="960" y2="940" stroke="var(--muted-text)" stroke-width="7" stroke-linecap="round" opacity="0.48"/>
    <circle cx="960" cy="210" r="10" fill="var(--border)" opacity="0.35"/>
    <path d="M 960 972 L 980 940 L 940 940 Z" fill="var(--muted-text)" opacity="0.5"/>
    <g transform="translate(960, 260)">
      <circle cx="0" cy="0" r="18" fill="var(--panel)" stroke="var(--border)" stroke-width="4"/>
      <circle cx="0" cy="0" r="7" fill="var(--accent-1)"/>
      <line x1="0" y1="0" x2="220" y2="0" stroke="var(--accent-1)" stroke-width="16" stroke-linecap="round" opacity="0.18"/>
      <line x1="0" y1="0" x2="220" y2="0" stroke="var(--accent-1)" stroke-width="4" stroke-linecap="round"/>
      <circle cx="220" cy="0" r="72" fill="var(--accent-1)" opacity="0.14"/>
      <circle id="ITEM_1_NODE" cx="220" cy="0" r="56" fill="var(--panel)" stroke="var(--accent-1)" stroke-width="2" stroke-opacity="0.58" data-badge-layer="outline"/>
      <circle id="ITEM_1_PAD" cx="220" cy="0" r="50" fill="var(--icon-pad-bg)" stroke="var(--accent-1)" opacity="1" fill-opacity="0.9" stroke-width="2" stroke-opacity="0.72" data-badge-layer="pad"/>
      <circle id="ITEM_1_PAD_INNER" cx="220" cy="0" r="39.00" fill="var(--accent-1)" fill-opacity="0.12" stroke="none" data-badge-layer="tint"/>
      <circle cx="220" cy="0" r="40" fill="none" stroke="var(--accent-1)" stroke-width="3" stroke-dasharray="6 4" display="none" data-suppressed-decoration="redundant-badge-ring"/>
      <g id="ITEM_1_ICON" transform="translate(188, -32)" data-icon-size="64" stroke-linecap="round" stroke-linejoin="round" data-badge-treatment="clean">
        <g transform="translate(-10.305084745762713,-8.652542372881356) scale(3.5254237288135593)" vector-effect="non-scaling-stroke" stroke-width="2.48" stroke-linecap="round" stroke-linejoin="round" stroke-opacity="1.0">
          <path d="m12 14 4-4" vector-effect="non-scaling-stroke" fill="none" stroke="#f1f5f9"/>
          <path d="M3.34 19a10 10 0 1 1 17.32 0" vector-effect="non-scaling-stroke" fill="none" stroke="#f1f5f9"/>
        </g>
      </g>
      <g transform="translate(332, 0)">
        <path id="ITEM_1_TEXT_BG" d="M -26 -50 L 378 -50 L 420 -10 L 420 148 L 34 148 L -50 86 L -50 18 Z" fill="var(--panel)" fill-opacity="0.96" stroke="var(--primary-text)" stroke-opacity="0.12" stroke-width="1.5" filter="url(#svg2b722ff8-shadow)"/>
        <rect x="392" y="-30" width="10" height="110" rx="5" fill="var(--accent-1)" opacity="0.7"/>
        <line x1="24" y1="10" x2="354" y2="10" stroke="var(--accent-1)" stroke-width="3" opacity="0.3"/>
        <text id="ITEM_1_HEAD" data-bg-id="ITEM_1_TEXT_BG" font-weight="700" font-size="32" fill="var(--accent-1)" x="24.0" y="-30.0" fill-opacity="1.0" style="font-size: 31px; font-family: 'Segoe UI Variable Display', 'Aptos Display', 'Inter', 'Segoe UI', Helvetica, Arial, sans-serif; font-weight: 700; font-kerning: normal; font-feature-settings: &quot;kern&quot; 1, &quot;liga&quot; 1; letter-spacing:-0.4px;" data-final-font-size="31">
          <tspan x="24.0" dy="26.52px">Data Collection</tspan>
        </text>
        <rect id="ITEM_1_HEAD_FRAME" x="24" y="-30" width="338" height="36" fill="none"/>
        <text id="ITEM_1_BODY" data-bg-id="ITEM_1_TEXT_BG" font-size="22" fill="var(--primary-text)" opacity="0.92" x="24.0" y="24.0" style="font-size: 22px; font-family: 'Segoe UI Variable Text', 'Aptos', 'Inter', 'Segoe UI', Helvetica, Arial, sans-serif; font-weight: 400; font-kerning: normal; font-feature-settings: &quot;kern&quot; 1, &quot;liga&quot; 1;" data-final-font-size="22">
          <tspan x="24.0" dy="23.08px">Gather rainfall forecasts and</tspan>
          <tspan x="24.0" dy="25.30px">historical precipitation patterns</tspan>
        </text>
        <rect id="ITEM_1_BODY_FRAME" x="24" y="24" width="356" height="78" fill="none"/>
      </g>
    </g>
    <g transform="translate(960, 440)">
      <circle cx="0" cy="0" r="18" fill="var(--panel)" stroke="var(--border)" stroke-width="4"/>
      <circle cx="0" cy="0" r="7" fill="var(--accent-2)"/>
      <line x1="0" y1="0" x2="-220" y2="0" stroke="var(--accent-2)" stroke-width="16" stroke-linecap="round" opacity="0.18"/>
      <line x1="0" y1="0" x2="-220" y2="0" stroke="var(--accent-2)" stroke-width="4" stroke-linecap="round"/>
      <circle cx="-220" cy="0" r="72" fill="var(--accent-2)" opacity="0.14"/>
      <circle id="ITEM_2_NODE" cx="-220" cy="0" r="56" fill="var(--panel)" stroke="var(--accent-2)" stroke-width="2" stroke-opacity="0.58" data-badge-layer="outline"/>
      <circle id="ITEM_2_PAD" cx="-220" cy="0" r="50" fill="var(--icon-pad-bg)" stroke="var(--accent-2)" opacity="1" fill-opacity="0.9" stroke-width="2" stroke-opacity="0.72" data-badge-layer="pad"/>
      <circle id="ITEM_2_PAD_INNER" cx="-220" cy="0" r="39.00" fill="var(--accent-2)" fill-opacity="0.12" stroke="none" data-badge-layer="tint"/>
      <circle cx="-220" cy="0" r="40" fill="none" stroke="var(--accent-2)" stroke-width="3" stroke-dasharray="6 4" display="none" data-suppressed-decoration="redundant-badge-ring"/>
      <g id="ITEM_2_ICON" transform="translate(-252, -32)" data-icon-size="64" stroke-linecap="round" stroke-linejoin="round" data-badge-treatment="clean">
        <g transform="translate(-10.305084745762713,-10.305084745762713) scale(3.5254237288135593)" vector-effect="non-scaling-stroke" stroke-width="2.48" stroke-linecap="round" stroke-linejoin="round" stroke-opacity="1.0">
          <path d="M18 12h2" vector-effect="non-scaling-stroke" fill="none" stroke="#f1f5f9"/>
          <path d="M18 16h2" vector-effect="non-scaling-stroke" fill="none" stroke="#f1f5f9"/>
          <path d="M18 20h2" vector-effect="non-scaling-stroke" fill="none" stroke="#f1f5f9"/>
          <path d="M18 4h2" vector-effect="non-scaling-stroke" fill="none" stroke="#f1f5f9"/>
          <path d="M18 8h2" vector-effect="non-scaling-stroke" fill="none" stroke="#f1f5f9"/>
          <path d="M4 12h2" vector-effect="non-scaling-stroke" fill="none" stroke="#f1f5f9"/>
          <path d="M4 16h2" vector-effect="non-scaling-stroke" fill="none" stroke="#f1f5f9"/>
          <path d="M4 20h2" vector-effect="non-scaling-stroke" fill="none" stroke="#f1f5f9"/>
          <path d="M4 4h2" vector-effect="non-scaling-stroke" fill="none" stroke="#f1f5f9"/>
          <path d="M4 8h2" vector-effect="non-scaling-stroke" fill="none" stroke="#f1f5f9"/>
          <path d="M8 2a2 2 0 0 0-2 2v16a2 2 0 0 0 2 2h8a2 2 0 0 0 2-2V4a2 2 0 0 0-2-2h-1.5c-.276 0-.494.227-.562.495a2 2 0 0 1-3.876 0C9.994 2.227 9.776 2 9.5 2z" vector-effect="non-scaling-stroke" fill="none" stroke="#f1f5f9" marker-end="url(#svg2b722ff8-PHX_SEQUENCE_DIRECTION_ARROW)" data-direction-cue="forward"/>
          <line id="PHX_SEQUENCE_MIDROUTE_ARROW_1" x1="266.6" y1="303.3" x2="229.6" y2="261.2" stroke="var(--muted-text)" opacity="0.92" stroke-width="5" stroke-linecap="round" marker-end="url(#svg2b722ff8-PHX_SEQUENCE_DIRECTION_ARROW)" data-direction-cue="forward"/>
          <line id="PHX_SEQUENCE_MIDROUTE_ARROW_2" x1="375.0" y1="255.1" x2="395.2" y2="307.4" stroke="var(--muted-text)" opacity="0.92" stroke-width="5" stroke-linecap="round" marker-end="url(#svg2b722ff8-PHX_SEQUENCE_DIRECTION_ARROW)" data-direction-cue="forward"/>
        </g>
      </g>
      <g transform="translate(-332, 0)">
        <path id="ITEM_2_TEXT_BG" d="M 26 -50 L -378 -50 L -420 -10 L -420 148 L -34 148 L 50 86 L 50 18 Z" fill="var(--panel)" fill-opacity="0.96" stroke="var(--primary-text)" stroke-opacity="0.12" stroke-width="1.5" filter="url(#svg2b722ff8-shadow)"/>
        <rect x="-402" y="-30" width="10" height="110" rx="5" fill="var(--accent-2)" opacity="0.7"/>
        <line x1="-24" y1="10" x2="-354" y2="10" stroke="var(--accent-2)" stroke-width="3" opacity="0.3"/>
        <text id="ITEM_2_HEAD" data-bg-id="ITEM_2_TEXT_BG" text-anchor="end" font-weight="700" font-size="32" fill="var(--accent-2)" x="-24.0" y="-30.0" fill-opacity="1.0" style="font-size: 31px; font-family: 'Segoe UI Variable Display', 'Aptos Display', 'Inter', 'Segoe UI', Helvetica, Arial, sans-serif; font-weight: 700; font-kerning: normal; font-feature-settings: &quot;kern&quot; 1, &quot;liga&quot; 1; letter-spacing:-0.4px;" data-final-font-size="31">
          <tspan x="-24.0" dy="26.52px">Pattern Learning</tspan>
        </text>
        <rect id="ITEM_2_HEAD_FRAME" x="-362" y="-30" width="338" height="36" fill="none"/>
        <text id="ITEM_2_BODY" data-bg-id="ITEM_2_TEXT_BG" text-anchor="end" font-size="22" fill="var(--primary-text)" opacity="0.92" x="-24.0" y="24.0" style="font-size: 22px; font-family: 'Segoe UI Variable Text', 'Aptos', 'Inter', 'Segoe UI', Helvetica, Arial, sans-serif; font-weight: 400; font-kerning: normal; font-feature-settings: &quot;kern&quot; 1, &quot;liga&quot; 1;" data-final-font-size="22">
          <tspan x="-24.0" dy="23.08px">Machine learning models identify</tspan>
          <tspan x="-24.0" dy="25.30px">relationships between signals</tspan>
        </text>
        <rect id="ITEM_2_BODY_FRAME" x="-380" y="24" width="356" height="78" fill="none"/>
      </g>
    </g>
    <g transform="translate(960, 620)">
      <circle cx="0" cy="0" r="18" fill="var(--panel)" stroke="var(--border)" stroke-width="4"/>
      <circle cx="0" cy="0" r="7" fill="var(--accent-3)"/>
      <line x1="0" y1="0" x2="220" y2="0" stroke="var(--accent-3)" stroke-width="16" stroke-linecap="round" opacity="0.18"/>
      <line x1="0" y1="0" x2="220" y2="0" stroke="var(--accent-3)" stroke-width="4" stroke-linecap="round"/>
      <circle cx="220" cy="0" r="72" fill="var(--accent-3)" opacity="0.14"/>
      <circle id="ITEM_3_NODE" cx="220" cy="0" r="56" fill="var(--panel)" stroke="var(--accent-3)" stroke-width="2" stroke-opacity="0.58" data-badge-layer="outline"/>
      <circle id="ITEM_3_PAD" cx="220" cy="0" r="50" fill="var(--icon-pad-bg)" stroke="var(--accent-3)" opacity="1" fill-opacity="0.9" stroke-width="2" stroke-opacity="0.72" data-badge-layer="pad"/>
      <circle id="ITEM_3_PAD_INNER" cx="220" cy="0" r="39.00" fill="var(--accent-3)" fill-opacity="0.12" stroke="none" data-badge-layer="tint"/>
      <circle cx="220" cy="0" r="40" fill="none" stroke="var(--accent-3)" stroke-width="3" stroke-dasharray="6 4" display="none" data-suppressed-decoration="redundant-badge-ring"/>
      <g id="ITEM_3_ICON" transform="translate(188, -32)" data-icon-size="64" stroke-linecap="round" stroke-linejoin="round" data-badge-treatment="clean">
        <g transform="translate(-12.571428571428571,-12.571428571428571) scale(2.7857142857142856)">
          <path d="M4.89138 11.3024L14.4322 14.7761L8.60967 6.45894C8.41734 6.18648 8.48466 5.80823 8.75712 5.6159C9.02959 5.42357 9.40784 5.49088 9.60017 5.76335L15.4246 14.082V3.92664C15.4246 3.59327 15.6971 3.3208 16.0305 3.3208C16.3638 3.3208 16.6363 3.59327 16.6363 3.92664V14.3388L23.3293 6.36276C23.5441 6.10632 23.9256 6.07427 24.182 6.28903C24.4384 6.5038 24.4705 6.88526 24.2557 7.1417L17.7289 14.9196L27.5349 12.2895C27.8587 12.203 28.1888 12.3953 28.2754 12.7191C28.3619 13.0428 28.1696 13.373 27.8458 13.4595L18.0359 16.0871L27.5831 19.5631C27.8972 19.6785 28.0607 20.0247 27.9453 20.3388C27.8555 20.5824 27.6247 20.7363 27.3747 20.7363C27.3074 20.7363 27.2369 20.7235 27.1663 20.701L17.6275 17.2271L23.4511 25.5446C23.6434 25.817 23.5761 26.1953 23.3037 26.3876C23.1979 26.4613 23.0761 26.4966 22.9543 26.4966C22.7619 26.4966 22.576 26.4069 22.4574 26.237L16.6363 17.9219V28.0736C16.6363 28.4101 16.3638 28.6794 16.0305 28.6794C15.6971 28.6794 15.4246 28.4069 15.4246 28.0736V17.6679L8.7315 25.6406C8.6129 25.7817 8.44301 25.8554 8.26991 25.8554C8.13208 25.8554 7.99424 25.8073 7.88205 25.7143C7.62561 25.4996 7.59355 25.1181 7.80832 24.8617L14.334 17.085L4.52268 19.7103C4.47139 19.7263 4.4201 19.7327 4.36561 19.7327C4.09955 19.7327 3.85273 19.5532 3.78221 19.2839C3.69566 18.9602 3.88799 18.63 4.21174 18.5435L14.0213 15.916L4.47787 12.4404C4.16373 12.325 4.00025 11.9788 4.11565 11.6646C4.23105 11.3505 4.57724 11.187 4.89138 11.3024Z" fill="#F3AD61"/>
          <path d="M16.0016 2C8.26995 2 2 8.26995 2 16.0016C2 23.7333 8.26995 30.0032 16.0016 30.0032C23.7333 30.0032 30 23.7333 30 16.0016C30 8.26995 23.7333 2 16.0016 2ZM16.0016 26.7532C9.77974 26.7532 5.23315 22.2203 5.23315 15.9984C5.23315 9.77653 9.77974 5.21953 16.0016 5.21953C22.2235 5.21953 26.7668 9.77653 26.7668 15.9984C26.7636 22.2235 22.2235 26.7532 16.0016 26.7532Z" fill="#A56953"/>
          <path d="M16.0016 5.73745C17.3864 5.73745 18.7327 6.00992 19.9956 6.54203C21.2169 7.05811 22.3164 7.79858 23.2588 8.741C24.2012 9.68342 24.9417 10.7829 25.4578 12.0042C25.9931 13.2704 26.2624 14.6135 26.2624 15.9982C26.2624 17.383 25.9899 18.7293 25.4578 19.9923C24.9417 21.2136 24.2012 22.3131 23.2588 23.2555C22.3164 24.1979 21.2169 24.9384 19.9956 25.4545C18.7295 25.9898 17.3864 26.259 16.0016 26.259C14.6168 26.259 13.2705 25.9866 12.0075 25.4545C10.7862 24.9384 9.68675 24.1979 8.74433 23.2555C7.80191 22.3131 7.06144 21.2136 6.54536 19.9923C6.01004 18.7261 5.74078 17.383 5.74078 15.9982C5.74078 14.6135 6.01325 13.2672 6.54536 12.0042C7.06144 10.7829 7.80191 9.68342 8.74433 8.741C9.68675 7.79858 10.7862 7.05811 12.0075 6.54203C13.2705 6.00992 14.6136 5.73745 16.0016 5.73745ZM16.0016 4.73413C9.77971 4.73413 4.73425 9.77958 4.73425 16.0014C4.73425 22.2233 9.77971 27.2688 16.0016 27.2688C22.2234 27.2688 27.2689 22.2233 27.2689 16.0014C27.2657 9.77958 22.2234 4.73413 16.0016 4.73413Z" fill="#6D4534"/>
          <path d="M16.0016 19.377C17.8658 19.377 19.377 17.8658 19.377 16.0016C19.377 14.1374 17.8658 12.6262 16.0016 12.6262C14.1374 12.6262 12.6262 14.1374 12.6262 16.0016C12.6262 17.8658 14.1374 19.377 16.0016 19.377Z" fill="#A56953"/>
          <path d="M16.0016 17.5755C16.8709 17.5755 17.5756 16.8709 17.5756 16.0016C17.5756 15.1324 16.8709 14.4277 16.0016 14.4277C15.1324 14.4277 14.4277 15.1324 14.4277 16.0016C14.4277 16.8709 15.1324 17.5755 16.0016 17.5755Z" fill="#F3C07B"/>
        </g>
      </g>
      <g transform="translate(332, 0)">
        <path id="ITEM_3_TEXT_BG" d="M -26 -50 L 378 -50 L 420 -10 L 420 148 L 34 148 L -50 86 L -50 18 Z" fill="var(--panel)" fill-opacity="0.96" stroke="var(--primary-text)" stroke-opacity="0.12" stroke-width="1.5" filter="url(#svg2b722ff8-shadow)"/>
        <rect x="392" y="-30" width="10" height="110" rx="5" fill="var(--accent-3)" opacity="0.7"/>
        <line x1="24" y1="10" x2="354" y2="10" stroke="var(--accent-3)" stroke-width="3" opacity="0.3"/>
        <text id="ITEM_3_HEAD" data-bg-id="ITEM_3_TEXT_BG" font-weight="700" font-size="32" fill="var(--accent-3)" x="24.0" y="-30.0" fill-opacity="1.0" style="font-size: 31px; font-family: 'Segoe UI Variable Display', 'Aptos Display', 'Inter', 'Segoe UI', Helvetica, Arial, sans-serif; font-weight: 700; font-kerning: normal; font-feature-settings: &quot;kern&quot; 1, &quot;liga&quot; 1; letter-spacing:-0.4px;" data-final-font-size="31">
          <tspan x="24.0" dy="26.52px">Hydrological Forecast</tspan>
        </text>
        <rect id="ITEM_3_HEAD_FRAME" x="24" y="-30" width="338" height="36" fill="none"/>
        <text id="ITEM_3_BODY" data-bg-id="ITEM_3_TEXT_BG" font-size="22" fill="var(--primary-text)" opacity="0.92" x="24.0" y="24.0" style="font-size: 23px; font-family: 'Segoe UI Variable Text', 'Aptos', 'Inter', 'Segoe UI', Helvetica, Arial, sans-serif; font-weight: 400; font-kerning: normal; font-feature-settings: &quot;kern&quot; 1, &quot;liga&quot; 1;" data-final-font-size="23">
          <tspan x="24.0" dy="23.42px">Estimate water volume entering</tspan>
          <tspan x="24.0" dy="26.45px">the river system</tspan>
        </text>
        <rect id="ITEM_3_BODY_FRAME" x="24" y="24" width="356" height="78" fill="none"/>
      </g>
    </g>
    <g transform="translate(960, 800)">
      <circle cx="0" cy="0" r="18" fill="var(--panel)" stroke="var(--border)" stroke-width="4"/>
      <circle cx="0" cy="0" r="7" fill="var(--accent-4)"/>
      <line x1="0" y1="0" x2="-220" y2="0" stroke="var(--accent-4)" stroke-width="16" stroke-linecap="round" opacity="0.18"/>
      <line x1="0" y1="0" x2="-220" y2="0" stroke="var(--accent-4)" stroke-width="4" stroke-linecap="round"/>
      <circle cx="-220" cy="0" r="72" fill="var(--accent-4)" opacity="0.14"/>
      <circle id="ITEM_4_NODE" cx="-220" cy="0" r="56" fill="var(--panel)" stroke="var(--accent-1)" stroke-width="2" stroke-opacity="0.58" data-badge-layer="outline"/>
      <circle id="ITEM_4_PAD" cx="-220" cy="0" r="50" fill="var(--icon-pad-bg)" stroke="var(--accent-1)" opacity="1" fill-opacity="0.9" stroke-width="2" stroke-opacity="0.72" data-badge-layer="pad"/>
      <circle id="ITEM_4_PAD_INNER" cx="-220" cy="0" r="39.00" fill="var(--accent-1)" fill-opacity="0.12" stroke="none" data-badge-layer="tint"/>
      <circle cx="-220" cy="0" r="40" fill="none" stroke="var(--accent-4)" stroke-width="3" stroke-dasharray="6 4" display="none" data-suppressed-decoration="redundant-badge-ring"/>
      <g id="ITEM_4_ICON" transform="translate(-252, -32)" data-icon-size="64" stroke-linecap="round" stroke-linejoin="round" data-badge-treatment="clean">
        <g transform="translate(-7.325000000000001,-10.25) scale(0.1625)" vector-effect="non-scaling-stroke" fill="#f1f5f9" fill-opacity="1.0" stroke="none">
          <path fill="#f1f5f9" d="M256 22.115c-5.825 0-11.563.366-17.193 1.074l25.27 19.44l27.44-15.832A136.4 136.4 0 0 0 256 22.115m-31.406 3.64C164.628 39.899 120.115 93.66 120.115 158c0 70.687 53.73 128.608 122.65 135.244c.11-.089.213-.183.323-.271c8.263-6.629 19.152-10.972 31.252-12.305c6.22-.685 12.228-.512 17.822.457l.006-.025v-.002c1.954-7.778 6.776-13.879 12.527-17.332c4.314-2.59 8.978-3.837 13.528-4.137a34 34 0 0 1 4.496.002c5.895.383 11.445 2.11 16.095 5.584c.123.092.244.195.366.29c31.612-24.477 52.098-62.602 52.681-105.62c-6.228-5.54-16.99-15.23-18.4-17.346c-1.987-2.98-21.852-22.348-21.852-22.348l-44.199-2.484l19.865 24.336l-26.818 11.422l-20.494-27.983l24.85 59.018l-16.856 67.424l-33.713-1.406l-14.748-62.506l-53.379-11.239l19.666-58.996h69.082l3.41-6.275l-36.312-19.03l-41.799 18.985l-.701-41.437s21.068-18.964 21.068-24.582c0-3.13 2.132-12.118 4.063-19.682zm95.91 251.806c-2.437.009-4.81.597-6.543 1.638c-1.982 1.19-3.436 2.711-4.334 6.287l-.006.018l-13.79 53.928l-8.073-1.25c-12.118-1.876-25.705-2.017-32.533-1.07c-4.91 1.625-7.226 4.484-7.848 6.286c-.635 1.842-.734 2.198 1.135 3.5c.717.457 5.872 2.645 12.074 4.186c6.256 1.554 13.908 2.898 21.277 3.61c7.37.71 14.537.749 19.438.023s5.96-2.624 5.191-.912c13.432-29.903 16.61-45.388 21.844-74.057c-.08-.024-.02.092-.293-.111c-1.067-.797-3.7-1.864-6.492-2.045q-.525-.034-1.047-.031m-40.055 20.785c-1.604.011-3.25.106-4.926.29c-8.933.985-16.716 4.342-21.64 8.292s-6.649 7.762-6.438 10.965a8.1 8.1 0 0 0 .633 2.617a38 38 0 0 1 2.498-.854l.582-.174l.602-.093c8.147-1.276 19.2-1.204 30.615.006l5.25-20.53a45 45 0 0 0-7.176-.52zm-49.455 11.103c-32.373 12.647-66.581 48.933-73.314 87.27c8.55 13.94 15.925 25.451 42.213 28.804c20.25 2.584 36.195-3.383 53.138-11.421c-4.61 27.314-9.023 54.627-22.347 81.941l61.582 1.49l-1.987-11.422l-37.248-4.47c10.766-27.243 34.074-58.795 28.309-88.399c-18.755-3.482-37.817-6.687-69.527 1.49c2.954-8.21 13.434-21.073 25.947-33.408c-7.491-5.58-10.196-15.685-7.399-23.795a24.7 24.7 0 0 1 2.993-5.914c-2.137-3.465-3.52-7.4-3.807-11.752c-.238-3.613.312-7.107 1.447-10.414m-65.64 120.928c5.496 14.215 12.952 27.97 20.136 41.58c-17.916-10.752-58.268-14.487-64.808-14.402c-3.1 17.06-10.632 26.4-25.02 35.74l14.899 2.978l19.804-23.074c26.19 15.067 75.1 30.943 84.442 19.444c.305-9.276-.076-28.955-5.8-49.584c-17.281.494-32.183-4.853-43.653-12.682" vector-effect="non-scaling-stroke" stroke="none"/>
        </g>
      </g>
      <g transform="translate(-332, 0)">
        <path id="ITEM_4_TEXT_BG" d="M 26 -50 L -378 -50 L -420 -10 L -420 148 L -34 148 L 50 86 L 50 18 Z" fill="var(--panel)" fill-opacity="0.96" stroke="var(--primary-text)" stroke-opacity="0.12" stroke-width="1.5" filter="url(#svg2b722ff8-shadow)"/>
        <rect x="-402" y="-30" width="10" height="110" rx="5" fill="var(--accent-4)" opacity="0.7"/>
        <line x1="-24" y1="10" x2="-354" y2="10" stroke="var(--accent-4)" stroke-width="3" opacity="0.3"/>
        <text id="ITEM_4_HEAD" data-bg-id="ITEM_4_TEXT_BG" text-anchor="end" font-weight="700" font-size="32" fill="var(--accent-1)" x="-24.0" y="-30.0" fill-opacity="1.0" style="font-size: 31px; font-family: 'Segoe UI Variable Display', 'Aptos Display', 'Inter', 'Segoe UI', Helvetica, Arial, sans-serif; font-weight: 700; font-kerning: normal; font-feature-settings: &quot;kern&quot; 1, &quot;liga&quot; 1; letter-spacing:-0.4px;" data-final-font-size="31">
          <tspan x="-24.0" dy="26.52px">Inundation Modelling</tspan>
        </text>
        <rect id="ITEM_4_HEAD_FRAME" x="-362" y="-30" width="338" height="36" fill="none"/>
        <text id="ITEM_4_BODY" data-bg-id="ITEM_4_TEXT_BG" text-anchor="end" font-size="22" fill="var(--primary-text)" opacity="0.92" x="-24.0" y="24.0" style="font-size: 23px; font-family: 'Segoe UI Variable Text', 'Aptos', 'Inter', 'Segoe UI', Helvetica, Arial, sans-serif; font-weight: 400; font-kerning: normal; font-feature-settings: &quot;kern&quot; 1, &quot;liga&quot; 1;" data-final-font-size="23">
          <tspan x="-24.0" dy="23.42px">Map specific areas and depths</tspan>
          <tspan x="-24.0" dy="26.45px">of flooding</tspan>
        </text>
        <rect id="ITEM_4_BODY_FRAME" x="-380" y="24" width="356" height="78" fill="none"/>
      </g>
    </g>
  </g>
  <text id="SOURCE_NOTE" x="134.0" y="1058.0" fill="var(--muted-text)" opacity="1" style="font-family: var(--font-family); font-size: 20px;">Source: Help What is Google's Flood Hub?</text>
</svg>
