<?xml version='1.0' encoding='utf-8'?>
<svg xmlns="http://www.w3.org/2000/svg" width="1920" height="1080" viewBox="0 0 1920 1080" data-theme="light" data-semantic-intent="uncertain_compare" data-relation-type="taxonomy" data-site-visual-identity="signal-cobalt">
  <style>
        @font-face {
            font-family: 'Inter';
            src: url('assets/fonts/Inter-Regular.ttf') format('truetype');
            font-weight: 400;
            font-style: normal;
            font-display: swap;
        }
        @font-face {
            font-family: 'Inter';
            src: url('assets/fonts/Inter-Bold.ttf') format('truetype');
            font-weight: 600;
            font-style: normal;
            font-display: swap;
        }
        @font-face {
            font-family: 'Inter';
            src: url('assets/fonts/Inter-Bold.ttf') format('truetype');
            font-weight: 800;
            font-style: normal;
            font-display: swap;
        }
        
:root {
    --background: #f8fafc;
    --panel: #ffffff;
    --primary-text: #0f172a;
    --muted-text: #64748b;
    --inverse-text: #ffffff;
    --border: #e2e8f0;
    --shadow-color: #000000;
    --icon-pad-bg: #1e293b;
    --art-glow: #0891b2;
    --art-glow-opacity: 0.10;
    --art-sheen: #ffffff;
    --art-sheen-opacity: 0.34;
    --art-shadow: #0f172a;
    --art-shadow-opacity: 0.14;
    --art-muted-line: #94a3b8;
    --art-panel-tint: #f1f5f9;
    --semantic-risk: #b91c1c;
    --semantic-warning: #c2410c;
    --semantic-uncertain: #a16207;
    --semantic-evidence: #1d4ed8;
    --semantic-claim: #6d28d9;
    --semantic-positive: #15803d;
    --semantic-outcome: #0e7490;
    --font-family: 'Inter', 'Segoe UI', 'Kalam', Roboto, Helvetica, Arial, sans-serif;
    --radius-xl: 16px;
    --font-family-headline: 'Segoe UI Variable Display', 'Aptos Display', 'Inter', 'Segoe UI', Helvetica, Arial, sans-serif;
    --font-family-body: 'Segoe UI Variable Text', 'Aptos', 'Inter', 'Segoe UI', Helvetica, Arial, sans-serif;
    --font-heading: var(--font-family-headline);
    --font-body: var(--font-family-body);
    --font-size-h1: 64px;
    --font-size-h2: 42px;
    --font-size-h3: 29px;
    --font-size-body: 21px;
    --font-size-caption: 17px;
    --secondary-text: var(--muted-text);
    --panel-border: var(--border);
    --font-weight-normal: 400;
    --font-weight-medium: 500;
    --font-weight-semibold: 600;
    --font-weight-bold: 700;
    --spacing-gutter-pct: 0.07;
    --spacing-top-pct: 0.15;
    --spacing-bottom-pct: 0.07;
    --spacing-title-y-pct: 0.055;
    --accent-1: #1d4ed8;
    --accent-2: #2563eb;
    --accent-3: #4f46e5;
    --accent-4: #6d28d9;
    --accent-5: #0369a1;
    --accent-6: #c2410c;
}
:root[data-theme="dark"] {
    --background: #0f172a;
    --panel: #1e293b;
    --primary-text: #f1f5f9;
    --muted-text: #94a3b8;
    --inverse-text: #0f172a;
    --border: #334155;
    --shadow-color: #000000;
    --icon-pad-bg: #1e293b;
    --art-glow: #7dd3fc;
    --art-glow-opacity: 0.18;
    --art-sheen: #ffffff;
    --art-sheen-opacity: 0.18;
    --art-shadow: #000000;
    --art-shadow-opacity: 0.28;
    --art-muted-line: #64748b;
    --art-panel-tint: #1e293b;
    --semantic-risk: #f87171;
    --semantic-warning: #fb923c;
    --semantic-uncertain: #fbbf24;
    --semantic-evidence: #60a5fa;
    --semantic-claim: #c084fc;
    --semantic-positive: #4ade80;
    --semantic-outcome: #22d3ee;
    --accent-1: #93c5fd;
    --accent-2: #60a5fa;
    --accent-3: #818cf8;
    --accent-4: #a78bfa;
    --accent-5: #38bdf8;
    --accent-6: #fb923c;
}
:root[data-theme="light"] {
    --background: #f8fafc;
    --panel: #ffffff;
    --primary-text: #0f172a;
    --muted-text: #64748b;
    --inverse-text: #ffffff;
    --border: #e2e8f0;
    --shadow-color: #000000;
    --icon-pad-bg: #1e293b;
    --art-glow: #0891b2;
    --art-glow-opacity: 0.10;
    --art-sheen: #ffffff;
    --art-sheen-opacity: 0.34;
    --art-shadow: #0f172a;
    --art-shadow-opacity: 0.14;
    --art-muted-line: #94a3b8;
    --art-panel-tint: #f1f5f9;
    --semantic-risk: #b91c1c;
    --semantic-warning: #c2410c;
    --semantic-uncertain: #a16207;
    --semantic-evidence: #1d4ed8;
    --semantic-claim: #6d28d9;
    --semantic-positive: #15803d;
    --semantic-outcome: #0e7490;
    --accent-1: #1d4ed8;
    --accent-2: #2563eb;
    --accent-3: #4f46e5;
    --accent-4: #6d28d9;
    --accent-5: #0369a1;
    --accent-6: #c2410c;
}</style>
  <rect x="0" y="0" width="1.92E+3" height="1.08E+3" fill="#252a34" stroke="none" id="programmatic_background"/>
  <line id="HEADER_DECOR" x1="960.0" x2="1080.0" y1="90.0" y2="90.0" stroke="var(--accent-1)" stroke-width="6" stroke-linecap="round"/>
  <defs>
    <pattern id="svgb9474540-napkin-hatch" patternUnits="userSpaceOnUse" width="12" height="12">
      <path d="M -3 12 L 12 -3 M 0 15 L 15 0" fill="none" stroke="var(--primary-text)" stroke-width="1" stroke-opacity="0.05"/>
    </pattern>
    <filter id="svgb9474540-shadow" x="-30%" y="-30%" width="160%" height="160%">
      <feDropShadow dx="0" dy="2" stdDeviation="3" flood-color="#000000" flood-opacity="0.08"/>
      <feDropShadow dx="0" dy="6" stdDeviation="10" flood-color="#000000" flood-opacity="0.12"/>
    </filter>
    <radialGradient id="svgb9474540-universal-edge-vignette" cx="50%" cy="50%" r="72%">
      <stop offset="0%" stop-color="var(--background)" stop-opacity="0"/>
      <stop offset="72%" stop-color="var(--background)" stop-opacity="0.12"/>
      <stop offset="100%" stop-color="var(--primary-text)" stop-opacity="0.08"/>
    </radialGradient>
    <linearGradient id="svgb9474540-universal-surface-sheen" x1="0%" y1="0%" x2="100%" y2="100%">
      <stop offset="0%" stop-color="var(--art-sheen)" stop-opacity="var(--art-sheen-opacity)"/>
      <stop offset="46%" stop-color="var(--art-sheen)" stop-opacity="0.035"/>
      <stop offset="100%" stop-color="var(--art-panel-tint)" stop-opacity="0.14"/>
    </linearGradient>
    <radialGradient id="svgb9474540-universal-icon-aura" cx="50%" cy="42%" r="64%">
      <stop offset="0%" stop-color="var(--art-glow)" stop-opacity="var(--art-glow-opacity)"/>
      <stop offset="100%" stop-color="var(--background)" stop-opacity="0"/>
    </radialGradient>
    <radialGradient id="svgb9474540-venn-center-glow" cx="50%" cy="50%" r="60%">
      <stop offset="0%" stop-color="var(--art-glow)" stop-opacity="var(--art-glow-opacity)"/>
      <stop offset="100%" stop-color="var(--background)" stop-opacity="0"/>
    </radialGradient>
    <linearGradient id="svgb9474540-venn-label-sheen" x1="0%" y1="0%" x2="100%" y2="100%">
      <stop offset="0%" stop-color="var(--inverse-text)" stop-opacity="0.14"/>
      <stop offset="100%" stop-color="var(--background)" stop-opacity="0.12"/>
    </linearGradient>
    <filter id="svgb9474540-text-glow" x="-20%" y="-20%" width="140%" height="140%">
      <feDropShadow dx="0" dy="0" stdDeviation="2" flood-color="#000000" flood-opacity="0.4"/>
    </filter>
    <marker id="svgb9474540-arrowhead" markerWidth="10" markerHeight="7" refX="9" refY="3.5" orient="auto" markerUnits="strokeWidth">
      <polygon points="0 0, 10 3.5, 0 7" fill="var(--muted-text)" opacity="0.6"/>
    </marker>
  </defs>
  <rect width="100%" height="100%" fill="var(--background)" id="CANVAS_BG"/>
  <rect width="100%" height="100%" fill="url(#svgb9474540-napkin-hatch)"/>
  <rect id="UNIVERSAL_EDGE_VIGNETTE" width="100%" height="100%" fill="url(#svgb9474540-universal-edge-vignette)" opacity="0.62"/>
  <text id="TITLE" x="960.0" y="59" text-anchor="middle" font-weight="800" font-size="50" fill="#0f172a" style="font-size: 69px; font-family: 'Segoe UI Variable Display', 'Aptos Display', 'Inter', 'Segoe UI', Helvetica, Arial, sans-serif; font-weight: 800; font-kerning: normal; font-feature-settings: &quot;kern&quot; 1, &quot;liga&quot; 1; letter-spacing:-1.2px;" data-final-font-size="69">
    <tspan x="960.0" dy="70.47px">Limitations of AI Grid Flexibility</tspan>
  </text>
  <rect id="TITLE_FRAME" x="134" y="30" width="1652" height="70" fill="none"/>
  <g id="DIAGRAM_MAIN" transform="translate(960, 580)">
    <circle id="VENN_ART_CENTER_GLOW" cx="0" cy="0" r="255" fill="url(#svgb9474540-venn-center-glow)" opacity="0.95"/>
    <circle cx="0" cy="0" r="255" fill="url(#svgb9474540-venn-center-glow)" opacity="0.95"/>
    <circle cx="0" cy="0" r="255" fill="url(#svgb9474540-venn-center-glow)" opacity="0.95"/>
    <circle cx="0" cy="0" r="255" fill="url(#svgb9474540-venn-center-glow)" opacity="0.95"/>
    <circle cx="0" cy="0" r="255" fill="url(#svgb9474540-venn-center-glow)" opacity="0.95"/>
    <circle cx="0" cy="0" r="255" fill="url(#svgb9474540-venn-center-glow)" opacity="0.95"/>
    <circle cx="0" cy="0" r="255" fill="url(#svgb9474540-venn-center-glow)" opacity="0.95"/>
    <circle cx="0" cy="0" r="255" fill="url(#svgb9474540-venn-center-glow)" opacity="0.95"/>
    <circle cx="0" cy="0" r="255" fill="url(#svgb9474540-venn-center-glow)" opacity="0.95"/>
    <circle cx="0" cy="0" r="255" fill="url(#svgb9474540-venn-center-glow)" opacity="0.95"/>
    <circle cx="0" cy="0" r="255" fill="url(#svgb9474540-venn-center-glow)" opacity="0.95"/>
    <circle cx="0" cy="0" r="255" fill="url(#svgb9474540-venn-center-glow)" opacity="0.95"/>
    <circle cx="0" cy="0" r="255" fill="url(#svgb9474540-venn-center-glow)" opacity="0.95"/>
    <circle cx="0" cy="0" r="255" fill="url(#svgb9474540-venn-center-glow)" opacity="0.95"/>
    <circle cx="0" cy="0" r="255" fill="url(#svgb9474540-venn-center-glow)" opacity="0.95"/>
    <circle cx="0" cy="0" r="255" fill="url(#svgb9474540-venn-center-glow)" opacity="0.95"/>
    <circle cx="0" cy="0" r="255" fill="url(#svgb9474540-venn-center-glow)" opacity="0.95"/>
    <circle cx="0" cy="0" r="255" fill="url(#svgb9474540-venn-center-glow)" opacity="0.95"/>
    <circle cx="0" cy="0" r="255" fill="url(#svgb9474540-venn-center-glow)" opacity="0.95"/>
    <circle cx="0" cy="0" r="255" fill="url(#svgb9474540-venn-center-glow)" opacity="0.95"/>
    <circle cx="0" cy="0" r="255" fill="url(#svgb9474540-venn-center-glow)" opacity="0.95"/>
    <circle cx="0" cy="0" r="255" fill="url(#svgb9474540-venn-center-glow)" opacity="0.95"/>
    <circle cx="0" cy="0" r="255" fill="url(#svgb9474540-venn-center-glow)" opacity="0.95"/>
    <circle cx="0" cy="0" r="255" fill="url(#svgb9474540-venn-center-glow)" opacity="0.95"/>
    <circle cx="0" cy="0" r="255" fill="url(#svgb9474540-venn-center-glow)" opacity="0.95"/>
    <circle cx="0" cy="0" r="255" fill="url(#svgb9474540-venn-center-glow)" opacity="0.95"/>
    <!-- Circle backgrounds (pentagon arrangement) -->
    <!-- r=120, center offset 140 from origin -->
    <circle id="ITEM_1_BG" cx="0" cy="-140" r="180" fill="var(--semantic-risk)" fill-opacity="1.0" stroke="var(--border)" stroke-width="2"/>
    <circle id="ITEM_2_BG" cx="133" cy="-43" r="180" fill="var(--semantic-risk)" fill-opacity="1.0" stroke="var(--border)" stroke-width="2"/>
    <circle id="ITEM_3_BG" cx="82" cy="113" r="180" fill="var(--semantic-risk)" fill-opacity="1.0" stroke="var(--border)" stroke-width="2"/>
    <circle id="ITEM_4_BG" cx="-82" cy="113" r="180" fill="var(--semantic-risk)" fill-opacity="1.0" stroke="var(--border)" stroke-width="2"/>
    <circle id="ITEM_5_BG" cx="-133" cy="-43" r="180" fill="var(--semantic-risk)" fill-opacity="1.0" stroke="var(--border)" stroke-width="2"/>
    <!-- ITEM 1 - Top -->
    <circle id="ITEM_1_PAD" cx="0" cy="-270" r="48" fill="var(--icon-pad-bg)" stroke="var(--semantic-risk)" opacity="1" fill-opacity="0.9" stroke-width="2" stroke-opacity="0.72" data-badge-layer="pad"/>
    <circle id="ITEM_1_PAD_INNER" cx="0" cy="-270" r="37.44" fill="var(--semantic-risk)" fill-opacity="0.12" stroke="none" data-badge-layer="tint"/>
    <circle cx="0" cy="-270" r="38" fill="none" stroke="var(--accent-1)" stroke-width="3" stroke-dasharray="6 4" display="none" data-suppressed-decoration="redundant-badge-ring"/>
    <g id="ITEM_1_ICON" transform="translate(-27, -297)" data-icon-size="54" stroke-linecap="round" stroke-linejoin="round" data-badge-treatment="clean">
      <g transform="translate(-16.12285714285714,-15.788571428571426) scale(2.674285714285714)">
        <path d="M18.015 6L16.015 5L14.015 6V9H18.015V6ZM10.645 11.19L8.195 13.64C7.695 14.14 6.895 14.14 6.405 13.64L5.375 12.61C4.875 12.11 4.875 11.31 5.375 10.82L7.825 8.37C8.325 7.87 9.125 7.87 9.615 8.37L10.655 9.41C11.145 9.89 11.145 10.7 10.645 11.19ZM23.825 13.64L21.375 11.19C20.875 10.7 20.875 9.88999 21.375 9.39999L22.415 8.35999C22.905 7.85999 23.705 7.85999 24.205 8.35999L26.655 10.81C27.155 11.3 27.155 12.1 26.655 12.6L25.615 13.64C25.125 14.14 24.325 14.14 23.825 13.64Z" fill="#D3D3D3"/>
        <path d="M13.275 6H18.745C19.445 6 20.015 5.43 20.005 4.73V3.27C20.005 2.57 19.435 2 18.735 2H13.275C12.575 2 12.015 2.57 12.005 3.27V4.73C12.005 5.43 12.575 6 13.275 6ZM27.015 19C27.015 25.0751 22.0901 30 16.015 30C9.93988 30 5.01501 25.0751 5.01501 19C5.01501 12.9249 9.93988 8 16.015 8C22.0901 8 27.015 12.9249 27.015 19Z" fill="#636363"/>
        <path d="M16.015 28C20.9856 28 25.015 23.9706 25.015 19C25.015 14.0294 20.9856 10 16.015 10C11.0445 10 7.01501 14.0294 7.01501 19C7.01501 23.9706 11.0445 28 16.015 28Z" fill="white"/>
        <path d="M19.545 14.0499L20.255 13.3399C20.645 12.9499 21.275 12.9499 21.665 13.3399C22.055 13.7299 22.055 14.3599 21.665 14.7499L20.955 15.4599C20.565 15.8499 19.935 15.8499 19.545 15.4599C19.155 15.0799 19.155 14.4399 19.545 14.0499Z" fill="#9B9B9B"/>
        <path d="M15.015 13V12C15.015 11.45 15.465 11 16.015 11C16.565 11 17.015 11.45 17.015 12V13C17.015 13.55 16.565 14 16.015 14C15.455 14 15.015 13.55 15.015 13ZM15.015 26V25C15.015 24.45 15.465 24 16.015 24C16.565 24 17.015 24.45 17.015 25V26C17.015 26.55 16.565 27 16.015 27C15.455 27 15.015 26.55 15.015 26ZM23.015 18H22.015C21.455 18 21.015 18.45 21.015 19C21.015 19.55 21.465 20 22.015 20H23.015C23.565 20 24.015 19.55 24.015 19C24.015 18.45 23.565 18 23.015 18ZM9.01501 18H10.015C10.565 18 11.015 18.45 11.015 19C11.015 19.55 10.565 20 10.015 20H9.01501C8.46501 20 8.01501 19.55 8.01501 19C8.01501 18.45 8.45501 18 9.01501 18ZM21.675 23.2501L20.965 22.5401C20.565 22.1501 19.935 22.1501 19.555 22.5401C19.165 22.9301 19.165 23.5601 19.555 23.9501L20.265 24.6601C20.655 25.0501 21.285 25.0501 21.675 24.6601C22.065 24.2701 22.065 23.6401 21.675 23.2501ZM11.765 13.35L12.475 14.06C12.865 14.45 12.865 15.08 12.475 15.47C12.085 15.86 11.455 15.86 11.065 15.47L10.355 14.76C9.965 14.37 9.965 13.74 10.355 13.35C10.745 12.95 11.375 12.95 11.765 13.35ZM11.065 22.53L10.355 23.24C9.965 23.64 9.965 24.27 10.355 24.65C10.745 25.04 11.375 25.04 11.765 24.65L12.475 23.94C12.865 23.55 12.865 22.92 12.475 22.53C12.085 22.14 11.455 22.14 11.065 22.53Z" fill="#D3D3D3"/>
        <path d="M15.305 19.7101C14.915 19.3201 14.915 18.6901 15.305 18.3001L20.255 13.3501C20.645 12.9601 21.275 12.9601 21.665 13.3501C22.055 13.7401 22.055 14.3701 21.665 14.7601L16.715 19.7101C16.325 20.1001 15.695 20.1001 15.305 19.7101Z" fill="#F8312F"/>
      </g>
    </g>
    <rect id="ITEM_1_TEXT_BG" x="-208.0" y="-236.0" width="416.0" height="184.0" rx="16" fill="var(--panel)" fill-opacity="0.94" stroke="var(--primary-text)" stroke-opacity="0.12" stroke-width="1.5"/>
    <rect x="-208.0" y="-236.0" width="416.0" height="184.0" rx="16" fill="url(#svgb9474540-venn-label-sheen)" opacity="0.85"/>
    <text id="ITEM_1_HEAD" x="0.0" y="-220.0" text-anchor="middle" font-weight="bold" font-size="34" fill="var(--semantic-risk)" data-bg-id="ITEM_1_TEXT_BG" opacity="0.98" fill-opacity="1.0" style="font-size: 31px; font-family: 'Segoe UI Variable Display', 'Aptos Display', 'Inter', 'Segoe UI', Helvetica, Arial, sans-serif; font-weight: 700; font-kerning: normal; font-feature-settings: &quot;kern&quot; 1, &quot;liga&quot; 1; letter-spacing:-0.4px;" data-final-font-size="31">
      <tspan x="0.0" dy="31.52px">Inference Constraints</tspan>
    </text>
    <rect id="ITEM_1_HEAD_FRAME" x="-170" y="-220" width="340" height="46" fill="none"/>
    <text id="ITEM_1_BODY" x="0.0" y="-168.0" text-anchor="middle" font-size="20" fill="var(--primary-text)" data-bg-id="ITEM_1_TEXT_BG" style="font-size: 23px; font-family: 'Segoe UI Variable Text', 'Aptos', 'Inter', 'Segoe UI', Helvetica, Arial, sans-serif; font-weight: 400; font-kerning: normal; font-feature-settings: &quot;kern&quot; 1, &quot;liga&quot; 1;" data-final-font-size="23">
      <tspan x="0.0" dy="22.53px">Interactive services require</tspan>
      <tspan x="0.0" dy="26.45px">strict response times</tspan>
      <tspan x="0.0" dy="26.45px">and cannot slow</tspan>
    </text>
    <rect id="ITEM_1_BODY_FRAME" x="-190" y="-168" width="380" height="100" fill="none"/>
    <!-- ITEM 2 - Top Right -->
    <circle id="ITEM_2_PAD" cx="256" cy="-83" r="48" fill="var(--icon-pad-bg)" stroke="var(--semantic-risk)" opacity="1" fill-opacity="0.9" stroke-width="2" stroke-opacity="0.72" data-badge-layer="pad"/>
    <circle id="ITEM_2_PAD_INNER" cx="256" cy="-83" r="37.44" fill="var(--semantic-risk)" fill-opacity="0.12" stroke="none" data-badge-layer="tint"/>
    <circle cx="256" cy="-83" r="38" fill="none" stroke="var(--accent-2)" stroke-width="3" stroke-dasharray="6 4" display="none" data-suppressed-decoration="redundant-badge-ring"/>
    <g id="ITEM_2_ICON" transform="translate(229, -110)" data-icon-size="54" stroke-linecap="round" stroke-linejoin="round" data-badge-treatment="clean">
      <g transform="translate(-17.37333333333333,-17.37333333333333) scale(3.6977777777777776)" vector-effect="non-scaling-stroke" stroke-width="2.36" stroke-linecap="round" stroke-linejoin="round" stroke-opacity="1.0">
        <path d="M7 15h10v4a2 2 0 0 1 -2 2h-6a2 2 0 0 1 -2 -2v-4z" vector-effect="non-scaling-stroke" fill="none" stroke="#f1f5f9"/>
        <path d="M12 9a6 6 0 0 0 -6 -6h-3v2a6 6 0 0 0 6 6h3" vector-effect="non-scaling-stroke" fill="none" stroke="#f1f5f9"/>
        <path d="M12 11a6 6 0 0 1 6 -6h3v1a6 6 0 0 1 -6 6h-3" vector-effect="non-scaling-stroke" fill="none" stroke="#f1f5f9"/>
        <path d="M12 15l0 -6" vector-effect="non-scaling-stroke" fill="none" stroke="#f1f5f9"/>
      </g>
    </g>
    <rect id="ITEM_2_TEXT_BG" x="322.0" y="-156.0" width="416.0" height="204.0" rx="16" fill="var(--panel)" fill-opacity="0.94" stroke="var(--primary-text)" stroke-opacity="0.12" stroke-width="1.5"/>
    <rect x="322.0" y="-156.0" width="416.0" height="204.0" rx="16" fill="url(#svgb9474540-venn-label-sheen)" opacity="0.85"/>
    <text id="ITEM_2_HEAD" x="340.0" y="-140.0" text-anchor="start" font-weight="bold" font-size="34" fill="var(--semantic-risk)" data-bg-id="ITEM_2_TEXT_BG" opacity="0.98" fill-opacity="1.0" style="font-size: 31px; font-family: 'Segoe UI Variable Display', 'Aptos Display', 'Inter', 'Segoe UI', Helvetica, Arial, sans-serif; font-weight: 700; font-kerning: normal; font-feature-settings: &quot;kern&quot; 1, &quot;liga&quot; 1; letter-spacing:-0.4px;" data-final-font-size="31">
      <tspan x="340.0" dy="32.52px">Total Consumption</tspan>
    </text>
    <rect id="ITEM_2_HEAD_FRAME" x="340" y="-140" width="260" height="48" fill="none"/>
    <text id="ITEM_2_BODY" x="340.0" y="-88.0" text-anchor="start" font-size="20" fill="var(--primary-text)" data-bg-id="ITEM_2_TEXT_BG" style="font-size: 23px; font-family: 'Segoe UI Variable Text', 'Aptos', 'Inter', 'Segoe UI', Helvetica, Arial, sans-serif; font-weight: 400; font-kerning: normal; font-feature-settings: &quot;kern&quot; 1, &quot;liga&quot; 1;" data-final-font-size="23">
      <tspan x="340.0" dy="31.82px">Does not eliminate need for new</tspan>
      <tspan x="340.0" dy="26.45px">generating capacity overall</tspan>
    </text>
    <rect id="ITEM_2_BODY_FRAME" x="340" y="-88" width="380" height="120" fill="none"/>
    <!-- ITEM 3 - Bottom Right -->
    <circle id="ITEM_3_PAD" cx="158" cy="220" r="48" fill="var(--icon-pad-bg)" stroke="var(--semantic-risk)" opacity="1" fill-opacity="0.9" stroke-width="2" stroke-opacity="0.72" data-badge-layer="pad"/>
    <circle id="ITEM_3_PAD_INNER" cx="158" cy="220" r="37.44" fill="var(--semantic-risk)" fill-opacity="0.12" stroke="none" data-badge-layer="tint"/>
    <circle cx="158" cy="220" r="38" fill="none" stroke="var(--accent-3)" stroke-width="3" stroke-dasharray="6 4" display="none" data-suppressed-decoration="redundant-badge-ring"/>
    <g id="ITEM_3_ICON" transform="translate(131, 193)" data-icon-size="54" stroke-linecap="round" stroke-linejoin="round" data-badge-treatment="clean">
      <g transform="translate(-15.788571428571426,-19.799999999999994) scale(2.674285714285714)">
        <path d="M2 15H30V28C30 29.1046 29.1046 30 28 30H4C2.89543 30 2 29.1046 2 28V15Z" fill="#8C5543"/>
        <path d="M11.1 9H4C2.89543 9 2 9.89543 2 11V15C2 17.2091 3.79086 19 6 19H26C28.2091 19 30 17.2091 30 15V11C30 9.89543 29.1046 9 28 9H20.9C20.4367 6.71776 18.419 5 16 5C13.581 5 11.5633 6.71776 11.1 9ZM13.1707 9C13.5825 7.83481 14.6938 7 16 7C17.3062 7 18.4175 7.83481 18.8293 9H13.1707Z" fill="#6D4534"/>
        <path d="M13 19L16 18L19 19V21C19 21.5523 18.5523 22 18 22H14C13.4477 22 13 21.5523 13 21V19Z" fill="#D3883E"/>
        <path d="M13 18C13 17.4477 13.4477 17 14 17H18C18.5523 17 19 17.4477 19 18V19H13V18Z" fill="#E19747"/>
      </g>
    </g>
    <rect id="ITEM_3_TEXT_BG" x="224.0" y="154.0" width="416.0" height="202.0" rx="16" fill="var(--panel)" fill-opacity="0.94" stroke="var(--primary-text)" stroke-opacity="0.12" stroke-width="1.5"/>
    <rect x="224.0" y="154.0" width="416.0" height="202.0" rx="16" fill="url(#svgb9474540-venn-label-sheen)" opacity="0.85"/>
    <text id="ITEM_3_HEAD" x="242.0" y="170.0" text-anchor="start" font-weight="bold" font-size="34" fill="var(--semantic-risk)" data-bg-id="ITEM_3_TEXT_BG" opacity="0.98" fill-opacity="1.0" style="font-size: 31px; font-family: 'Segoe UI Variable Display', 'Aptos Display', 'Inter', 'Segoe UI', Helvetica, Arial, sans-serif; font-weight: 700; font-kerning: normal; font-feature-settings: &quot;kern&quot; 1, &quot;liga&quot; 1; letter-spacing:-0.4px;" data-final-font-size="31">
      <tspan x="242.0" dy="32.52px">Business Models</tspan>
    </text>
    <rect id="ITEM_3_HEAD_FRAME" x="242" y="170" width="260" height="48" fill="none"/>
    <text id="ITEM_3_BODY" x="242.0" y="220.0" text-anchor="start" font-size="20" fill="var(--primary-text)" data-bg-id="ITEM_3_TEXT_BG" style="font-size: 23px; font-family: 'Segoe UI Variable Text', 'Aptos', 'Inter', 'Segoe UI', Helvetica, Arial, sans-serif; font-weight: 400; font-kerning: normal; font-feature-settings: &quot;kern&quot; 1, &quot;liga&quot; 1;" data-final-font-size="23">
      <tspan x="242.0" dy="31.82px">Different operators may not accept</tspan>
      <tspan x="242.0" dy="26.45px">the same trade-offs</tspan>
    </text>
    <rect id="ITEM_3_BODY_FRAME" x="242" y="220" width="380" height="120" fill="none"/>
    <!-- ITEM 4 - Bottom Left -->
    <circle id="ITEM_4_PAD" cx="-158" cy="220" r="48" fill="var(--icon-pad-bg)" stroke="var(--semantic-risk)" opacity="1" fill-opacity="0.9" stroke-width="2" stroke-opacity="0.72" data-badge-layer="pad"/>
    <circle id="ITEM_4_PAD_INNER" cx="-158" cy="220" r="37.44" fill="var(--semantic-risk)" fill-opacity="0.12" stroke="none" data-badge-layer="tint"/>
    <circle cx="-158" cy="220" r="38" fill="none" stroke="var(--accent-4)" stroke-width="3" stroke-dasharray="6 4" display="none" data-suppressed-decoration="redundant-badge-ring"/>
    <g id="ITEM_4_ICON" transform="translate(-185, 193)" data-icon-size="54" stroke-linecap="round" stroke-linejoin="round" data-badge-treatment="clean">
      <g transform="translate(-13.6128813559322,-13.612881355932199) scale(3.384406779661017)" vector-effect="non-scaling-stroke" stroke-width="2.36" stroke-linecap="round" stroke-linejoin="round" stroke-opacity="1.0">
        <path d="M17 19a1 1 0 0 1-1-1v-2a2 2 0 0 1 2-2h2a2 2 0 0 1 2 2v2a1 1 0 0 1-1 1z" vector-effect="non-scaling-stroke" fill="none" stroke="#f1f5f9"/>
        <path d="M17 21v-2" vector-effect="non-scaling-stroke" fill="none" stroke="#f1f5f9"/>
        <path d="M19 14V6.5a1 1 0 0 0-7 0v11a1 1 0 0 1-7 0V10" vector-effect="non-scaling-stroke" fill="none" stroke="#f1f5f9"/>
        <path d="M21 21v-2" vector-effect="non-scaling-stroke" fill="none" stroke="#f1f5f9"/>
        <path d="M3 5V3" vector-effect="non-scaling-stroke" fill="none" stroke="#f1f5f9"/>
        <path d="M4 10a2 2 0 0 1-2-2V6a1 1 0 0 1 1-1h4a1 1 0 0 1 1 1v2a2 2 0 0 1-2 2z" vector-effect="non-scaling-stroke" fill="none" stroke="#f1f5f9"/>
        <path d="M7 5V3" vector-effect="non-scaling-stroke" fill="none" stroke="#f1f5f9"/>
      </g>
    </g>
    <rect id="ITEM_4_TEXT_BG" x="-640.0" y="154.0" width="416.0" height="202.0" rx="16" fill="var(--panel)" fill-opacity="0.94" stroke="var(--primary-text)" stroke-opacity="0.12" stroke-width="1.5"/>
    <rect x="-640.0" y="154.0" width="416.0" height="202.0" rx="16" fill="url(#svgb9474540-venn-label-sheen)" opacity="0.85"/>
    <text id="ITEM_4_HEAD" x="-242.0" y="170.0" text-anchor="end" font-weight="bold" font-size="34" fill="var(--semantic-risk)" data-bg-id="ITEM_4_TEXT_BG" opacity="0.98" fill-opacity="1.0" style="font-size: 31px; font-family: 'Segoe UI Variable Display', 'Aptos Display', 'Inter', 'Segoe UI', Helvetica, Arial, sans-serif; font-weight: 700; font-kerning: normal; font-feature-settings: &quot;kern&quot; 1, &quot;liga&quot; 1; letter-spacing:-0.4px;" data-final-font-size="31">
      <tspan x="-242.0" dy="32.52px">Workload Variety</tspan>
    </text>
    <rect id="ITEM_4_HEAD_FRAME" x="-502" y="170" width="260" height="48" fill="none"/>
    <text id="ITEM_4_BODY" x="-242.0" y="220.0" text-anchor="end" font-size="20" fill="var(--primary-text)" data-bg-id="ITEM_4_TEXT_BG" style="font-size: 23px; font-family: 'Segoe UI Variable Text', 'Aptos', 'Inter', 'Segoe UI', Helvetica, Arial, sans-serif; font-weight: 400; font-kerning: normal; font-feature-settings: &quot;kern&quot; 1, &quot;liga&quot; 1;" data-final-font-size="23">
      <tspan x="-242.0" dy="31.82px">Not every AI task is suitable</tspan>
      <tspan x="-242.0" dy="26.45px">for power capping</tspan>
    </text>
    <rect id="ITEM_4_BODY_FRAME" x="-622" y="220" width="380" height="120" fill="none"/>
    <!-- ITEM 5 - Top Left -->
    <circle id="ITEM_5_PAD" cx="-256" cy="-83" r="48" fill="var(--icon-pad-bg)" stroke="var(--semantic-risk)" opacity="1" fill-opacity="0.9" stroke-width="2" stroke-opacity="0.72" data-badge-layer="pad"/>
    <circle id="ITEM_5_PAD_INNER" cx="-256" cy="-83" r="37.44" fill="var(--semantic-risk)" fill-opacity="0.12" stroke="none" data-badge-layer="tint"/>
    <circle cx="-256" cy="-83" r="38" fill="none" stroke="var(--accent-5)" stroke-width="3" stroke-dasharray="6 4" display="none" data-suppressed-decoration="redundant-badge-ring"/>
    <g id="ITEM_5_ICON" transform="translate(-283, -110)" data-icon-size="54" stroke-linecap="round" stroke-linejoin="round" data-badge-treatment="clean">
      <g transform="translate(-15.788571428571426,-15.788571428571426) scale(2.674285714285714)">
        <path d="M2 9.00001L15.2666 6.15716C15.7501 6.05357 16.2499 6.05357 16.7334 6.15716L30 9.00001V24.8C30 27.6719 27.6719 30 24.8 30H7.2C4.32812 30 2 27.6719 2 24.8V9.00001Z" fill="#B4ACBC"/>
        <path d="M3 8.00005L15.213 5.18167C15.7309 5.06216 16.2691 5.06216 16.787 5.18167L29 8.00005V24.5001C29 26.9853 26.9853 29.0001 24.5 29.0001H7.5C5.01472 29.0001 3 26.9853 3 24.5001V8.00005Z" fill="#F3EEF8"/>
        <path d="M7.9998 12C7.88935 12 7.7998 12.0895 7.7998 12.2V14.8C7.7998 14.9105 7.88935 15 7.9998 15H10.7998C10.9103 15 10.9998 14.9105 10.9998 14.8V12.2C10.9998 12.0895 10.9103 12 10.7998 12H7.9998Z" fill="#998EA4"/>
        <path d="M7.9998 17.5C7.88935 17.5 7.7998 17.5895 7.7998 17.7V20.3C7.7998 20.4105 7.88935 20.5 7.9998 20.5H10.7998C10.9103 20.5 10.9998 20.4105 10.9998 20.3V17.7C10.9998 17.5895 10.9103 17.5 10.7998 17.5H7.9998Z" fill="#998EA4"/>
        <path d="M7.7998 23.1C7.7998 22.9896 7.88935 22.9 7.9998 22.9H10.7998C10.9103 22.9 10.9998 22.9896 10.9998 23.1V25.7C10.9998 25.8105 10.9103 25.9 10.7998 25.9H7.9998C7.88935 25.9 7.7998 25.8105 7.7998 25.7V23.1Z" fill="#998EA4"/>
        <path d="M14.5998 12C14.4893 12 14.3998 12.0895 14.3998 12.2V14.8C14.3998 14.9105 14.4893 15 14.5998 15H17.3998C17.5102 15 17.5998 14.9105 17.5998 14.8V12.2C17.5998 12.0895 17.5102 12 17.3998 12H14.5998Z" fill="#998EA4"/>
        <path d="M14.3998 17.7C14.3998 17.5895 14.4893 17.5 14.5998 17.5H17.3998C17.5102 17.5 17.5998 17.5895 17.5998 17.7V20.3C17.5998 20.4105 17.5102 20.5 17.3998 20.5H14.5998C14.4893 20.5 14.3998 20.4105 14.3998 20.3V17.7Z" fill="#998EA4"/>
        <path d="M14.5998 22.9C14.4893 22.9 14.3998 22.9896 14.3998 23.1V25.7C14.3998 25.8105 14.4893 25.9 14.5998 25.9H17.3998C17.5102 25.9 17.5998 25.8105 17.5998 25.7V23.1C17.5998 22.9896 17.5102 22.9 17.3998 22.9H14.5998Z" fill="#998EA4"/>
        <path d="M20.9998 12.2C20.9998 12.0895 21.0894 12 21.1998 12H23.9998C24.1103 12 24.1998 12.0895 24.1998 12.2V14.8C24.1998 14.9105 24.1103 15 23.9998 15H21.1998C21.0894 15 20.9998 14.9105 20.9998 14.8V12.2Z" fill="#998EA4"/>
        <path d="M21.1998 22.9C21.0894 22.9 20.9998 22.9896 20.9998 23.1V25.7C20.9998 25.8105 21.0894 25.9 21.1998 25.9H23.9998C24.1103 25.9 24.1998 25.8105 24.1998 25.7V23.1C24.1998 22.9896 24.1103 22.9 23.9998 22.9H21.1998Z" fill="#998EA4"/>
        <path d="M7.2 2C4.32812 2 2 4.32812 2 7.2V9H30V7.2C30 4.32812 27.6719 2 24.8 2H7.2Z" fill="#0084CE"/>
        <path d="M21.2 17.5C21.0895 17.5 21 17.5895 21 17.7V20.3C21 20.4105 21.0895 20.5 21.2 20.5H24C24.1105 20.5 24.2 20.4105 24.2 20.3V17.7C24.2 17.5895 24.1105 17.5 24 17.5H21.2Z" fill="#0084CE"/>
      </g>
    </g>
    <rect id="ITEM_5_TEXT_BG" x="-738.0" y="-156.0" width="416.0" height="204.0" rx="16" fill="var(--panel)" fill-opacity="0.94" stroke="var(--primary-text)" stroke-opacity="0.12" stroke-width="1.5"/>
    <rect x="-738.0" y="-156.0" width="416.0" height="204.0" rx="16" fill="url(#svgb9474540-venn-label-sheen)" opacity="0.85"/>
    <text id="ITEM_5_HEAD" x="-340.0" y="-140.0" text-anchor="end" font-weight="bold" font-size="34" fill="var(--semantic-risk)" data-bg-id="ITEM_5_TEXT_BG" opacity="0.98" fill-opacity="1.0" style="font-size: 31px; font-family: 'Segoe UI Variable Display', 'Aptos Display', 'Inter', 'Segoe UI', Helvetica, Arial, sans-serif; font-weight: 700; font-kerning: normal; font-feature-settings: &quot;kern&quot; 1, &quot;liga&quot; 1; letter-spacing:-0.4px;" data-final-font-size="31">
      <tspan x="-340.0" dy="32.52px">Time Duration</tspan>
    </text>
    <rect id="ITEM_5_HEAD_FRAME" x="-600" y="-140" width="260" height="48" fill="none"/>
    <text id="ITEM_5_BODY" x="-340.0" y="-88.0" text-anchor="end" font-size="20" fill="var(--primary-text)" data-bg-id="ITEM_5_TEXT_BG" style="font-size: 23px; font-family: 'Segoe UI Variable Text', 'Aptos', 'Inter', 'Segoe UI', Helvetica, Arial, sans-serif; font-weight: 400; font-kerning: normal; font-feature-settings: &quot;kern&quot; 1, &quot;liga&quot; 1;" data-final-font-size="23">
      <tspan x="-340.0" dy="31.82px">Flexibility is most effective</tspan>
      <tspan x="-340.0" dy="26.45px">during short peak demand periods</tspan>
    </text>
    <rect id="ITEM_5_BODY_FRAME" x="-720" y="-88" width="380" height="120" fill="none"/>
  </g>
  <text id="SOURCE_NOTE" x="134.0" y="1058.0" fill="var(--muted-text)" opacity="1" style="font-family: var(--font-family); font-size: 20px;">Source: A I data centres as grid-interactive assets | Nature Energy</text>
  <text id="EDITORIAL_NOTE" x="1786.0" y="1058.0" fill="var(--semantic-uncertain)" opacity="1" style="font-family: var(--font-family); font-size: 20px;" text-anchor="end">Interpretations remain disputed; wording reflects source uncertainty.</text>
</svg>
