<?xml version='1.0' encoding='utf-8'?>
<svg xmlns="http://www.w3.org/2000/svg" width="1920" height="1080" viewBox="0 0 1920 1080" data-theme="light" data-semantic-intent="reference_facts" data-relation-type="taxonomy" data-site-visual-identity="signal-cobalt">
  <style>
        @font-face {
            font-family: 'Inter';
            src: url('assets/fonts/Inter-Regular.ttf') format('truetype');
            font-weight: 400;
            font-style: normal;
            font-display: swap;
        }
        @font-face {
            font-family: 'Inter';
            src: url('assets/fonts/Inter-Bold.ttf') format('truetype');
            font-weight: 600;
            font-style: normal;
            font-display: swap;
        }
        @font-face {
            font-family: 'Inter';
            src: url('assets/fonts/Inter-Bold.ttf') format('truetype');
            font-weight: 800;
            font-style: normal;
            font-display: swap;
        }
        
:root {
    --background: #f8fafc;
    --panel: #ffffff;
    --primary-text: #0f172a;
    --muted-text: #64748b;
    --inverse-text: #ffffff;
    --border: #e2e8f0;
    --shadow-color: #000000;
    --icon-pad-bg: #1e293b;
    --art-glow: #0891b2;
    --art-glow-opacity: 0.10;
    --art-sheen: #ffffff;
    --art-sheen-opacity: 0.34;
    --art-shadow: #0f172a;
    --art-shadow-opacity: 0.14;
    --art-muted-line: #94a3b8;
    --art-panel-tint: #f1f5f9;
    --semantic-risk: #b91c1c;
    --semantic-warning: #c2410c;
    --semantic-uncertain: #a16207;
    --semantic-evidence: #1d4ed8;
    --semantic-claim: #6d28d9;
    --semantic-positive: #15803d;
    --semantic-outcome: #0e7490;
    --font-family: 'Inter', 'Segoe UI', 'Kalam', Roboto, Helvetica, Arial, sans-serif;
    --radius-xl: 16px;
    --font-family-headline: 'Segoe UI Variable Display', 'Aptos Display', 'Inter', 'Segoe UI', Helvetica, Arial, sans-serif;
    --font-family-body: 'Segoe UI Variable Text', 'Aptos', 'Inter', 'Segoe UI', Helvetica, Arial, sans-serif;
    --font-heading: var(--font-family-headline);
    --font-body: var(--font-family-body);
    --font-size-h1: 64px;
    --font-size-h2: 42px;
    --font-size-h3: 29px;
    --font-size-body: 21px;
    --font-size-caption: 17px;
    --secondary-text: var(--muted-text);
    --panel-border: var(--border);
    --font-weight-normal: 400;
    --font-weight-medium: 500;
    --font-weight-semibold: 600;
    --font-weight-bold: 700;
    --spacing-gutter-pct: 0.07;
    --spacing-top-pct: 0.15;
    --spacing-bottom-pct: 0.07;
    --spacing-title-y-pct: 0.055;
    --accent-1: #1d4ed8;
    --accent-2: #2563eb;
    --accent-3: #4f46e5;
    --accent-4: #6d28d9;
    --accent-5: #0369a1;
    --accent-6: #c2410c;
}
:root[data-theme="dark"] {
    --background: #0f172a;
    --panel: #1e293b;
    --primary-text: #f1f5f9;
    --muted-text: #94a3b8;
    --inverse-text: #0f172a;
    --border: #334155;
    --shadow-color: #000000;
    --icon-pad-bg: #1e293b;
    --art-glow: #7dd3fc;
    --art-glow-opacity: 0.18;
    --art-sheen: #ffffff;
    --art-sheen-opacity: 0.18;
    --art-shadow: #000000;
    --art-shadow-opacity: 0.28;
    --art-muted-line: #64748b;
    --art-panel-tint: #1e293b;
    --semantic-risk: #f87171;
    --semantic-warning: #fb923c;
    --semantic-uncertain: #fbbf24;
    --semantic-evidence: #60a5fa;
    --semantic-claim: #c084fc;
    --semantic-positive: #4ade80;
    --semantic-outcome: #22d3ee;
    --accent-1: #93c5fd;
    --accent-2: #60a5fa;
    --accent-3: #818cf8;
    --accent-4: #a78bfa;
    --accent-5: #38bdf8;
    --accent-6: #fb923c;
}
:root[data-theme="light"] {
    --background: #f8fafc;
    --panel: #ffffff;
    --primary-text: #0f172a;
    --muted-text: #64748b;
    --inverse-text: #ffffff;
    --border: #e2e8f0;
    --shadow-color: #000000;
    --icon-pad-bg: #1e293b;
    --art-glow: #0891b2;
    --art-glow-opacity: 0.10;
    --art-sheen: #ffffff;
    --art-sheen-opacity: 0.34;
    --art-shadow: #0f172a;
    --art-shadow-opacity: 0.14;
    --art-muted-line: #94a3b8;
    --art-panel-tint: #f1f5f9;
    --semantic-risk: #b91c1c;
    --semantic-warning: #c2410c;
    --semantic-uncertain: #a16207;
    --semantic-evidence: #1d4ed8;
    --semantic-claim: #6d28d9;
    --semantic-positive: #15803d;
    --semantic-outcome: #0e7490;
    --accent-1: #1d4ed8;
    --accent-2: #2563eb;
    --accent-3: #4f46e5;
    --accent-4: #6d28d9;
    --accent-5: #0369a1;
    --accent-6: #c2410c;
}</style>
  <rect x="0" y="0" width="1.92E+3" height="1.08E+3" fill="#252a34" stroke="none" id="programmatic_background"/>
  <line id="HEADER_DECOR" x1="960.0" x2="1080.0" y1="135.0" y2="135.0" stroke="var(--accent-1)" stroke-width="6" stroke-linecap="round"/>
  <defs>
    <pattern id="svg446f739e-napkin-hatch" patternUnits="userSpaceOnUse" width="12" height="12">
      <path d="M -3 12 L 12 -3 M 0 15 L 15 0" fill="none" stroke="var(--primary-text)" stroke-width="1" stroke-opacity="0.05"/>
    </pattern>
    <filter id="svg446f739e-shadow" x="-30%" y="-30%" width="160%" height="160%">
      <feDropShadow dx="0" dy="2" stdDeviation="3" flood-color="#000000" flood-opacity="0.08"/>
      <feDropShadow dx="0" dy="6" stdDeviation="10" flood-color="#000000" flood-opacity="0.12"/>
    </filter>
    <filter id="svg446f739e-beam-glow" x="-40%" y="-40%" width="180%" height="180%">
      <feDropShadow dx="0" dy="0" stdDeviation="8" flood-color="#000000" flood-opacity="0.12"/>
    </filter>
    <radialGradient id="svg446f739e-universal-edge-vignette" cx="50%" cy="50%" r="72%">
      <stop offset="0%" stop-color="var(--background)" stop-opacity="0"/>
      <stop offset="72%" stop-color="var(--background)" stop-opacity="0.12"/>
      <stop offset="100%" stop-color="var(--primary-text)" stop-opacity="0.08"/>
    </radialGradient>
    <linearGradient id="svg446f739e-universal-surface-sheen" x1="0%" y1="0%" x2="100%" y2="100%">
      <stop offset="0%" stop-color="var(--art-sheen)" stop-opacity="var(--art-sheen-opacity)"/>
      <stop offset="46%" stop-color="var(--art-sheen)" stop-opacity="0.035"/>
      <stop offset="100%" stop-color="var(--art-panel-tint)" stop-opacity="0.14"/>
    </linearGradient>
    <radialGradient id="svg446f739e-universal-icon-aura" cx="50%" cy="42%" r="64%">
      <stop offset="0%" stop-color="var(--art-glow)" stop-opacity="var(--art-glow-opacity)"/>
      <stop offset="100%" stop-color="var(--background)" stop-opacity="0"/>
    </radialGradient>
    <linearGradient id="svg446f739e-prism-glass-sheen" x1="0%" y1="0%" x2="100%" y2="100%">
      <stop offset="0%" stop-color="var(--inverse-text)" stop-opacity="0.20"/>
      <stop offset="100%" stop-color="var(--inverse-text)" stop-opacity="0"/>
    </linearGradient>
    <filter id="svg446f739e-text-glow" x="-20%" y="-20%" width="140%" height="140%">
      <feDropShadow dx="0" dy="0" stdDeviation="2" flood-color="#000000" flood-opacity="0.4"/>
    </filter>
    <marker id="svg446f739e-arrowhead" markerWidth="10" markerHeight="7" refX="9" refY="3.5" orient="auto" markerUnits="strokeWidth">
      <polygon points="0 0, 10 3.5, 0 7" fill="var(--muted-text)" opacity="0.6"/>
    </marker>
  </defs>
  <rect width="100%" height="100%" fill="var(--background)" id="CANVAS_BG"/>
  <rect width="100%" height="100%" fill="url(#svg446f739e-napkin-hatch)"/>
  <rect id="UNIVERSAL_EDGE_VIGNETTE" width="100%" height="100%" fill="url(#svg446f739e-universal-edge-vignette)" opacity="0.62"/>
  <text id="TITLE" x="960.0" y="59" text-anchor="middle" font-weight="800" font-size="56" fill="#0f172a" style="font-size: 69px; font-family: 'Segoe UI Variable Display', 'Aptos Display', 'Inter', 'Segoe UI', Helvetica, Arial, sans-serif; font-weight: 800; font-kerning: normal; font-feature-settings: &quot;kern&quot; 1, &quot;liga&quot; 1; letter-spacing:-1.2px;" data-final-font-size="69">
    <tspan x="960.0" dy="70.47px">Regulatory Principles for Medical Devices</tspan>
  </text>
  <rect id="TITLE_FRAME" x="134" y="59" width="1652" height="103" fill="none"/>
  <path d="M 0 540 L 598 540" stroke="var(--primary-text)" stroke-width="20" stroke-linecap="round" opacity="0.08"/>
  <path d="M 0 540 L 598 540" stroke="var(--primary-text)" stroke-width="10" stroke-linecap="round" opacity="0.45"/>
  <text x="200" y="500" font-weight="bold" font-size="32" fill="var(--muted-text)">INPUT</text>
  <ellipse id="PRISM_ART_SHADOW" cx="690" cy="718" rx="180" ry="38" fill="var(--primary-text)" opacity="0.055"/>
  <path d="M 600 690 L 600 390 L 840 540 Z" fill="var(--panel)" fill-opacity="0.72" stroke="var(--primary-text)" stroke-width="9" stroke-opacity="0.75"/>
  <path id="PRISM_ART_GLASS_SHEEN" d="M 622 426 L 622 654 L 792 540 Z" fill="url(#svg446f739e-prism-glass-sheen)" opacity="0.88"/>
  <path d="M 600 540 L 756 540" fill="none" stroke="var(--primary-text)" stroke-width="3" stroke-opacity="0.28"/>
  <path d="M 600 390 L 688 540 L 600 690" fill="none" stroke="var(--primary-text)" stroke-width="3" stroke-opacity="0.18"/>
  <g>
    <line x1="840" y1="540" x2="1100" y2="293.75" stroke="var(--accent-1)" stroke-width="18" stroke-linecap="round" opacity="0.18" filter="url(#svg446f739e-beam-glow)"/>
    <line x1="840" y1="540" x2="1100" y2="293.75" stroke="var(--accent-1)" stroke-width="4" stroke-linecap="round" opacity="0.72"/>
    <g transform="translate(1100, 293.75)">
      <path id="ITEM_1_BG" d="M 0 -60 L 610 -60 L 740 15 L 610 90 L 0 90 L 56 15 Z" fill="var(--panel)" fill-opacity="0.95" stroke="var(--accent-1)" stroke-width="3" filter="url(#svg446f739e-shadow)"/>
      <rect id="ITEM_1_TEXT_BG" x="138" y="-42" width="520" height="114" rx="18" fill="var(--panel)" fill-opacity="0.9" stroke="var(--primary-text)" stroke-opacity="0.1" stroke-width="1.5"/>
      <rect x="150" y="-32" width="496" height="94" rx="14" fill="url(#svg446f739e-universal-surface-sheen)" opacity="0.76"/>
      <circle id="ITEM_1_PAD" cx="82" cy="15" r="42" fill="var(--icon-pad-bg)" stroke="var(--accent-1)" opacity="1" fill-opacity="0.9" stroke-width="2" stroke-opacity="0.72" data-badge-layer="pad"/>
      <circle id="ITEM_1_PAD_INNER" cx="82" cy="15" r="32.76" fill="var(--accent-1)" fill-opacity="0.12" stroke="none" data-badge-layer="tint"/>
      <circle cx="82" cy="15" r="34" fill="none" stroke="var(--accent-1)" stroke-width="3" stroke-dasharray="6 4" display="none" data-suppressed-decoration="redundant-badge-ring"/>
      <g id="ITEM_1_ICON" transform="translate(48, -19)" data-icon-size="68" stroke-linecap="round" stroke-linejoin="round" data-badge-treatment="clean">
        <g transform="translate(3.552713678800501e-15,0.0) scale(4.857142857142857)" vector-effect="non-scaling-stroke" stroke-width="2.53" stroke-linecap="round" stroke-linejoin="round" stroke-opacity="1.0">
          <path id="vector" fill="none" d="M3 13.5h8.5v-3H3a1.5 1.5 0 1 0 0 3Z" vector-effect="non-scaling-stroke" stroke="#f1f5f9"/>
          <path id="vector_2" fill="none" d="M1.94 10.94A1.5 1.5 0 0 0 1.5 12V1.96A1.5 1.5 0 0 1 3 0.5h8.5a1 1 0 0 1 1 1v8a1 1 0 0 1 -1 1H3a1.5 1.5 0 0 0 -1.06 0.44Z" vector-effect="non-scaling-stroke" stroke="#f1f5f9"/>
          <path id="vector_3" stroke="#f1f5f9" d="M12.5 13.5H3a1.5 1.5 0 1 1 0 -3h8.5a1 1 0 0 0 1 -1v-8a1 1 0 0 0 -1 -1H3a1.5 1.5 0 0 0 -1.5 1.46v10" vector-effect="non-scaling-stroke" fill="none"/>
          <path id="vector_4" stroke="#f1f5f9" d="M5.5 4.054a1.5 1.5 0 1 1 1.5 1.5v0.5" vector-effect="non-scaling-stroke" fill="none"/>
          <path id="vector_5" stroke="#f1f5f9" d="M7 8.116a0.25 0.25 0 0 1 0 -0.5" vector-effect="non-scaling-stroke" fill="none" display="none"/>
          <path id="vector_6" stroke="#f1f5f9" d="M7 8.116a0.25 0.25 0 0 0 0 -0.5" vector-effect="non-scaling-stroke" fill="none" display="none"/>
          <path id="vector_7" stroke="#f1f5f9" d="M11.5 10.5v3" vector-effect="non-scaling-stroke" fill="none" display="none"/>
        </g>
      </g>
      <text id="ITEM_1_HEAD" x="162.0" y="-30.0" font-weight="700" font-size="28" fill="var(--accent-1)" data-bg-id="ITEM_1_TEXT_BG" fill-opacity="1.0" style="font-size: 31px; font-family: 'Segoe UI Variable Display', 'Aptos Display', 'Inter', 'Segoe UI', Helvetica, Arial, sans-serif; font-weight: 700; font-kerning: normal; font-feature-settings: &quot;kern&quot; 1, &quot;liga&quot; 1; letter-spacing:-0.4px;" data-final-font-size="31">
        <tspan x="162.0" dy="27.52px">Intended Use</tspan>
      </text>
      <rect id="ITEM_1_HEAD_FRAME" x="162" y="-30" width="472" height="38" fill="none"/>
      <text id="ITEM_1_BODY" x="162.0" y="10.0" font-size="19" fill="var(--primary-text)" data-bg-id="ITEM_1_TEXT_BG" style="font-size: 23px; font-family: 'Segoe UI Variable Text', 'Aptos', 'Inter', 'Segoe UI', Helvetica, Arial, sans-serif; font-weight: 400; font-kerning: normal; font-feature-settings: &quot;kern&quot; 1, &quot;liga&quot; 1;" data-final-font-size="23">
        <tspan x="162.0" dy="20.22px">Clear documentation on specific</tspan>
        <tspan x="162.0" dy="26.45px">clinical applications</tspan>
      </text>
      <rect id="ITEM_1_BODY_FRAME" x="162" y="10" width="468" height="62" fill="none"/>
    </g>
    <line x1="840" y1="540" x2="1100" y2="481.25" stroke="var(--accent-2)" stroke-width="18" stroke-linecap="round" opacity="0.18" filter="url(#svg446f739e-beam-glow)"/>
    <line x1="840" y1="540" x2="1100" y2="481.25" stroke="var(--accent-2)" stroke-width="4" stroke-linecap="round" opacity="0.72"/>
    <g transform="translate(1100, 481.25)">
      <path id="ITEM_2_BG" d="M 0 -60 L 610 -60 L 740 15 L 610 90 L 0 90 L 56 15 Z" fill="var(--panel)" fill-opacity="0.95" stroke="var(--accent-2)" stroke-width="3" filter="url(#svg446f739e-shadow)"/>
      <rect id="ITEM_2_TEXT_BG" x="138" y="-42" width="520" height="114" rx="18" fill="var(--panel)" fill-opacity="0.9" stroke="var(--primary-text)" stroke-opacity="0.1" stroke-width="1.5"/>
      <rect x="150" y="-32" width="496" height="94" rx="14" fill="url(#svg446f739e-universal-surface-sheen)" opacity="0.76"/>
      <circle id="ITEM_2_PAD" cx="82" cy="15" r="42" fill="var(--icon-pad-bg)" stroke="var(--accent-2)" opacity="1" fill-opacity="0.9" stroke-width="2" stroke-opacity="0.72" data-badge-layer="pad"/>
      <circle id="ITEM_2_PAD_INNER" cx="82" cy="15" r="32.76" fill="var(--accent-2)" fill-opacity="0.12" stroke="none" data-badge-layer="tint"/>
      <circle cx="82" cy="15" r="34" fill="none" stroke="var(--accent-2)" stroke-width="3" stroke-dasharray="6 4" display="none" data-suppressed-decoration="redundant-badge-ring"/>
      <g id="ITEM_2_ICON" transform="translate(48, -19)" data-icon-size="68" stroke-linecap="round" stroke-linejoin="round" data-badge-treatment="clean">
        <g transform="translate(-2.88135593220339,-2.88135593220339) scale(3.073446327683616)" vector-effect="non-scaling-stroke" stroke-width="2.53" stroke-linecap="round" stroke-linejoin="round" stroke-opacity="1.0">
          <path d="M21.3 15.3a2.4 2.4 0 0 1 0 3.4l-2.6 2.6a2.4 2.4 0 0 1-3.4 0L2.7 8.7a2.41 2.41 0 0 1 0-3.4l2.6-2.6a2.41 2.41 0 0 1 3.4 0Z" vector-effect="non-scaling-stroke" fill="none" stroke="#f1f5f9"/>
          <path d="m14.5 12.5 2-2" vector-effect="non-scaling-stroke" fill="none" stroke="#f1f5f9"/>
          <path d="m11.5 9.5 2-2" vector-effect="non-scaling-stroke" fill="none" stroke="#f1f5f9"/>
          <path d="m8.5 6.5 2-2" vector-effect="non-scaling-stroke" fill="none" stroke="#f1f5f9"/>
          <path d="m17.5 15.5 2-2" vector-effect="non-scaling-stroke" fill="none" stroke="#f1f5f9"/>
        </g>
      </g>
      <text id="ITEM_2_HEAD" x="162.0" y="-30.0" font-weight="700" font-size="28" fill="var(--accent-2)" data-bg-id="ITEM_2_TEXT_BG" fill-opacity="1.0" style="font-size: 31px; font-family: 'Segoe UI Variable Display', 'Aptos Display', 'Inter', 'Segoe UI', Helvetica, Arial, sans-serif; font-weight: 700; font-kerning: normal; font-feature-settings: &quot;kern&quot; 1, &quot;liga&quot; 1; letter-spacing:-0.4px;" data-final-font-size="31">
        <tspan x="162.0" dy="27.52px">Performance Metrics</tspan>
      </text>
      <rect id="ITEM_2_HEAD_FRAME" x="162" y="-30" width="472" height="38" fill="none"/>
      <text id="ITEM_2_BODY" x="162.0" y="10.0" font-size="19" fill="var(--primary-text)" data-bg-id="ITEM_2_TEXT_BG" style="font-size: 23px; font-family: 'Segoe UI Variable Text', 'Aptos', 'Inter', 'Segoe UI', Helvetica, Arial, sans-serif; font-weight: 400; font-kerning: normal; font-feature-settings: &quot;kern&quot; 1, &quot;liga&quot; 1;" data-final-font-size="23">
        <tspan x="162.0" dy="20.22px">Transparent reporting of algorithm</tspan>
        <tspan x="162.0" dy="26.45px">accuracy and limits</tspan>
      </text>
      <rect id="ITEM_2_BODY_FRAME" x="162" y="10" width="468" height="62" fill="none"/>
    </g>
    <line x1="840" y1="540" x2="1100" y2="668.75" stroke="var(--accent-3)" stroke-width="18" stroke-linecap="round" opacity="0.18" filter="url(#svg446f739e-beam-glow)"/>
    <line x1="840" y1="540" x2="1100" y2="668.75" stroke="var(--accent-3)" stroke-width="4" stroke-linecap="round" opacity="0.72"/>
    <g transform="translate(1100, 668.75)">
      <path id="ITEM_3_BG" d="M 0 -60 L 610 -60 L 740 15 L 610 90 L 0 90 L 56 15 Z" fill="var(--panel)" fill-opacity="0.95" stroke="var(--accent-3)" stroke-width="3" filter="url(#svg446f739e-shadow)"/>
      <rect id="ITEM_3_TEXT_BG" x="138" y="-42" width="520" height="114" rx="18" fill="var(--panel)" fill-opacity="0.9" stroke="var(--primary-text)" stroke-opacity="0.1" stroke-width="1.5"/>
      <rect x="150" y="-32" width="496" height="94" rx="14" fill="url(#svg446f739e-universal-surface-sheen)" opacity="0.76"/>
      <circle id="ITEM_3_PAD" cx="82" cy="15" r="42" fill="var(--icon-pad-bg)" stroke="var(--accent-3)" opacity="1" fill-opacity="0.9" stroke-width="2" stroke-opacity="0.72" data-badge-layer="pad"/>
      <circle id="ITEM_3_PAD_INNER" cx="82" cy="15" r="32.76" fill="var(--accent-3)" fill-opacity="0.12" stroke="none" data-badge-layer="tint"/>
      <circle cx="82" cy="15" r="34" fill="none" stroke="var(--accent-3)" stroke-width="3" stroke-dasharray="6 4" display="none" data-suppressed-decoration="redundant-badge-ring"/>
      <g id="ITEM_3_ICON" transform="translate(48, -19)" data-icon-size="68" stroke-linecap="round" stroke-linejoin="round" data-badge-treatment="clean">
        <g transform="translate(-4.857142857142857,-6.071428571428569) scale(2.4285714285714284)">
          <path d="M6.01869 5C6.56075 5 7 4.55238 7 4C7 3.44762 6.56075 3 6.01869 3H5L4 4L5 5H6.01869Z" fill="#635994"/>
          <path d="M18 20.1005C18 17.0001 20.0717 14.9828 23 15C26 15.0177 28 17.1814 28 20V22.0049H26V20C26 17.8148 25 17.0001 23 17.0001C20.9035 17 20 17.914 20 20V23.622C20 27.1434 17.4173 30 14 30C10.5827 30 8 27.133 8 23.622V18.9446C4.22927 18.5167 2.00062 15.6445 2.00827 11.5C2.00827 11.4915 2.00755 11.4575 2.00653 11.4095C2.00419 11.2996 2.00029 11.1166 2 11L3 10C3 10 4.00412 11.0855 4.00378 11C4.01943 15 6.00758 17 9.00377 17C12 17 14.0006 15 14.0006 11C13.9997 11.1364 15 10 15 10L16 11C15.9996 11.168 15.9993 11.4719 15.9993 11.5C15.9993 15.6473 13.7741 18.5205 10 18.9454V23.622C10 25.9073 11.7823 28.0001 14 28.0001C16.2177 28.0001 18 25.9073 18 23.622V20.1005Z" fill="#635994"/>
          <path d="M11 4C11 4.55238 11.4393 5 11.9813 5H13L14 4L13 3H11.9813C11.4393 3 11 3.44762 11 4Z" fill="#635994"/>
          <path d="M4.59794 3H5V5H4.5C4.01602 5 4 5.25 4 5.5V11L2 11V5.6114C2 4.17098 3.16495 3 4.59794 3Z" fill="#00A6ED"/>
          <path d="M27 25C28.6569 25 30 23.6569 30 22C30 20.3431 28.6569 19 27 19C25.3431 19 24 20.3431 24 22C24 23.6569 25.3431 25 27 25Z" fill="#00A6ED"/>
          <path d="M13 3H13.4021C14.8351 3 16 4.17098 16 5.6114V11L14 11V5.5C14 5.25 13.984 5 13.5 5H13V3Z" fill="#00A6ED"/>
          <path d="M27 23.5C27.8284 23.5 28.5 22.8284 28.5 22C28.5 21.1716 27.8284 20.5 27 20.5C26.1716 20.5 25.5 21.1716 25.5 22C25.5 22.8284 26.1716 23.5 27 23.5Z" fill="#3F5FFF"/>
        </g>
      </g>
      <text id="ITEM_3_HEAD" x="162.0" y="-30.0" font-weight="700" font-size="28" fill="var(--accent-3)" data-bg-id="ITEM_3_TEXT_BG" fill-opacity="1.0" style="font-size: 31px; font-family: 'Segoe UI Variable Display', 'Aptos Display', 'Inter', 'Segoe UI', Helvetica, Arial, sans-serif; font-weight: 700; font-kerning: normal; font-feature-settings: &quot;kern&quot; 1, &quot;liga&quot; 1; letter-spacing:-0.4px;" data-final-font-size="31">
        <tspan x="162.0" dy="27.52px">Human Oversight</tspan>
      </text>
      <rect id="ITEM_3_HEAD_FRAME" x="162" y="-30" width="472" height="38" fill="none"/>
      <text id="ITEM_3_BODY" x="162.0" y="10.0" font-size="19" fill="var(--primary-text)" data-bg-id="ITEM_3_TEXT_BG" style="font-size: 23px; font-family: 'Segoe UI Variable Text', 'Aptos', 'Inter', 'Segoe UI', Helvetica, Arial, sans-serif; font-weight: 400; font-kerning: normal; font-feature-settings: &quot;kern&quot; 1, &quot;liga&quot; 1;" data-final-font-size="23">
        <tspan x="162.0" dy="20.22px">Defining the role of clinicians</tspan>
        <tspan x="162.0" dy="26.45px">in final decisions</tspan>
      </text>
      <rect id="ITEM_3_BODY_FRAME" x="162" y="10" width="468" height="62" fill="none"/>
    </g>
    <line x1="840" y1="540" x2="1100" y2="856.25" stroke="var(--accent-4)" stroke-width="18" stroke-linecap="round" opacity="0.18" filter="url(#svg446f739e-beam-glow)"/>
    <line x1="840" y1="540" x2="1100" y2="856.25" stroke="var(--accent-4)" stroke-width="4" stroke-linecap="round" opacity="0.72"/>
    <g transform="translate(1100, 856.25)">
      <path id="ITEM_4_BG" d="M 0 -60 L 610 -60 L 740 15 L 610 90 L 0 90 L 56 15 Z" fill="var(--panel)" fill-opacity="0.95" stroke="var(--accent-4)" stroke-width="3" filter="url(#svg446f739e-shadow)"/>
      <rect id="ITEM_4_TEXT_BG" x="138" y="-42" width="520" height="114" rx="18" fill="var(--panel)" fill-opacity="0.9" stroke="var(--primary-text)" stroke-opacity="0.1" stroke-width="1.5"/>
      <rect x="150" y="-32" width="496" height="94" rx="14" fill="url(#svg446f739e-universal-surface-sheen)" opacity="0.76"/>
      <circle id="ITEM_4_PAD" cx="82" cy="15" r="42" fill="var(--icon-pad-bg)" stroke="var(--accent-1)" opacity="1" fill-opacity="0.9" stroke-width="2" stroke-opacity="0.72" data-badge-layer="pad"/>
      <circle id="ITEM_4_PAD_INNER" cx="82" cy="15" r="32.76" fill="var(--accent-1)" fill-opacity="0.12" stroke="none" data-badge-layer="tint"/>
      <circle cx="82" cy="15" r="34" fill="none" stroke="var(--accent-4)" stroke-width="3" stroke-dasharray="6 4" display="none" data-suppressed-decoration="redundant-badge-ring"/>
      <g id="ITEM_4_ICON" transform="translate(48, -19)" data-icon-size="68" stroke-linecap="round" stroke-linejoin="round" data-badge-treatment="clean">
        <g transform="translate(-2.881355932203393,-2.88135593220339) scale(3.073446327683616)" vector-effect="non-scaling-stroke" stroke-width="2.53" stroke-linecap="round" stroke-linejoin="round" stroke-opacity="1.0">
          <path d="M15 14c.2-1 .7-1.7 1.5-2.5 1-.9 1.5-2.2 1.5-3.5A6 6 0 0 0 6 8c0 1 .2 2.2 1.5 3.5.7.7 1.3 1.5 1.5 2.5" vector-effect="non-scaling-stroke" fill="none" stroke="#f1f5f9"/>
          <path d="M9 18h6" vector-effect="non-scaling-stroke" fill="none" stroke="#f1f5f9"/>
          <path d="M10 22h4" vector-effect="non-scaling-stroke" fill="none" stroke="#f1f5f9"/>
        </g>
      </g>
      <text id="ITEM_4_HEAD" x="162.0" y="-30.0" font-weight="700" font-size="28" fill="var(--accent-1)" data-bg-id="ITEM_4_TEXT_BG" fill-opacity="1.0" style="font-size: 31px; font-family: 'Segoe UI Variable Display', 'Aptos Display', 'Inter', 'Segoe UI', Helvetica, Arial, sans-serif; font-weight: 700; font-kerning: normal; font-feature-settings: &quot;kern&quot; 1, &quot;liga&quot; 1; letter-spacing:-0.4px;" data-final-font-size="31">
        <tspan x="162.0" dy="27.52px">Explainability</tspan>
      </text>
      <rect id="ITEM_4_HEAD_FRAME" x="162" y="-30" width="472" height="38" fill="none"/>
      <text id="ITEM_4_BODY" x="162.0" y="10.0" font-size="19" fill="var(--primary-text)" data-bg-id="ITEM_4_TEXT_BG" style="font-size: 23px; font-family: 'Segoe UI Variable Text', 'Aptos', 'Inter', 'Segoe UI', Helvetica, Arial, sans-serif; font-weight: 400; font-kerning: normal; font-feature-settings: &quot;kern&quot; 1, &quot;liga&quot; 1;" data-final-font-size="23">
        <tspan x="162.0" dy="20.22px">Providing underst and able reasons for AI-</tspan>
        <tspan x="162.0" dy="26.45px">generated outputs</tspan>
      </text>
      <rect id="ITEM_4_BODY_FRAME" x="162" y="10" width="468" height="62" fill="none"/>
    </g>
  </g>
  <text id="SOURCE_NOTE" x="134.0" y="1058.0" fill="var(--muted-text)" opacity="1" style="font-family: var(--font-family); font-size: 20px;">Source: Deep Mind hits back at criticism of its NHS data-sharing deal</text>
</svg>
