<?xml version='1.0' encoding='utf-8'?>
<svg xmlns="http://www.w3.org/2000/svg" width="1920" height="1080" viewBox="0 0 1920 1080" data-theme="light" data-semantic-intent="sequence" data-relation-type="sequence" data-site-visual-identity="signal-cobalt">
  <style>
        @font-face {
            font-family: 'Inter';
            src: url('assets/fonts/Inter-Regular.ttf') format('truetype');
            font-weight: 400;
            font-style: normal;
            font-display: swap;
        }
        @font-face {
            font-family: 'Inter';
            src: url('assets/fonts/Inter-Bold.ttf') format('truetype');
            font-weight: 600;
            font-style: normal;
            font-display: swap;
        }
        @font-face {
            font-family: 'Inter';
            src: url('assets/fonts/Inter-Bold.ttf') format('truetype');
            font-weight: 800;
            font-style: normal;
            font-display: swap;
        }
        
:root {
    --background: #f8fafc;
    --panel: #ffffff;
    --primary-text: #0f172a;
    --muted-text: #64748b;
    --inverse-text: #ffffff;
    --border: #e2e8f0;
    --shadow-color: #000000;
    --icon-pad-bg: #1e293b;
    --art-glow: #0891b2;
    --art-glow-opacity: 0.10;
    --art-sheen: #ffffff;
    --art-sheen-opacity: 0.34;
    --art-shadow: #0f172a;
    --art-shadow-opacity: 0.14;
    --art-muted-line: #94a3b8;
    --art-panel-tint: #f1f5f9;
    --semantic-risk: #b91c1c;
    --semantic-warning: #c2410c;
    --semantic-uncertain: #a16207;
    --semantic-evidence: #1d4ed8;
    --semantic-claim: #6d28d9;
    --semantic-positive: #15803d;
    --semantic-outcome: #0e7490;
    --font-family: 'Inter', 'Segoe UI', 'Kalam', Roboto, Helvetica, Arial, sans-serif;
    --radius-xl: 16px;
    --font-family-headline: 'Segoe UI Variable Display', 'Aptos Display', 'Inter', 'Segoe UI', Helvetica, Arial, sans-serif;
    --font-family-body: 'Segoe UI Variable Text', 'Aptos', 'Inter', 'Segoe UI', Helvetica, Arial, sans-serif;
    --font-heading: var(--font-family-headline);
    --font-body: var(--font-family-body);
    --font-size-h1: 64px;
    --font-size-h2: 42px;
    --font-size-h3: 29px;
    --font-size-body: 21px;
    --font-size-caption: 17px;
    --secondary-text: var(--muted-text);
    --panel-border: var(--border);
    --font-weight-normal: 400;
    --font-weight-medium: 500;
    --font-weight-semibold: 600;
    --font-weight-bold: 700;
    --spacing-gutter-pct: 0.07;
    --spacing-top-pct: 0.15;
    --spacing-bottom-pct: 0.07;
    --spacing-title-y-pct: 0.055;
    --accent-1: #1d4ed8;
    --accent-2: #2563eb;
    --accent-3: #4f46e5;
    --accent-4: #6d28d9;
    --accent-5: #0369a1;
    --accent-6: #c2410c;
}
:root[data-theme="dark"] {
    --background: #0f172a;
    --panel: #1e293b;
    --primary-text: #f1f5f9;
    --muted-text: #94a3b8;
    --inverse-text: #0f172a;
    --border: #334155;
    --shadow-color: #000000;
    --icon-pad-bg: #1e293b;
    --art-glow: #7dd3fc;
    --art-glow-opacity: 0.18;
    --art-sheen: #ffffff;
    --art-sheen-opacity: 0.18;
    --art-shadow: #000000;
    --art-shadow-opacity: 0.28;
    --art-muted-line: #64748b;
    --art-panel-tint: #1e293b;
    --semantic-risk: #f87171;
    --semantic-warning: #fb923c;
    --semantic-uncertain: #fbbf24;
    --semantic-evidence: #60a5fa;
    --semantic-claim: #c084fc;
    --semantic-positive: #4ade80;
    --semantic-outcome: #22d3ee;
    --accent-1: #93c5fd;
    --accent-2: #60a5fa;
    --accent-3: #818cf8;
    --accent-4: #a78bfa;
    --accent-5: #38bdf8;
    --accent-6: #fb923c;
}
:root[data-theme="light"] {
    --background: #f8fafc;
    --panel: #ffffff;
    --primary-text: #0f172a;
    --muted-text: #64748b;
    --inverse-text: #ffffff;
    --border: #e2e8f0;
    --shadow-color: #000000;
    --icon-pad-bg: #1e293b;
    --art-glow: #0891b2;
    --art-glow-opacity: 0.10;
    --art-sheen: #ffffff;
    --art-sheen-opacity: 0.34;
    --art-shadow: #0f172a;
    --art-shadow-opacity: 0.14;
    --art-muted-line: #94a3b8;
    --art-panel-tint: #f1f5f9;
    --semantic-risk: #b91c1c;
    --semantic-warning: #c2410c;
    --semantic-uncertain: #a16207;
    --semantic-evidence: #1d4ed8;
    --semantic-claim: #6d28d9;
    --semantic-positive: #15803d;
    --semantic-outcome: #0e7490;
    --accent-1: #1d4ed8;
    --accent-2: #2563eb;
    --accent-3: #4f46e5;
    --accent-4: #6d28d9;
    --accent-5: #0369a1;
    --accent-6: #c2410c;
}</style>
  <rect x="0" y="0" width="1.92E+3" height="1.08E+3" fill="#252a34" stroke="none" id="programmatic_background"/>
  <line id="HEADER_DECOR" x1="960.0" x2="1080.0" y1="125.0" y2="125.0" stroke="var(--accent-1)" stroke-width="6" stroke-linecap="round"/>
  <defs>
    <pattern id="svgbdcb8fa4-napkin-hatch" patternUnits="userSpaceOnUse" width="12" height="12">
      <path d="M -3 12 L 12 -3 M 0 15 L 15 0" fill="none" stroke="var(--primary-text)" stroke-width="1" stroke-opacity="0.05"/>
    </pattern>
    <filter id="svgbdcb8fa4-shadow" x="-30%" y="-30%" width="160%" height="160%">
      <feDropShadow dx="0" dy="3" stdDeviation="6" flood-color="#000000" flood-opacity="0.10"/>
      <feDropShadow dx="0" dy="8" stdDeviation="12" flood-color="#000000" flood-opacity="0.16"/>
    </filter>
    <marker id="svgbdcb8fa4-arrowhead" markerWidth="12" markerHeight="12" refX="10" refY="6" orient="auto">
      <path d="M 0 0 L 12 6 L 0 12 Z" fill="var(--muted-text)"/>
    </marker>
    <radialGradient id="svgbdcb8fa4-universal-edge-vignette" cx="50%" cy="50%" r="72%">
      <stop offset="0%" stop-color="var(--background)" stop-opacity="0"/>
      <stop offset="72%" stop-color="var(--background)" stop-opacity="0.12"/>
      <stop offset="100%" stop-color="var(--primary-text)" stop-opacity="0.08"/>
    </radialGradient>
    <linearGradient id="svgbdcb8fa4-universal-surface-sheen" x1="0%" y1="0%" x2="100%" y2="100%">
      <stop offset="0%" stop-color="var(--art-sheen)" stop-opacity="var(--art-sheen-opacity)"/>
      <stop offset="46%" stop-color="var(--art-sheen)" stop-opacity="0.035"/>
      <stop offset="100%" stop-color="var(--art-panel-tint)" stop-opacity="0.14"/>
    </linearGradient>
    <radialGradient id="svgbdcb8fa4-universal-icon-aura" cx="50%" cy="42%" r="64%">
      <stop offset="0%" stop-color="var(--art-glow)" stop-opacity="var(--art-glow-opacity)"/>
      <stop offset="100%" stop-color="var(--background)" stop-opacity="0"/>
    </radialGradient>
    <filter id="svgbdcb8fa4-text-glow" x="-20%" y="-20%" width="140%" height="140%">
      <feDropShadow dx="0" dy="0" stdDeviation="2" flood-color="#000000" flood-opacity="0.4"/>
    </filter>
  </defs>
  <rect width="100%" height="100%" fill="var(--background)" id="CANVAS_BG"/>
  <rect width="100%" height="100%" fill="url(#svgbdcb8fa4-napkin-hatch)"/>
  <rect id="UNIVERSAL_EDGE_VIGNETTE" width="100%" height="100%" fill="url(#svgbdcb8fa4-universal-edge-vignette)" opacity="0.62"/>
  <text id="TITLE" x="960.0" y="59" text-anchor="middle" font-size="58" font-weight="800" fill="#0f172a" style="font-size: 69px; font-family: 'Segoe UI Variable Display', 'Aptos Display', 'Inter', 'Segoe UI', Helvetica, Arial, sans-serif; font-weight: 800; font-kerning: normal; font-feature-settings: &quot;kern&quot; 1, &quot;liga&quot; 1; letter-spacing:-1.2px;" data-final-font-size="69">
    <tspan x="960.0" dy="70.47px">Benefits of Laboratory Interoperability</tspan>
  </text>
  <rect id="TITLE_FRAME" x="134" y="56" width="1652" height="98" fill="none"/>
  <rect x="120" y="165" width="1680" height="820" rx="40" fill="var(--panel)" fill-opacity="0.22" stroke="var(--muted-text)" stroke-width="2.4" opacity="0.92"/>
  <path d="M 272.0 282.0 Q 319.5 282.0 367.0 418.0 Q 414.5 418.0 462.0 554.0 Q 509.5 554.0 557.0 690.0 Q 604.5 690.0 652.0 826.0" fill="none" stroke="var(--muted-text)" stroke-width="10" stroke-linecap="round" stroke-linejoin="round" opacity="0.36" marker-end="url(#svgbdcb8fa4-arrowhead)"/>
  <g id="DIAGRAM_MAIN" transform="translate(-60 -20) scale(1.08)">
    <g filter="url(#svgbdcb8fa4-shadow)">
      <rect id="ITEM_1_BG" x="190.0" y="210.0" width="980" height="144" rx="24" fill="var(--panel)" fill-opacity="0.97" stroke="var(--accent-1)" stroke-width="2.5"/>
      <rect x="190.0" y="210.0" width="980" height="144" rx="16" fill="url(#svgbdcb8fa4-universal-surface-sheen)" opacity="0.86"/>
      <rect x="190.0" y="210.0" width="980" height="18" rx="9" fill="var(--accent-1)" fill-opacity="0.55"/>
      <circle id="ITEM_1_PAD" cx="272.0" cy="282.0" r="40" fill="var(--icon-pad-bg)" opacity="1" fill-opacity="0.9" stroke-width="2" stroke="var(--semantic-positive)" stroke-opacity="0.72" data-badge-layer="pad"/>
      <circle id="ITEM_1_PAD_INNER" cx="272.0" cy="282.0" r="31.20" fill="var(--semantic-positive)" fill-opacity="0.12" stroke="none" data-badge-layer="tint"/>
      <circle cx="272.0" cy="282.0" r="32" fill="none" stroke="var(--accent-1)" stroke-width="3" stroke-dasharray="6 4" display="none" data-suppressed-decoration="redundant-badge-ring"/>
      <g id="ITEM_1_ICON" transform="translate(242.0, 252.0)" data-icon-size="60" stroke-linecap="round" stroke-linejoin="round" data-badge-treatment="clean">
        <g transform="translate(-3.844067796610176,-3.844067796610173) scale(2.820338983050848)" vector-effect="non-scaling-stroke" stroke-width="2.43" stroke-linecap="round" stroke-linejoin="round" stroke-opacity="1.0">
          <rect width="16" height="20" x="4" y="2" rx="2" vector-effect="non-scaling-stroke" fill="none" stroke="#f1f5f9"/>
          <line x1="8" x2="16" y1="6" y2="6" vector-effect="non-scaling-stroke" fill="none" stroke="#f1f5f9"/>
          <line x1="16" x2="16" y1="14" y2="18" vector-effect="non-scaling-stroke" fill="none" stroke="#f1f5f9"/>
          <path d="M16 10h.01" vector-effect="non-scaling-stroke" fill="none" stroke="#f1f5f9"/>
          <path d="M12 10h.01" vector-effect="non-scaling-stroke" fill="none" stroke="#f1f5f9"/>
          <path d="M8 10h.01" vector-effect="non-scaling-stroke" fill="none" stroke="#f1f5f9"/>
          <path d="M12 14h.01" vector-effect="non-scaling-stroke" fill="none" stroke="#f1f5f9"/>
          <path d="M8 14h.01" vector-effect="non-scaling-stroke" fill="none" stroke="#f1f5f9"/>
          <path d="M12 18h.01" vector-effect="non-scaling-stroke" fill="none" stroke="#f1f5f9"/>
          <path d="M8 18h.01" vector-effect="non-scaling-stroke" fill="none" stroke="#f1f5f9"/>
        </g>
      </g>
      <rect x="345.0" y="238.0" width="690.0" height="24" rx="12" fill="var(--accent-1)" fill-opacity="0.08"/>
      <text x="1136.0" y="252.0" text-anchor="end" font-size="17" font-weight="800" fill="var(--accent-1)" opacity="0.72">01</text>
      <text id="ITEM_1_HEAD" x="358.0" y="228.0" text-anchor="start" font-weight="800" font-size="30" fill="var(--semantic-positive)" data-bg-id="ITEM_1_BG" fill-opacity="1.0" style="font-size: 31px; font-family: 'Segoe UI Variable Display', 'Aptos Display', 'Inter', 'Segoe UI', Helvetica, Arial, sans-serif; font-weight: 700; font-kerning: normal; font-feature-settings: &quot;kern&quot; 1, &quot;liga&quot; 1; letter-spacing:-0.4px;" data-final-font-size="31">
        <tspan x="358.0" dy="28.58px">Lower Integration Costs</tspan>
      </text>
      <rect id="ITEM_1_HEAD_FRAME" x="358.0" y="228.0" width="620.0" height="34" fill="none"/>
      <text id="ITEM_1_BODY" x="358.0" y="270.0" text-anchor="start" font-size="23" fill="var(--primary-text)" data-bg-id="ITEM_1_BG" style="font-size: 23px; font-family: 'Segoe UI Variable Text', 'Aptos', 'Inter', 'Segoe UI', Helvetica, Arial, sans-serif; font-weight: 400; font-kerning: normal; font-feature-settings: &quot;kern&quot; 1, &quot;liga&quot; 1;" data-final-font-size="23">
        <tspan x="358.0" dy="28.21px">Reduces need for expensive custom programming</tspan>
      </text>
      <rect id="ITEM_1_BODY_FRAME" x="358.0" y="270.0" width="650.0" height="64.0" fill="none"/>
    </g>
    <g filter="url(#svgbdcb8fa4-shadow)">
      <rect id="ITEM_2_BG" x="285.0" y="346.0" width="980" height="144" rx="24" fill="var(--panel)" fill-opacity="0.97" stroke="var(--accent-2)" stroke-width="2.5"/>
      <rect x="285.0" y="346.0" width="980" height="144" rx="16" fill="url(#svgbdcb8fa4-universal-surface-sheen)" opacity="0.86"/>
      <rect x="285.0" y="346.0" width="980" height="18" rx="9" fill="var(--accent-2)" fill-opacity="0.55"/>
      <circle id="ITEM_2_PAD" cx="367.0" cy="418.0" r="40" fill="var(--icon-pad-bg)" opacity="1" fill-opacity="0.9" stroke-width="2" stroke="var(--semantic-positive)" stroke-opacity="0.72" data-badge-layer="pad"/>
      <circle id="ITEM_2_PAD_INNER" cx="367.0" cy="418.0" r="31.20" fill="var(--semantic-positive)" fill-opacity="0.12" stroke="none" data-badge-layer="tint"/>
      <circle cx="367.0" cy="418.0" r="32" fill="none" stroke="var(--accent-2)" stroke-width="3" stroke-dasharray="6 4" display="none" data-suppressed-decoration="redundant-badge-ring"/>
      <g id="ITEM_2_ICON" transform="translate(337.0, 388.0)" data-icon-size="60" stroke-linecap="round" stroke-linejoin="round" data-badge-treatment="clean">
        <g transform="translate(-5.65714285714286,-5.65714285714286) scale(2.2285714285714286)">
          <path d="M3.2359 5.89697L6.00835 8.66735C6.26317 8.92198 6.66069 8.92198 6.91551 8.66735L8.66867 6.91549C8.92349 6.66086 8.92349 6.26364 8.66867 6.00901L5.89623 3.23862C5.53948 2.88214 5.71276 2.28121 6.19182 2.15899C7.96537 1.72102 9.92239 2.18954 11.329 3.54418C12.8928 5.05575 13.3617 7.28456 12.7243 9.22843L22.7212 19.2909C24.6418 18.6406 26.8528 19.0802 28.387 20.6132C29.7936 22.0188 30.2828 24.0049 29.8445 25.8178C29.7222 26.2864 29.1208 26.4595 28.7641 26.103L25.9917 23.3326C25.7368 23.078 25.3393 23.078 25.0845 23.3326L23.3313 25.0845C23.0765 25.3391 23.0765 25.7364 23.3313 25.991L26.1038 28.7614C26.4605 29.1179 26.2872 29.7188 25.8082 29.841C24.0346 30.279 22.0776 29.8105 20.671 28.4558C19.1243 26.9608 18.6487 24.7642 19.2552 22.8355L9.2093 12.7321C7.30512 13.3486 5.12872 12.9014 3.61304 11.3868C2.20643 9.98124 1.71717 7.99512 2.15546 6.18215C2.27778 5.71363 2.87915 5.54048 3.2359 5.89697Z" fill="#B4ACBC"/>
        </g>
      </g>
      <rect x="440.0" y="374.0" width="690.0" height="24" rx="12" fill="var(--accent-2)" fill-opacity="0.08"/>
      <text x="1231.0" y="388.0" text-anchor="end" font-size="17" font-weight="800" fill="var(--accent-2)" opacity="0.72">02</text>
      <text id="ITEM_2_HEAD" x="453.0" y="364.0" text-anchor="start" font-weight="800" font-size="30" fill="var(--semantic-positive)" data-bg-id="ITEM_2_BG" fill-opacity="1.0" style="font-size: 31px; font-family: 'Segoe UI Variable Display', 'Aptos Display', 'Inter', 'Segoe UI', Helvetica, Arial, sans-serif; font-weight: 700; font-kerning: normal; font-feature-settings: &quot;kern&quot; 1, &quot;liga&quot; 1; letter-spacing:-0.4px;" data-final-font-size="31">
        <tspan x="453.0" dy="28.58px">Easier Upgrades</tspan>
      </text>
      <rect id="ITEM_2_HEAD_FRAME" x="453.0" y="364.0" width="620.0" height="34" fill="none"/>
      <text id="ITEM_2_BODY" x="453.0" y="406.0" text-anchor="start" font-size="23" fill="var(--primary-text)" data-bg-id="ITEM_2_BG" style="font-size: 23px; font-family: 'Segoe UI Variable Text', 'Aptos', 'Inter', 'Segoe UI', Helvetica, Arial, sans-serif; font-weight: 400; font-kerning: normal; font-feature-settings: &quot;kern&quot; 1, &quot;liga&quot; 1;" data-final-font-size="23">
        <tspan x="453.0" dy="28.21px">Replace individual instruments without rebuilding platforms</tspan>
      </text>
      <rect id="ITEM_2_BODY_FRAME" x="453.0" y="406.0" width="650.0" height="64.0" fill="none"/>
    </g>
    <g filter="url(#svgbdcb8fa4-shadow)">
      <rect id="ITEM_3_BG" x="380.0" y="482.0" width="980" height="144" rx="24" fill="var(--panel)" fill-opacity="0.97" stroke="var(--accent-3)" stroke-width="2.5"/>
      <rect x="380.0" y="482.0" width="980" height="144" rx="16" fill="url(#svgbdcb8fa4-universal-surface-sheen)" opacity="0.86"/>
      <rect x="380.0" y="482.0" width="980" height="18" rx="9" fill="var(--accent-3)" fill-opacity="0.55"/>
      <circle id="ITEM_3_PAD" cx="462.0" cy="554.0" r="40" fill="var(--icon-pad-bg)" opacity="1" fill-opacity="0.9" stroke-width="2" stroke="var(--semantic-positive)" stroke-opacity="0.72" data-badge-layer="pad"/>
      <circle id="ITEM_3_PAD_INNER" cx="462.0" cy="554.0" r="31.20" fill="var(--semantic-positive)" fill-opacity="0.12" stroke="none" data-badge-layer="tint"/>
      <circle cx="462.0" cy="554.0" r="32" fill="none" stroke="var(--accent-3)" stroke-width="3" stroke-dasharray="6 4" display="none" data-suppressed-decoration="redundant-badge-ring"/>
      <g id="ITEM_3_ICON" transform="translate(432.0, 524.0)" data-icon-size="60" stroke-linecap="round" stroke-linejoin="round" data-badge-treatment="clean">
        <g transform="translate(-4.427586206896555,-4.427586206896555) scale(2.8689655172413797)" vector-effect="non-scaling-stroke" stroke-width="2.43" stroke-linecap="round" stroke-linejoin="round" stroke-opacity="1.0">
          <path d="M14.4603 18.7455L14.9906 19.2758L14.9906 19.2758L14.4603 18.7455ZM15.2274 17.9783L14.6971 17.448L14.6971 17.448L15.2274 17.9783ZM18.4821 13.3755L19.2321 13.3755L18.4821 13.3755ZM6.02184 8.77274L6.55217 9.30307L6.55217 9.30307L6.02184 8.77274ZM10.6246 5.51807L10.6246 6.26807L10.6246 5.51807ZM5.2547 9.53987L4.72437 9.00954L4.72437 9.00954L5.2547 9.53987ZM2.00003 14.1427L1.25003 14.1427L2.00003 14.1427ZM5.78503 13.6123C5.49214 13.3195 5.01727 13.3195 4.72437 13.6123C4.43148 13.9052 4.43148 14.3801 4.72437 14.673L5.78503 13.6123ZM9.32718 19.2758C9.62007 19.5687 10.0949 19.5687 10.3878 19.2758C10.6807 18.9829 10.6807 18.508 10.3878 18.2152L9.32718 19.2758ZM5.78503 10.0702L6.55217 9.30307L5.49151 8.24241L4.72437 9.00954L5.78503 10.0702ZM14.6971 17.448L13.93 18.2152L14.9906 19.2758L15.7578 18.5087L14.6971 17.448ZM13.93 18.2152C12.8301 19.315 12.0574 20.0855 11.3959 20.5902C10.7516 21.0818 10.3017 21.2502 9.85751 21.2502L9.85751 22.7502C10.7615 22.7502 11.528 22.3761 12.3057 21.7828C13.0661 21.2026 13.9207 20.3457 14.9906 19.2758L13.93 18.2152ZM4.72437 19.2758C5.79427 20.3457 6.64892 21.2026 7.40929 21.7828C8.18696 22.3761 8.95352 22.7502 9.85751 22.7502L9.85751 21.2502C9.41336 21.2502 8.96341 21.0818 8.31916 20.5902C7.65761 20.0855 6.88492 19.315 5.78503 18.2152L4.72437 19.2758ZM14.6971 9.30307C15.797 10.403 16.5674 11.1756 17.0722 11.8372C17.5637 12.4814 17.7321 12.9314 17.7321 13.3755L19.2321 13.3755C19.2321 12.4716 18.8581 11.705 18.2647 10.9273C17.6846 10.167 16.8277 9.31231 15.7578 8.24241L14.6971 9.30307ZM15.7578 18.5087C16.8277 17.4388 17.6846 16.5841 18.2647 15.8238C18.8581 15.0461 19.2321 14.2795 19.2321 13.3755L17.7321 13.3755C17.7321 13.8197 17.5637 14.2696 17.0722 14.9139C16.5674 15.5754 15.797 16.3481 14.6971 17.448L15.7578 18.5087ZM6.55217 9.30307C7.65205 8.20319 8.42474 7.43275 9.08629 6.928C9.73054 6.43646 10.1805 6.26807 10.6246 6.26807L10.6246 4.76807C9.72066 4.76807 8.9541 5.14212 8.17642 5.73547C7.41605 6.31561 6.56141 7.17251 5.49151 8.24241L6.55217 9.30307ZM15.7578 8.24241C14.6879 7.17251 13.8332 6.31561 13.0729 5.73547C12.2952 5.14212 11.5286 4.76807 10.6246 4.76807L10.6246 6.26807C11.0688 6.26807 11.5187 6.43646 12.163 6.928C12.8245 7.43275 13.5972 8.20319 14.6971 9.30307L15.7578 8.24241ZM4.72437 9.00954C3.65447 10.0794 2.79757 10.9341 2.21743 11.6945C1.62409 12.4721 1.25003 13.2387 1.25003 14.1427L2.75003 14.1427C2.75003 13.6985 2.91842 13.2486 3.40996 12.6043C3.91471 11.9428 4.68515 11.1701 5.78503 10.0702L4.72437 9.00954ZM5.78503 18.2152C4.68515 17.1153 3.91471 16.3426 3.40996 15.681C2.91842 15.0368 2.75003 14.5868 2.75003 14.1427L1.25003 14.1427C1.25003 15.0467 1.62409 15.8132 2.21743 16.5909C2.79757 17.3513 3.65447 18.2059 4.72437 19.2758L5.78503 18.2152ZM4.72437 14.673L9.32718 19.2758L10.3878 18.2152L5.78503 13.6123L4.72437 14.673Z" fill="none" vector-effect="non-scaling-stroke" stroke="#f1f5f9"/>
          <path d="M19.8301 10.441L20.3647 10.967L20.3647 10.967L19.8301 10.441ZM17.7613 11.4739C17.4708 11.7692 17.4746 12.244 17.7698 12.5346C18.065 12.8251 18.5399 12.8213 18.8304 12.5261L17.7613 11.4739ZM19.8301 4.20481L19.2956 4.73088L19.2956 4.73088L19.8301 4.20481ZM21.9999 7.32289L22.7499 7.32289V7.32289L21.9999 7.32289ZM13.6931 4.20481L14.2276 4.73088L14.2276 4.73088L13.6931 4.20481ZM16.7616 2L16.7616 2.75L16.7616 2.75L16.7616 2ZM11.4654 5.39919C11.1748 5.69442 11.1786 6.16928 11.4739 6.45982C11.7691 6.75036 12.244 6.74656 12.5345 6.45133L11.4654 5.39919ZM19.2956 9.91489L17.7613 11.4739L18.8304 12.5261L20.3647 10.967L19.2956 9.91489ZM19.2956 4.73088C20.0336 5.48084 20.5333 5.99085 20.8577 6.42291C21.1688 6.83718 21.2499 7.09251 21.2499 7.32289L22.7499 7.32289C22.7499 6.64 22.4695 6.07123 22.0572 5.52225C21.6584 4.99105 21.0732 4.39865 20.3647 3.67874L19.2956 4.73088ZM20.3647 10.967C21.0732 10.2471 21.6584 9.65472 22.0572 9.12352C22.4694 8.57454 22.7499 8.00577 22.7499 7.32289L21.2499 7.32289C21.2499 7.55327 21.1688 7.8086 20.8577 8.22287C20.5333 8.65492 20.0336 9.16493 19.2956 9.91489L20.3647 10.967ZM14.2276 4.73088C14.9658 3.98075 15.4675 3.47324 15.8923 3.14393C16.3002 2.82765 16.5459 2.75 16.7616 2.75L16.7616 1.25C16.0786 1.25 15.5132 1.53982 14.9732 1.95848C14.45 2.36411 13.8668 2.959 13.1585 3.67874L14.2276 4.73088ZM20.3647 3.67874C19.6564 2.959 19.0732 2.36411 18.55 1.95847C18.01 1.53982 17.4446 1.25 16.7616 1.25L16.7616 2.75C16.9773 2.75 17.223 2.82765 17.6309 3.14393C18.0557 3.47324 18.5574 3.98075 19.2956 4.73088L20.3647 3.67874ZM13.1585 3.67874L11.4654 5.39919L12.5345 6.45133L14.2276 4.73088L13.1585 3.67874Z" fill="none" vector-effect="non-scaling-stroke" stroke="#f1f5f9"/>
          <path d="M14.4603 18.7455L14.9906 19.2758L14.9906 19.2758L14.4603 18.7455ZM15.2274 17.9783L14.6971 17.448L14.6971 17.448L15.2274 17.9783ZM18.4821 13.3755L19.2321 13.3755L18.4821 13.3755ZM6.02181 8.77274L6.55214 9.30307L6.55214 9.30307L6.02181 8.77274ZM5.25467 9.53987L4.72434 9.00954L4.72434 9.00954L5.25467 9.53987ZM5.785 13.6123C5.49211 13.3195 5.01724 13.3195 4.72434 13.6123C4.43145 13.9052 4.43145 14.3801 4.72434 14.673L5.785 13.6123ZM9.32715 19.2758C9.62004 19.5687 10.0949 19.5687 10.3878 19.2758C10.6807 18.9829 10.6807 18.508 10.3878 18.2152L9.32715 19.2758ZM5.785 10.0702L6.55214 9.30307L5.49148 8.24241L4.72434 9.00954L5.785 10.0702ZM14.6971 17.448L13.9299 18.2152L14.9906 19.2758L15.7577 18.5087L14.6971 17.448ZM13.9299 18.2152C12.8301 19.315 12.0574 20.0855 11.3958 20.5902C10.7516 21.0818 10.3016 21.2502 9.85748 21.2502L9.85748 22.7502C10.7615 22.7502 11.528 22.3761 12.3057 21.7828C13.0661 21.2026 13.9207 20.3457 14.9906 19.2758L13.9299 18.2152ZM4.72434 19.2758C5.79424 20.3457 6.64889 21.2026 7.40926 21.7828C8.18693 22.3761 8.95349 22.7502 9.85748 22.7502L9.85748 21.2502C9.41333 21.2502 8.96338 21.0818 8.31913 20.5902C7.65758 20.0855 6.88489 19.315 5.785 18.2152L4.72434 19.2758ZM14.6971 9.30307C15.797 10.403 16.5674 11.1756 17.0722 11.8372C17.5637 12.4814 17.7321 12.9314 17.7321 13.3755L19.2321 13.3755C19.2321 12.4716 18.858 11.705 18.2647 10.9273C17.6845 10.167 16.8276 9.31231 15.7577 8.24241L14.6971 9.30307ZM15.7577 18.5087C16.8276 17.4388 17.6845 16.5841 18.2647 15.8238C18.858 15.0461 19.2321 14.2795 19.2321 13.3755L17.7321 13.3755C17.7321 13.8197 17.5637 14.2696 17.0722 14.9139C16.5674 15.5754 15.797 16.3481 14.6971 17.448L15.7577 18.5087ZM6.55214 9.30307C7.65202 8.20319 8.42471 7.43275 9.08626 6.928C9.73051 6.43646 10.1805 6.26807 10.6246 6.26807L10.6246 4.76807C9.72063 4.76807 8.95407 5.14212 8.17639 5.73547C7.41602 6.31561 6.56138 7.17251 5.49148 8.24241L6.55214 9.30307ZM15.7577 8.24241C14.6878 7.17251 13.8332 6.31561 13.0728 5.73547C12.2952 5.14212 11.5286 4.76807 10.6246 4.76807L10.6246 6.26807C11.0688 6.26807 11.5187 6.43646 12.163 6.928C12.8245 7.43275 13.5972 8.20319 14.6971 9.30307L15.7577 8.24241ZM4.72434 9.00954C3.65444 10.0794 2.79754 10.9341 2.2174 11.6945C1.62406 12.4721 1.25 13.2387 1.25 14.1427L2.75 14.1427C2.75 13.6985 2.91839 13.2486 3.40993 12.6043C3.91468 11.9428 4.68512 11.1701 5.785 10.0702L4.72434 9.00954ZM5.785 18.2152C4.68512 17.1153 3.91468 16.3426 3.40993 15.681C2.91839 15.0368 2.75 14.5868 2.75 14.1427L1.25 14.1427C1.25 15.0467 1.62406 15.8132 2.2174 16.5909C2.79754 17.3513 3.65444 18.2059 4.72434 19.2758L5.785 18.2152ZM4.72434 14.673L9.32715 19.2758L10.3878 18.2152L5.785 13.6123L4.72434 14.673Z" fill="none" vector-effect="non-scaling-stroke" stroke="#f1f5f9"/>
          <path d="M18.7175 7.40381L18.0104 8.11092" stroke="#f1f5f9" vector-effect="non-scaling-stroke" fill="none"/>
          <path d="M16.5962 5.28271L15.8891 5.98982" stroke="#f1f5f9" vector-effect="non-scaling-stroke" fill="none"/>
        </g>
      </g>
      <rect x="535.0" y="510.0" width="690.0" height="24" rx="12" fill="var(--accent-3)" fill-opacity="0.08"/>
      <text x="1326.0" y="524.0" text-anchor="end" font-size="17" font-weight="800" fill="var(--accent-3)" opacity="0.72">03</text>
      <text id="ITEM_3_HEAD" x="548.0" y="500.0" text-anchor="start" font-weight="800" font-size="30" fill="var(--semantic-positive)" data-bg-id="ITEM_3_BG" fill-opacity="1.0" style="font-size: 31px; font-family: 'Segoe UI Variable Display', 'Aptos Display', 'Inter', 'Segoe UI', Helvetica, Arial, sans-serif; font-weight: 700; font-kerning: normal; font-feature-settings: &quot;kern&quot; 1, &quot;liga&quot; 1; letter-spacing:-0.4px;" data-final-font-size="31">
        <tspan x="548.0" dy="28.58px">Software Portability</tspan>
      </text>
      <rect id="ITEM_3_HEAD_FRAME" x="548.0" y="500.0" width="620.0" height="34" fill="none"/>
      <text id="ITEM_3_BODY" x="548.0" y="542.0" text-anchor="start" font-size="23" fill="var(--primary-text)" data-bg-id="ITEM_3_BG" style="font-size: 23px; font-family: 'Segoe UI Variable Text', 'Aptos', 'Inter', 'Segoe UI', Helvetica, Arial, sans-serif; font-weight: 400; font-kerning: normal; font-feature-settings: &quot;kern&quot; 1, &quot;liga&quot; 1;" data-final-font-size="23">
        <tspan x="548.0" dy="28.21px">Reproduce AI workflows across different institutions</tspan>
      </text>
      <rect id="ITEM_3_BODY_FRAME" x="548.0" y="542.0" width="650.0" height="64.0" fill="none"/>
    </g>
    <g filter="url(#svgbdcb8fa4-shadow)">
      <rect id="ITEM_4_BG" x="475.0" y="618.0" width="980" height="144" rx="24" fill="var(--panel)" fill-opacity="0.97" stroke="var(--accent-4)" stroke-width="2.5"/>
      <rect x="475.0" y="618.0" width="980" height="144" rx="16" fill="url(#svgbdcb8fa4-universal-surface-sheen)" opacity="0.86"/>
      <rect x="475.0" y="618.0" width="980" height="18" rx="9" fill="var(--accent-4)" fill-opacity="0.55"/>
      <circle id="ITEM_4_PAD" cx="557.0" cy="690.0" r="40" fill="var(--icon-pad-bg)" opacity="1" fill-opacity="0.9" stroke-width="2" stroke="var(--semantic-positive)" stroke-opacity="0.72" data-badge-layer="pad"/>
      <circle id="ITEM_4_PAD_INNER" cx="557.0" cy="690.0" r="31.20" fill="var(--semantic-positive)" fill-opacity="0.12" stroke="none" data-badge-layer="tint"/>
      <circle cx="557.0" cy="690.0" r="32" fill="none" stroke="var(--accent-4)" stroke-width="3" stroke-dasharray="6 4" display="none" data-suppressed-decoration="redundant-badge-ring"/>
      <g id="ITEM_4_ICON" transform="translate(527.0, 660.0)" data-icon-size="60" stroke-linecap="round" stroke-linejoin="round" data-badge-treatment="clean">
        <g transform="translate(-6.977777777777781,-6.977777777777781) scale(3.081481481481482)" vector-effect="non-scaling-stroke" stroke-width="2.43" stroke-linecap="round" stroke-linejoin="round" stroke-opacity="1.0">
          <path d="M4 10a7.31 7.31 0 0 0 10 10Z" vector-effect="non-scaling-stroke" fill="none" stroke="#f1f5f9"/>
          <path d="m9 15 3-3" vector-effect="non-scaling-stroke" fill="none" stroke="#f1f5f9"/>
          <path d="M17 13a6 6 0 0 0-6-6" vector-effect="non-scaling-stroke" fill="none" stroke="#f1f5f9"/>
          <path d="M21 13A10 10 0 0 0 11 3" vector-effect="non-scaling-stroke" fill="none" stroke="#f1f5f9"/>
        </g>
      </g>
      <rect x="630.0" y="646.0" width="690.0" height="24" rx="12" fill="var(--accent-4)" fill-opacity="0.08"/>
      <text x="1421.0" y="660.0" text-anchor="end" font-size="17" font-weight="800" fill="var(--accent-4)" opacity="0.72">04</text>
      <text id="ITEM_4_HEAD" x="643.0" y="636.0" text-anchor="start" font-weight="800" font-size="30" fill="var(--semantic-positive)" data-bg-id="ITEM_4_BG" fill-opacity="1.0" style="font-size: 31px; font-family: 'Segoe UI Variable Display', 'Aptos Display', 'Inter', 'Segoe UI', Helvetica, Arial, sans-serif; font-weight: 700; font-kerning: normal; font-feature-settings: &quot;kern&quot; 1, &quot;liga&quot; 1; letter-spacing:-0.4px;" data-final-font-size="31">
        <tspan x="643.0" dy="28.58px">Shared Infrastructure</tspan>
      </text>
      <rect id="ITEM_4_HEAD_FRAME" x="643.0" y="636.0" width="620.0" height="34" fill="none"/>
      <text id="ITEM_4_BODY" x="643.0" y="678.0" text-anchor="start" font-size="23" fill="var(--primary-text)" data-bg-id="ITEM_4_BG" style="font-size: 23px; font-family: 'Segoe UI Variable Text', 'Aptos', 'Inter', 'Segoe UI', Helvetica, Arial, sans-serif; font-weight: 400; font-kerning: normal; font-feature-settings: &quot;kern&quot; 1, &quot;liga&quot; 1;" data-final-font-size="23">
        <tspan x="643.0" dy="28.21px">Enable remote access to standardized lab services</tspan>
      </text>
      <rect id="ITEM_4_BODY_FRAME" x="643.0" y="678.0" width="650.0" height="64.0" fill="none"/>
    </g>
    <g filter="url(#svgbdcb8fa4-shadow)">
      <rect id="ITEM_5_BG" x="570.0" y="754.0" width="980" height="144" rx="24" fill="var(--panel)" fill-opacity="0.97" stroke="var(--accent-5)" stroke-width="2.5"/>
      <rect x="570.0" y="754.0" width="980" height="144" rx="16" fill="url(#svgbdcb8fa4-universal-surface-sheen)" opacity="0.86"/>
      <rect x="570.0" y="754.0" width="980" height="18" rx="9" fill="var(--accent-5)" fill-opacity="0.55"/>
      <circle id="ITEM_5_PAD" cx="652.0" cy="826.0" r="40" fill="var(--icon-pad-bg)" opacity="1" fill-opacity="0.9" stroke-width="2" stroke="var(--semantic-positive)" stroke-opacity="0.72" data-badge-layer="pad"/>
      <circle id="ITEM_5_PAD_INNER" cx="652.0" cy="826.0" r="31.20" fill="var(--semantic-positive)" fill-opacity="0.12" stroke="none" data-badge-layer="tint"/>
      <circle cx="652.0" cy="826.0" r="32" fill="none" stroke="var(--accent-5)" stroke-width="3" stroke-dasharray="6 4" display="none" data-suppressed-decoration="redundant-badge-ring"/>
      <g id="ITEM_5_ICON" transform="translate(622.0, 796.0)" data-icon-size="60" stroke-linecap="round" stroke-linejoin="round" data-badge-treatment="clean">
        <g transform="translate(-4.821428571428573,-5.65714285714286) scale(2.2285714285714286)">
          <path d="M10.5208 7.52114C10.0012 5.7093 8.1239 4.65179 6.30748 5.15196C6.27354 5.1604 6.20545 5.17748 6.14394 5.19799C3.65095 6.02898 3.45292 9.41201 5.68876 10.6483L10.6585 13.3981C11.0772 13.6298 11.6044 13.4782 11.8361 13.0595C12.0678 12.6408 11.9161 12.1135 11.4974 11.8819L6.52712 9.13168C5.54516 8.58886 5.70443 7.17631 6.68631 6.84385L6.69246 6.84216C6.70347 6.83922 6.7167 6.8359 6.73807 6.83055C6.74577 6.82863 6.75344 6.8266 6.76109 6.82446C7.66072 6.57309 8.59583 7.09488 8.85505 7.99882C8.98695 8.45881 9.46678 8.72477 9.92677 8.59286C10.3868 8.46095 10.6527 7.98112 10.5208 7.52114Z" fill="#D3883E"/>
          <path d="M22.4608 7.99882C22.72 7.09488 23.6552 6.57309 24.5548 6.82446C24.5624 6.8266 24.5701 6.82863 24.5778 6.83055C24.5992 6.8359 24.6124 6.83922 24.6234 6.84216L24.6296 6.84385C25.6114 7.17631 25.7704 8.58902 24.7884 9.13185L19.8184 11.8819C19.3997 12.1135 19.2481 12.6408 19.4798 13.0595C19.7115 13.4782 20.2387 13.6298 20.6574 13.3981L25.6274 10.6481C27.8633 9.41184 27.6649 6.02898 25.1719 5.19799C25.1104 5.17748 25.0423 5.1604 25.0084 5.15196C23.192 4.65179 21.3146 5.7093 20.7951 7.52114C20.6632 7.98112 20.9291 8.46095 21.3891 8.59286C21.8491 8.72477 22.3289 8.45881 22.4608 7.99882Z" fill="#D3883E"/>
          <path d="M17.328 17.51V13.29H13.9879V17.51C13.9879 18.25 13.658 18.96 13.088 19.43L11.168 21.03H20.1479L18.228 19.43C17.658 18.95 17.328 18.25 17.328 17.51Z" fill="#D3883E"/>
          <path d="M15.658 16.54C11.808 16.54 8.68799 13.42 8.68799 9.56999V2.70999C8.68799 2.31999 9.00798 2 9.39798 2H21.928C22.318 2 22.638 2.31999 22.638 2.70999V9.56999C22.638 13.42 19.518 16.54 15.658 16.54Z" fill="#FFB02E"/>
          <path d="M22.7923 21.03H8.19719C7.42737 21.03 6.77355 21.54 6.62592 22.25L5.01245 29.34C4.93863 29.67 5.20226 29.98 5.56081 29.98H25.4392C25.7977 29.98 26.0614 29.67 25.9876 29.34L24.3741 22.25C24.2159 21.54 23.5621 21.03 22.7923 21.03Z" fill="#6D4534"/>
          <path d="M18.383 23.96H12.617C12.2817 23.96 12.004 24.24 12.004 24.6V26.41C12.004 26.76 12.2721 27.05 12.617 27.05H18.383C18.7183 27.05 18.996 26.77 18.996 26.41V24.6C18.996 24.25 18.7278 23.96 18.383 23.96Z" fill="#FFB02E"/>
        </g>
      </g>
      <rect x="725.0" y="782.0" width="690.0" height="24" rx="12" fill="var(--accent-5)" fill-opacity="0.08"/>
      <text x="1516.0" y="796.0" text-anchor="end" font-size="17" font-weight="800" fill="var(--accent-5)" opacity="0.72">05</text>
      <text id="ITEM_5_HEAD" x="738.0" y="772.0" text-anchor="start" font-weight="800" font-size="30" fill="var(--semantic-positive)" data-bg-id="ITEM_5_BG" fill-opacity="1.0" style="font-size: 31px; font-family: 'Segoe UI Variable Display', 'Aptos Display', 'Inter', 'Segoe UI', Helvetica, Arial, sans-serif; font-weight: 700; font-kerning: normal; font-feature-settings: &quot;kern&quot; 1, &quot;liga&quot; 1; letter-spacing:-0.4px;" data-final-font-size="31">
        <tspan x="738.0" dy="28.58px">Increased Competition</tspan>
      </text>
      <rect id="ITEM_5_HEAD_FRAME" x="738.0" y="772.0" width="620.0" height="34" fill="none"/>
      <text id="ITEM_5_BODY" x="738.0" y="814.0" text-anchor="start" font-size="23" fill="var(--primary-text)" data-bg-id="ITEM_5_BG" style="font-size: 23px; font-family: 'Segoe UI Variable Text', 'Aptos', 'Inter', 'Segoe UI', Helvetica, Arial, sans-serif; font-weight: 400; font-kerning: normal; font-feature-settings: &quot;kern&quot; 1, &quot;liga&quot; 1;" data-final-font-size="23">
        <tspan x="738.0" dy="28.21px">Prevents monopoly by allowing multi-supplier setups</tspan>
      </text>
      <rect id="ITEM_5_BODY_FRAME" x="738.0" y="814.0" width="650.0" height="64.0" fill="none"/>
    </g>
  </g>
  <text id="SOURCE_NOTE" x="134.0" y="1058.0" fill="var(--muted-text)" opacity="0.88" style="font-family: var(--font-family); font-size: 20px;">Source: Introduction</text>
</svg>
