<?xml version='1.0' encoding='utf-8'?>
<svg xmlns="http://www.w3.org/2000/svg" width="1920" height="1080" viewBox="0 0 1920 1080" data-theme="light" data-semantic-intent="loop_system" data-relation-type="taxonomy" data-site-visual-identity="signal-cobalt">
  <style>
        @font-face {
            font-family: 'Inter';
            src: url('assets/fonts/Inter-Regular.ttf') format('truetype');
            font-weight: 400;
            font-style: normal;
            font-display: swap;
        }
        @font-face {
            font-family: 'Inter';
            src: url('assets/fonts/Inter-Bold.ttf') format('truetype');
            font-weight: 600;
            font-style: normal;
            font-display: swap;
        }
        @font-face {
            font-family: 'Inter';
            src: url('assets/fonts/Inter-Bold.ttf') format('truetype');
            font-weight: 800;
            font-style: normal;
            font-display: swap;
        }
        
:root {
    --background: #f8fafc;
    --panel: #ffffff;
    --primary-text: #0f172a;
    --muted-text: #64748b;
    --inverse-text: #ffffff;
    --border: #e2e8f0;
    --shadow-color: #000000;
    --icon-pad-bg: #1e293b;
    --art-glow: #0891b2;
    --art-glow-opacity: 0.10;
    --art-sheen: #ffffff;
    --art-sheen-opacity: 0.34;
    --art-shadow: #0f172a;
    --art-shadow-opacity: 0.14;
    --art-muted-line: #94a3b8;
    --art-panel-tint: #f1f5f9;
    --semantic-risk: #b91c1c;
    --semantic-warning: #c2410c;
    --semantic-uncertain: #a16207;
    --semantic-evidence: #1d4ed8;
    --semantic-claim: #6d28d9;
    --semantic-positive: #15803d;
    --semantic-outcome: #0e7490;
    --font-family: 'Inter', 'Segoe UI', 'Kalam', Roboto, Helvetica, Arial, sans-serif;
    --radius-xl: 16px;
    --font-family-headline: 'Segoe UI Variable Display', 'Aptos Display', 'Inter', 'Segoe UI', Helvetica, Arial, sans-serif;
    --font-family-body: 'Segoe UI Variable Text', 'Aptos', 'Inter', 'Segoe UI', Helvetica, Arial, sans-serif;
    --font-heading: var(--font-family-headline);
    --font-body: var(--font-family-body);
    --font-size-h1: 64px;
    --font-size-h2: 42px;
    --font-size-h3: 29px;
    --font-size-body: 21px;
    --font-size-caption: 17px;
    --secondary-text: var(--muted-text);
    --panel-border: var(--border);
    --font-weight-normal: 400;
    --font-weight-medium: 500;
    --font-weight-semibold: 600;
    --font-weight-bold: 700;
    --spacing-gutter-pct: 0.07;
    --spacing-top-pct: 0.15;
    --spacing-bottom-pct: 0.07;
    --spacing-title-y-pct: 0.055;
    --accent-1: #1d4ed8;
    --accent-2: #2563eb;
    --accent-3: #4f46e5;
    --accent-4: #6d28d9;
    --accent-5: #0369a1;
    --accent-6: #c2410c;
}
:root[data-theme="dark"] {
    --background: #0f172a;
    --panel: #1e293b;
    --primary-text: #f1f5f9;
    --muted-text: #94a3b8;
    --inverse-text: #0f172a;
    --border: #334155;
    --shadow-color: #000000;
    --icon-pad-bg: #1e293b;
    --art-glow: #7dd3fc;
    --art-glow-opacity: 0.18;
    --art-sheen: #ffffff;
    --art-sheen-opacity: 0.18;
    --art-shadow: #000000;
    --art-shadow-opacity: 0.28;
    --art-muted-line: #64748b;
    --art-panel-tint: #1e293b;
    --semantic-risk: #f87171;
    --semantic-warning: #fb923c;
    --semantic-uncertain: #fbbf24;
    --semantic-evidence: #60a5fa;
    --semantic-claim: #c084fc;
    --semantic-positive: #4ade80;
    --semantic-outcome: #22d3ee;
    --accent-1: #93c5fd;
    --accent-2: #60a5fa;
    --accent-3: #818cf8;
    --accent-4: #a78bfa;
    --accent-5: #38bdf8;
    --accent-6: #fb923c;
}
:root[data-theme="light"] {
    --background: #f8fafc;
    --panel: #ffffff;
    --primary-text: #0f172a;
    --muted-text: #64748b;
    --inverse-text: #ffffff;
    --border: #e2e8f0;
    --shadow-color: #000000;
    --icon-pad-bg: #1e293b;
    --art-glow: #0891b2;
    --art-glow-opacity: 0.10;
    --art-sheen: #ffffff;
    --art-sheen-opacity: 0.34;
    --art-shadow: #0f172a;
    --art-shadow-opacity: 0.14;
    --art-muted-line: #94a3b8;
    --art-panel-tint: #f1f5f9;
    --semantic-risk: #b91c1c;
    --semantic-warning: #c2410c;
    --semantic-uncertain: #a16207;
    --semantic-evidence: #1d4ed8;
    --semantic-claim: #6d28d9;
    --semantic-positive: #15803d;
    --semantic-outcome: #0e7490;
    --accent-1: #1d4ed8;
    --accent-2: #2563eb;
    --accent-3: #4f46e5;
    --accent-4: #6d28d9;
    --accent-5: #0369a1;
    --accent-6: #c2410c;
}</style>
  <rect x="0" y="0" width="1.92E+3" height="1.08E+3" fill="#252a34" stroke="none" id="programmatic_background"/>
  <line id="HEADER_DECOR" x1="960.0" x2="1080.0" y1="95.0" y2="95.0" stroke="var(--accent-1)" stroke-width="6" stroke-linecap="round"/>
  <defs>
    <pattern id="svg92a4224e-napkin-hatch" patternUnits="userSpaceOnUse" width="12" height="12">
      <path d="M -3 12 L 12 -3 M 0 15 L 15 0" fill="none" stroke="var(--primary-text)" stroke-width="1" stroke-opacity="0.05"/>
    </pattern>
    <radialGradient id="svg92a4224e-universal-edge-vignette" cx="50%" cy="50%" r="72%">
      <stop offset="0%" stop-color="var(--background)" stop-opacity="0"/>
      <stop offset="72%" stop-color="var(--background)" stop-opacity="0.12"/>
      <stop offset="100%" stop-color="var(--primary-text)" stop-opacity="0.08"/>
    </radialGradient>
    <linearGradient id="svg92a4224e-universal-surface-sheen" x1="0%" y1="0%" x2="100%" y2="100%">
      <stop offset="0%" stop-color="var(--art-sheen)" stop-opacity="var(--art-sheen-opacity)"/>
      <stop offset="46%" stop-color="var(--art-sheen)" stop-opacity="0.035"/>
      <stop offset="100%" stop-color="var(--art-panel-tint)" stop-opacity="0.14"/>
    </linearGradient>
    <radialGradient id="svg92a4224e-universal-icon-aura" cx="50%" cy="42%" r="64%">
      <stop offset="0%" stop-color="var(--art-glow)" stop-opacity="var(--art-glow-opacity)"/>
      <stop offset="100%" stop-color="var(--background)" stop-opacity="0"/>
    </radialGradient>
    <filter id="svg92a4224e-text-glow" x="-20%" y="-20%" width="140%" height="140%">
      <feDropShadow dx="0" dy="0" stdDeviation="2" flood-color="#000000" flood-opacity="0.4"/>
    </filter>
    <filter id="svg92a4224e-shadow" x="-30%" y="-30%" width="160%" height="160%">
      <feDropShadow dx="0" dy="2" stdDeviation="3" flood-color="#000000" flood-opacity="0.08"/>
      <feDropShadow dx="0" dy="6" stdDeviation="10" flood-color="#000000" flood-opacity="0.12"/>
    </filter>
    <marker id="svg92a4224e-arrowhead" markerWidth="10" markerHeight="7" refX="9" refY="3.5" orient="auto" markerUnits="strokeWidth">
      <polygon points="0 0, 10 3.5, 0 7" fill="var(--muted-text)" opacity="0.6"/>
    </marker>
  </defs>
  <rect width="100%" height="100%" fill="var(--background)" id="CANVAS_BG"/>
  <rect width="100%" height="100%" fill="url(#svg92a4224e-napkin-hatch)"/>
  <rect id="UNIVERSAL_EDGE_VIGNETTE" width="100%" height="100%" fill="url(#svg92a4224e-universal-edge-vignette)" opacity="0.62"/>
  <text id="TITLE" x="960.0" y="59" font-size="56" font-weight="800" fill="#0f172a" style="font-size: 69px; font-family: 'Segoe UI Variable Display', 'Aptos Display', 'Inter', 'Segoe UI', Helvetica, Arial, sans-serif; font-weight: 800; font-kerning: normal; font-feature-settings: &quot;kern&quot; 1, &quot;liga&quot; 1; letter-spacing:-1.2px;" text-anchor="middle" data-final-font-size="69">
    <tspan x="960.0" dy="70.47px">Mechanisms for AI Supervision</tspan>
  </text>
  <rect id="TITLE_FRAME" x="140" y="40" width="1640" height="80" fill="none"/>
  <g id="DIAGRAM_MAIN">
    <!-- Connectors from center -->
    <path d="M960,480 L560,260" stroke="var(--muted-text)" stroke-width="4" stroke-dasharray="8 8" opacity="0.4"/>
    <path d="M960,480 L1360,260" stroke="var(--muted-text)" stroke-width="4" stroke-dasharray="8 8" opacity="0.4"/>
    <path d="M960,480 L560,700" stroke="var(--muted-text)" stroke-width="4" stroke-dasharray="8 8" opacity="0.4"/>
    <path d="M960,480 L1360,700" stroke="var(--muted-text)" stroke-width="4" stroke-dasharray="8 8" opacity="0.4"/>
    <!-- Central Hub -->
    <g transform="translate(960, 480)">
      <circle r="110" fill="var(--panel)" stroke="var(--primary-text)" stroke-width="6"/>
      <circle r="130" fill="none" stroke="var(--accent-1)" stroke-width="2" opacity="0.3"/>
      <circle id="ITEM_1_PAD" cx="0" cy="0" r="65" fill="var(--icon-pad-bg)" stroke="var(--accent-1)" opacity="1" fill-opacity="0.9" stroke-width="2" stroke-opacity="0.72" data-badge-layer="pad"/>
      <circle id="ITEM_1_PAD_INNER" cx="0" cy="0" r="50.70" fill="var(--accent-1)" fill-opacity="0.12" stroke="none" data-badge-layer="tint"/>
      <circle cx="0" cy="0" r="52" fill="none" stroke="var(--accent-1)" stroke-width="3" stroke-dasharray="6 4" display="none" data-suppressed-decoration="redundant-badge-ring"/>
      <g id="ITEM_1_ICON" transform="translate(-40, -40)" data-icon-size="80" stroke-linecap="round" stroke-linejoin="round" data-badge-treatment="clean">
        <g transform="translate(-13.657500000000002,-14.080000000000004) scale(0.21125000000000002)" vector-effect="non-scaling-stroke" fill="#f1f5f9" fill-opacity="1.0" stroke="none">
          <path fill="#f1f5f9" d="M254.28 17.313c-81.048 0-146.624 65.484-146.624 146.406V236h49.594v-69.094c0-53.658 43.47-97.187 97.03-97.187c53.563 0 97.032 44.744 97.032 97.186V236h49.594v-72.28c0-78.856-65.717-146.407-146.625-146.407zM85.157 254.688c-14.61 22.827-22.844 49.148-22.844 76.78c0 88.358 84.97 161.5 191.97 161.5c106.998 0 191.968-73.142 191.968-161.5c0-27.635-8.26-53.95-22.875-76.78H85.155zM254 278.625c22.34 0 40.875 17.94 40.875 40.28c0 16.756-10.6 31.23-25.125 37.376l32.72 98.126h-96.376l32.125-98.125c-14.526-6.145-24.532-20.62-24.532-37.374c0-22.338 17.972-40.28 40.312-40.28z" vector-effect="non-scaling-stroke" stroke="none"/>
        </g>
      </g>
      <rect id="ITEM_1_TEXT_PILL" x="-200" y="140" width="400" height="90" rx="8" fill="var(--background)" opacity="0.85" stroke="none"/>
      <text id="ITEM_1_HEAD" text-anchor="middle" font-weight="bold" font-size="28" fill="var(--accent-1)" x="0.0" y="145.0" fill-opacity="1.0" style="font-size: 31px; font-family: 'Segoe UI Variable Display', 'Aptos Display', 'Inter', 'Segoe UI', Helvetica, Arial, sans-serif; font-weight: 700; font-kerning: normal; font-feature-settings: &quot;kern&quot; 1, &quot;liga&quot; 1; letter-spacing:-0.4px;" data-final-font-size="31">
        <tspan x="0.0" dy="44.52px">Built-in Controls</tspan>
      </text>
      <rect id="ITEM_1_HEAD_FRAME" x="-190" y="145" width="380" height="60" fill="none"/>
    </g>
    <!-- Node A - Top Left -->
    <g transform="translate(560, 260)">
      <circle id="ITEM_2_NODE" r="65" fill="var(--icon-pad-bg)" stroke="var(--accent-2)" stroke-width="2" stroke-opacity="0.58" data-badge-layer="outline"/>
      <circle cx="0" cy="0" r="52" fill="none" stroke="var(--accent-2)" stroke-width="3" stroke-dasharray="6 4"/>
      <g id="ITEM_2_ICON" transform="translate(-30, -30)" data-icon-size="60" stroke-linecap="round" stroke-linejoin="round" data-badge-treatment="clean">
        <g transform="translate(-30.088888888888892,-30.088888888888892) scale(5.007407407407408)" vector-effect="non-scaling-stroke" stroke-width="2.43" stroke-linecap="round" stroke-linejoin="round" stroke-opacity="1.0">
          <path d="M10 10 7 7" vector-effect="non-scaling-stroke" fill="none" stroke="var(--accent-2)"/>
          <path d="m10 14-3 3" vector-effect="non-scaling-stroke" fill="none" stroke="var(--accent-2)"/>
          <path d="m14 10 3-3" vector-effect="non-scaling-stroke" fill="none" stroke="var(--accent-2)"/>
          <path d="m14 14 3 3" vector-effect="non-scaling-stroke" fill="none" stroke="var(--accent-2)"/>
          <path d="M14.205 4.139a4 4 0 1 1 5.439 5.863" vector-effect="non-scaling-stroke" fill="none" stroke="var(--accent-2)"/>
          <path d="M19.637 14a4 4 0 1 1-5.432 5.868" vector-effect="non-scaling-stroke" fill="none" stroke="var(--accent-2)"/>
          <path d="M4.367 10a4 4 0 1 1 5.438-5.862" vector-effect="non-scaling-stroke" fill="none" stroke="var(--accent-2)"/>
          <path d="M9.795 19.862a4 4 0 1 1-5.429-5.873" vector-effect="non-scaling-stroke" fill="none" stroke="var(--accent-2)"/>
          <rect x="10" y="8" width="4" height="8" rx="1" vector-effect="non-scaling-stroke" fill="none" stroke="var(--accent-2)"/>
        </g>
      </g>
      <g transform="translate(0, 90)">
        <rect id="ITEM_2_BG" x="-190" y="-15" width="380" height="185" rx="10" fill="var(--background)" opacity="0.85" stroke="none"/>
        <text id="ITEM_2_HEAD" text-anchor="middle" font-weight="bold" font-size="26" fill="var(--accent-2)" x="0.0" y="0.0" data-bg-id="ITEM_2_BG" fill-opacity="1.0" style="font-size: 31px; font-family: 'Segoe UI Variable Display', 'Aptos Display', 'Inter', 'Segoe UI', Helvetica, Arial, sans-serif; font-weight: 700; font-kerning: normal; font-feature-settings: &quot;kern&quot; 1, &quot;liga&quot; 1; letter-spacing:-0.4px;" data-final-font-size="31">
          <tspan x="0.0" dy="44.52px">AI-Assisted Supervision</tspan>
        </text>
        <rect id="ITEM_2_HEAD_FRAME" x="-190" y="0" width="380" height="60" fill="none"/>
        <text id="ITEM_2_BODY" text-anchor="middle" font-size="18" fill="var(--primary-text)" x="0.0" y="50.0" data-bg-id="ITEM_2_BG" style="font-size: 23px; font-family: 'Segoe UI Variable Text', 'Aptos', 'Inter', 'Segoe UI', Helvetica, Arial, sans-serif; font-weight: 400; font-kerning: normal; font-feature-settings: &quot;kern&quot; 1, &quot;liga&quot; 1;" data-final-font-size="23">
          <tspan x="0.0" dy="37.10px">Use secondary AI to monitor</tspan>
          <tspan x="0.0" dy="26.45px">primary systems</tspan>
        </text>
        <rect id="ITEM_2_BODY_FRAME" x="-190" y="50" width="380" height="120" fill="none"/>
      </g>
    </g>
    <!-- Node B - Top Right -->
    <g transform="translate(1360, 260)">
      <circle id="ITEM_3_NODE" r="65" fill="var(--icon-pad-bg)" stroke="var(--accent-3)" stroke-width="2" stroke-opacity="0.58" data-badge-layer="outline"/>
      <circle cx="0" cy="0" r="52" fill="none" stroke="var(--accent-3)" stroke-width="3" stroke-dasharray="6 4"/>
      <g id="ITEM_3_ICON" transform="translate(-30, -30)" data-icon-size="60" stroke-linecap="round" stroke-linejoin="round" data-badge-treatment="clean">
        <g transform="translate(-27.43008849557523,-27.878761061946907) scale(3.5893805309734517)">
          <path d="M23.5103 2.01H8.60027V2H4.45026V5H6.95026V27.07C6.95026 28.69 8.27026 30.01 9.89026 30.01H25.5603C26.3303 30.01 26.9503 29.39 26.9503 28.62V5.45C26.9503 3.55 25.4103 2.01 23.5103 2.01Z" fill="#FFDEA7"/>
          <path d="M10.8603 29.99C10.8603 29.99 13.1003 29.66 13.5903 27.49C13.6603 27.19 14.0003 26.97 14.4003 26.97H29.1303C29.6503 26.97 30.0403 27.33 29.9503 27.71C29.7203 28.6 29.3503 30 25.5803 30C20.0103 30 10.8603 29.99 10.8603 29.99Z" fill="#E19747"/>
          <path d="M6.95026 5C6.95026 3.34 5.83027 2 4.45026 2C3.26026 2 2.27028 3 2.01028 4.33C1.95028 4.67 2.16026 5 2.45026 5H6.95026Z" fill="#D3883E"/>
          <path d="M10.4203 11.87C10.1441 11.87 9.92029 12.0939 9.92029 12.37C9.92029 12.6461 10.1441 12.87 10.4203 12.87H23.5003C23.7764 12.87 24.0003 12.6461 24.0003 12.37C24.0003 12.0939 23.7764 11.87 23.5003 11.87H10.4203ZM9.98029 15.33C9.98029 15.0539 10.2041 14.83 10.4803 14.83H23.5003C23.7764 14.83 24.0003 15.0539 24.0003 15.33C24.0003 15.6062 23.7764 15.83 23.5003 15.83H10.4803C10.2041 15.83 9.98029 15.6062 9.98029 15.33ZM10.4803 17.85C10.2041 17.85 9.98029 18.0738 9.98029 18.35C9.98029 18.6261 10.2041 18.85 10.4803 18.85H23.5003C23.7764 18.85 24.0003 18.6261 24.0003 18.35C24.0003 18.0738 23.7764 17.85 23.5003 17.85H10.4803ZM10.5103 20.83C10.2341 20.83 10.0103 21.0539 10.0103 21.33C10.0103 21.6062 10.2341 21.83 10.5103 21.83H18.4703C18.7464 21.83 18.9703 21.6062 18.9703 21.33C18.9703 21.0539 18.7464 20.83 18.4703 20.83H10.5103Z" fill="#D3883E"/>
        </g>
      </g>
      <g transform="translate(0, 90)">
        <rect id="ITEM_3_BG" x="-190" y="-15" width="380" height="185" rx="10" fill="var(--background)" opacity="0.85" stroke="none"/>
        <text id="ITEM_3_HEAD" text-anchor="middle" font-weight="bold" font-size="26" fill="var(--accent-3)" x="0.0" y="0.0" data-bg-id="ITEM_3_BG" fill-opacity="1.0" style="font-size: 31px; font-family: 'Segoe UI Variable Display', 'Aptos Display', 'Inter', 'Segoe UI', Helvetica, Arial, sans-serif; font-weight: 700; font-kerning: normal; font-feature-settings: &quot;kern&quot; 1, &quot;liga&quot; 1; letter-spacing:-0.4px;" data-final-font-size="31">
          <tspan x="0.0" dy="44.52px">Constitutional AI</tspan>
        </text>
        <rect id="ITEM_3_HEAD_FRAME" x="-190" y="0" width="380" height="60" fill="none"/>
        <text id="ITEM_3_BODY" text-anchor="middle" font-size="18" fill="var(--primary-text)" x="0.0" y="50.0" data-bg-id="ITEM_3_BG" style="font-size: 23px; font-family: 'Segoe UI Variable Text', 'Aptos', 'Inter', 'Segoe UI', Helvetica, Arial, sans-serif; font-weight: 400; font-kerning: normal; font-feature-settings: &quot;kern&quot; 1, &quot;liga&quot; 1;" data-final-font-size="23">
          <tspan x="0.0" dy="37.10px">Train models using explicit principles</tspan>
          <tspan x="0.0" dy="26.45px">and critiques</tspan>
        </text>
        <rect id="ITEM_3_BODY_FRAME" x="-190" y="50" width="380" height="120" fill="none"/>
      </g>
    </g>
    <!-- Node C - Bottom Left - text BELOW icon -->
    <g transform="translate(560, 700)">
      <circle id="ITEM_4_NODE" r="65" fill="var(--icon-pad-bg)" stroke="var(--accent-1)" stroke-width="2" stroke-opacity="0.58" data-badge-layer="outline"/>
      <circle cx="0" cy="0" r="52" fill="none" stroke="var(--accent-4)" stroke-width="3" stroke-dasharray="6 4"/>
      <g id="ITEM_4_ICON" transform="translate(-30, -30)" data-icon-size="60" stroke-linecap="round" stroke-linejoin="round" data-badge-treatment="clean">
        <g transform="translate(-27.942857142857147,-29.753571428571426) scale(3.6214285714285714)">
          <path d="M22.5247 17.94C26.6502 17.94 29.9947 14.5956 29.9947 10.47C29.9947 6.34443 26.6502 3 22.5247 3C18.3991 3 15.0547 6.34443 15.0547 10.47C15.0547 14.5956 18.3991 17.94 22.5247 17.94Z" fill="#533566"/>
          <path d="M2.64445 29.2101C1.81445 28.3301 1.78446 26.9601 2.56446 26.0401L15.1045 11.3401L21.2145 17.8201L5.80445 29.4801C4.84445 30.2101 3.47445 30.0901 2.64445 29.2101Z" fill="#9B9B9B"/>
          <path d="M18.9958 4.00515L28.9358 14.5552C29.5958 15.2552 29.5658 16.3552 28.8658 17.0051C28.1658 17.6651 27.0758 17.6352 26.4158 16.9352L16.4758 6.38515C15.8158 5.68515 15.8458 4.59517 16.5458 3.93517C17.2458 3.27517 18.3358 3.30515 18.9958 4.00515ZM15.4146 18.5302C15.4146 19.342 14.7565 20.0002 13.9446 20.0002C13.1328 20.0002 12.4746 19.342 12.4746 18.5302C12.4746 17.7183 13.1328 17.0602 13.9446 17.0602C14.7565 17.0602 15.4146 17.7183 15.4146 18.5302Z" fill="#BEBEBE"/>
        </g>
      </g>
      <g transform="translate(0, 90)">
        <rect id="ITEM_4_BG" x="-190" y="-15" width="380" height="185" rx="10" fill="var(--background)" opacity="0.85" stroke="none"/>
        <text id="ITEM_4_HEAD" text-anchor="middle" font-weight="bold" font-size="26" fill="var(--accent-1)" x="0.0" y="0.0" data-bg-id="ITEM_4_BG" fill-opacity="1.0" style="font-size: 31px; font-family: 'Segoe UI Variable Display', 'Aptos Display', 'Inter', 'Segoe UI', Helvetica, Arial, sans-serif; font-weight: 700; font-kerning: normal; font-feature-settings: &quot;kern&quot; 1, &quot;liga&quot; 1; letter-spacing:-0.4px;" data-final-font-size="31">
          <tspan x="0.0" dy="44.52px">Public Input</tspan>
        </text>
        <rect id="ITEM_4_HEAD_FRAME" x="-190" y="0" width="380" height="60" fill="none"/>
        <text id="ITEM_4_BODY" text-anchor="middle" font-size="18" fill="var(--primary-text)" x="0.0" y="50.0" data-bg-id="ITEM_4_BG" style="font-size: 23px; font-family: 'Segoe UI Variable Text', 'Aptos', 'Inter', 'Segoe UI', Helvetica, Arial, sans-serif; font-weight: 400; font-kerning: normal; font-feature-settings: &quot;kern&quot; 1, &quot;liga&quot; 1;" data-final-font-size="23">
          <tspan x="0.0" dy="37.10px">Incorporate democratic participation</tspan>
          <tspan x="0.0" dy="26.45px">into AI values</tspan>
        </text>
        <rect id="ITEM_4_BODY_FRAME" x="-190" y="50" width="380" height="120" fill="none"/>
      </g>
    </g>
    <!-- Node D - Bottom Right - text BELOW icon -->
    <g transform="translate(1360, 700)">
      <circle id="ITEM_5_NODE" r="65" fill="var(--icon-pad-bg)" stroke="var(--accent-2)" stroke-width="2" stroke-opacity="0.58" data-badge-layer="outline"/>
      <circle cx="0" cy="0" r="52" fill="none" stroke="var(--accent-5)" stroke-width="3" stroke-dasharray="6 4"/>
      <g id="ITEM_5_ICON" transform="translate(-30, -30)" data-icon-size="60" stroke-linecap="round" stroke-linejoin="round" data-badge-treatment="clean">
        <g transform="translate(-24.99661016949153,-22.848305084745768) scale(4.583050847457628)" vector-effect="non-scaling-stroke" stroke-width="2.43" stroke-linecap="round" stroke-linejoin="round" stroke-opacity="1.0">
          <path d="m12 14 4-4" vector-effect="non-scaling-stroke" fill="none" stroke="var(--accent-2)"/>
          <path d="M3.34 19a10 10 0 1 1 17.32 0" vector-effect="non-scaling-stroke" fill="none" stroke="var(--accent-2)"/>
        </g>
      </g>
      <g transform="translate(0, 90)">
        <rect id="ITEM_5_BG" x="-190" y="-15" width="380" height="185" rx="10" fill="var(--background)" opacity="0.85" stroke="none"/>
        <text id="ITEM_5_HEAD" text-anchor="middle" font-weight="bold" font-size="26" fill="var(--accent-2)" x="0.0" y="0.0" data-bg-id="ITEM_5_BG" fill-opacity="1.0" style="font-size: 31px; font-family: 'Segoe UI Variable Display', 'Aptos Display', 'Inter', 'Segoe UI', Helvetica, Arial, sans-serif; font-weight: 700; font-kerning: normal; font-feature-settings: &quot;kern&quot; 1, &quot;liga&quot; 1; letter-spacing:-0.4px;" data-final-font-size="31">
          <tspan x="0.0" dy="44.52px">Uncertainty Estimates</tspan>
        </text>
        <rect id="ITEM_5_HEAD_FRAME" x="-190" y="0" width="380" height="60" fill="none"/>
        <text id="ITEM_5_BODY" text-anchor="middle" font-size="18" fill="var(--primary-text)" x="0.0" y="50.0" data-bg-id="ITEM_5_BG" style="font-size: 23px; font-family: 'Segoe UI Variable Text', 'Aptos', 'Inter', 'Segoe UI', Helvetica, Arial, sans-serif; font-weight: 400; font-kerning: normal; font-feature-settings: &quot;kern&quot; 1, &quot;liga&quot; 1;" data-final-font-size="23">
          <tspan x="0.0" dy="37.10px">Provide confidence scores</tspan>
          <tspan x="0.0" dy="26.45px">for AI conclusions</tspan>
        </text>
        <rect id="ITEM_5_BODY_FRAME" x="-190" y="50" width="380" height="120" fill="none"/>
      </g>
    </g>
  </g>
  <text id="SOURCE_NOTE" x="134.0" y="1058.0" fill="var(--muted-text)" opacity="1" style="font-family: var(--font-family); font-size: 20px;">Source: Open AIHow we think about safety and alignment | Open AI</text>
</svg>
